<svg id="Group_5204" data-name="Group 5204" xmlns="http://www.w3.org/2000/svg" width="88.99" height="67.24" viewBox="0 0 88.99 67.24">
  <path id="Path_1988" data-name="Path 1988" d="M27.123,48.9c1.351.646,2.7,1.292,3.994,2.056C35.229,53.361,39.223,56,43.51,58.119L45.272,59c.059.117.117.176.176.294a1.685,1.685,0,0,0,2,.764l.881.352c3.7,1.351,7.459,2.526,11.1,3.935,1.762.7,3.642.822,5.4,1.351,9.4,2.819,19.794,5.169,32.774,15.917a3.976,3.976,0,0,1,1.41,2.173h-.059c0,.235-.117.587.059.7.059.059.117.059.176.117,0,.176.059.411.059.587a1.962,1.962,0,0,1-3.23,1.762,38.817,38.817,0,0,0-3.23-2.173,8.068,8.068,0,0,0-3-1.527c-2.114-.235-3.877-1.292-5.873-1.88-1.057-.294-2.114-.881-3.172-1.057-4.17-.587-8.047-2.584-12.334-2.467-2.173-.529-4.346-1-6.52-1.527.059-.059.117-.059.176-.117a3.544,3.544,0,0,0-.47-.47.447.447,0,0,0-.352.47,32.524,32.524,0,0,1-3.407-1c-4.405-1.468-8.986-2.584-13.157-4.816-2.173-.176-3.642-1.762-5.462-2.761-1.175-.881-2.408-1.762-3.524-2.7a81.919,81.919,0,0,1-9.1-9.515c-.646-.7-.822-1.645-1.586-4.405a2.087,2.087,0,0,1-.117-.587c.176.294.411.294.646.059a.5.5,0,0,0,0-.411c-.117-.235-.235-.411-.352-.646.059-.059.117-.176.235-.235A1.51,1.51,0,0,1,27.123,48.9ZM74.052,72.626c-.235.235-.176.411.235.529a.835.835,0,0,0,.352-.117l-.176-.352C74.287,72.685,74.111,72.568,74.052,72.626ZM90.909,83.551c.117.059.294.117.764.294a5.938,5.938,0,0,0,1.7.7,3.335,3.335,0,0,0,1.645-.352c.529-.235.529-1.116.117-1.527a1.5,1.5,0,0,0-1.645-.411c-1,.529-1.175-.117-1.468-.822-.059-.176-.587-.235-.822-.176a1.447,1.447,0,0,0-1.057,1.292A.962.962,0,0,0,90.909,83.551ZM59.6,67.281c-.059-.117-.059-.294-.117-.411-.117.059-.294.059-.411.117.059.117.059.352.117.411S59.427,67.34,59.6,67.281Zm-10.4-.822a.993.993,0,0,0,0,.822,2.072,2.072,0,0,0,1.057.646,3.865,3.865,0,0,0,2.7-1.527c.529-.7.94-1.527,1.527-2.408-1.7-.352-3.113-.294-4.17,1.057C49.971,65.578,49.56,65.989,49.208,66.459Zm-7.577-6.7c.176.411.47.764,1,.587a1.281,1.281,0,0,0,.294-.235c.235-.411.059-.822-.411-1.116-.235,0-.587-.059-.764.059A.625.625,0,0,0,41.631,59.763Z" transform="translate(-24.891 -20.18)"/>
  <path id="Path_1989" data-name="Path 1989" d="M67.942,27.767a7.2,7.2,0,0,0,.117-1.116c.059-.411-.411-.822-.822-.881-.47-.059-1,.235-1,.646-.059.7-.059,1.41-.117,2.114-1.527.587-3.583,1.351-4.64,1.645a14.131,14.131,0,0,1-3.818.7c-2.467.117-3.23.7-6.343,2a6.2,6.2,0,0,1-3.23.7,3.072,3.072,0,0,1-1.057-5.873c2.232-1.057,7.166-2.819,9.926-3.876.94-.352,1.88-.822,2.878-1.116,4.229-1.468,8.575-2.761,12.511-5.11,2.232-1.527,4.7-2.819,6.637-4.64A43.064,43.064,0,0,1,91.26,4.684c2.7-1.233,5.227-3.054,8.34-3.113a5.8,5.8,0,0,0,1.586-.587c.7-.294,1.41-.529,2.114-.764a1.492,1.492,0,0,1,1.527,2.526C102.6,5.037,100.07,5.624,97.9,6.916c-3.172,2-6.167,4.17-9.221,6.4-3.465,2.526-6.167,5.932-9.867,8.282-3.465,2.232-7.107,4.111-10.69,6.167A.11.11,0,0,0,67.942,27.767ZM98.778,5.859a2.531,2.531,0,0,0,.176-1c-.117-.529-.7-.587-1.41-.176a.79.79,0,0,0-.352,1.057C97.486,6.329,98.014,6.387,98.778,5.859Z" transform="translate(-42.921 -0.107)"/>
  <path id="Path_1990" data-name="Path 1990" d="M1.633,43.724c.94.47,1.938.94,2.819,1.468,2.937,1.7,5.756,3.583,8.751,5.11.411.235.822.411,1.233.646.059.059.059.117.117.176a1.23,1.23,0,0,0,1.41.529,2.863,2.863,0,0,0,.646.235c2.584,1,5.286,1.762,7.87,2.761,1.233.47,2.584.587,3.877.94,6.7,2.056,14.038,3.7,23.259,11.336a2.621,2.621,0,0,1,1,1.586h0c0,.176-.059.411,0,.529,0,.059.059.059.117.059a1,1,0,0,0,.059.411A1.372,1.372,0,0,1,50.5,70.683L48.21,69.1A5.514,5.514,0,0,0,46.1,68.04a24.56,24.56,0,0,1-4.17-1.292,14.972,14.972,0,0,0-2.291-.764c-2.937-.411-5.7-1.821-8.751-1.762-1.527-.352-3.113-.7-4.64-1.057.059,0,.059-.059.117-.059l-.352-.352a.3.3,0,0,0-.235.294c-.822-.235-1.645-.411-2.408-.7a55.746,55.746,0,0,1-9.339-3.407C12.5,58.818,11.442,57.7,10.149,57c-.822-.646-1.7-1.233-2.526-1.88a58.541,58.541,0,0,1-6.461-6.754c-.47-.529-.587-1.175-1.116-3.113a1,1,0,0,1-.059-.411.276.276,0,0,0,.47.059c.059-.059,0-.235,0-.294-.059-.176-.176-.294-.235-.47L.4,43.958A1.072,1.072,0,0,1,1.633,43.724ZM34.877,60.58q-.264.264.176.352c.059,0,.176-.059.235-.059-.059-.059-.059-.176-.117-.235C35.053,60.58,34.936,60.522,34.877,60.58Zm11.982,7.753a4.571,4.571,0,0,1,.529.176,3.6,3.6,0,0,0,1.233.47,2.8,2.8,0,0,0,1.175-.235.694.694,0,0,0,.059-1.057,1.127,1.127,0,0,0-1.175-.294c-.7.352-.822-.117-1.057-.587-.059-.117-.411-.176-.587-.117a1.074,1.074,0,0,0-.764.881A.893.893,0,0,0,46.859,68.333Zm-22.2-11.571c0-.117-.059-.176-.059-.294-.117,0-.176.059-.294.059a.44.44,0,0,0,.059.294C24.422,56.88,24.539,56.763,24.657,56.763Zm-7.342-.587a.531.531,0,0,0,0,.587,1.2,1.2,0,0,0,.764.47,2.677,2.677,0,0,0,1.88-1.057,14.39,14.39,0,0,0,1.057-1.7c-1.233-.235-2.232-.235-2.937.764A5.931,5.931,0,0,0,17.315,56.175Zm-5.4-4.757c.117.294.352.529.7.411a.265.265,0,0,0,.176-.176c.176-.294.059-.587-.294-.764-.176,0-.411-.059-.529.059A.355.355,0,0,0,11.911,51.418Z" transform="translate(36.192 -18.061)"/>
  <path id="Path_1991" data-name="Path 1991" d="M30.632,28.7c.059-.294.059-.529.117-.822s-.294-.587-.587-.646-.7.176-.7.47c-.059.47-.059,1-.117,1.468-1.116.411-2.526.94-3.289,1.175a8.717,8.717,0,0,1-2.7.47c-1.762.059-2.291.47-4.523,1.41a4.529,4.529,0,0,1-2.291.529,2.186,2.186,0,0,1-.764-4.17c1.586-.764,5.051-2,7.048-2.7.7-.235,1.351-.587,2.056-.822a50.063,50.063,0,0,0,8.869-3.583,33.573,33.573,0,0,0,4.7-3.289,31.077,31.077,0,0,1,8.693-5.873c1.88-.881,3.7-2.173,5.932-2.232a4.3,4.3,0,0,0,1.116-.411c.47-.176,1-.352,1.468-.529a1.083,1.083,0,0,1,1.116,1.821c-1.586,1.645-3.348,2.056-4.875,3-2.232,1.41-4.405,3-6.52,4.523-2.467,1.762-4.346,4.229-6.989,5.873-2.467,1.586-5.051,2.878-7.577,4.405C30.691,28.645,30.691,28.7,30.632,28.7ZM52.481,13.2a1.377,1.377,0,0,0,.117-.7c-.059-.352-.529-.411-1-.117a.53.53,0,0,0-.235.764C51.542,13.491,51.953,13.55,52.481,13.2Z" transform="translate(23.345 -3.804)"/>
</svg>
