<svg id="Group_5062" data-name="Group 5062" xmlns="http://www.w3.org/2000/svg" width="174.574" height="125.036" viewBox="0 0 174.574 125.036">
  <path id="Path_1753" data-name="Path 1753" d="M174.565,72.062a8.283,8.283,0,0,1-1.936,4.676c-1.2,1.729-3.075,2.485-4.78,3.5-30.625,18.111-74.556,43.75-74.636,43.791-3.115,1.593-6.126,1.211-9.1-.5-4.44-2.559-55.7-30.619-73.433-40.628C5.441,79.927.016,78.082.016,72.548Q.016,38.229,0,3.91C0,.914,2.374.126,5.369.126Q46.284.114,87.191.118c89.132,0,84.685-.707,86.466,1.338a3.5,3.5,0,0,1,.876,2.071Q174.605,37.8,174.565,72.062Z" transform="translate(0 0)"/>
</svg>
