<svg xmlns="http://www.w3.org/2000/svg" width="97.914" height="105.113" viewBox="0 0 97.914 105.113">
  <g id="Group_5092" data-name="Group 5092" transform="translate(792.182 -2699.401)">
    <g id="Group_5091" data-name="Group 5091" transform="translate(-792.182 2699.401)">
      <g id="Group_5077" data-name="Group 5077">
        <path id="Path_1794" data-name="Path 1794" d="M-732.3,2818.929l-35.1,39.333,20.387-44.413Z" transform="translate(777.464 -2767.379)"/>
        <path id="Path_1795" data-name="Path 1795" d="M-595.266,2719.029h-11.446v-5.77Z" transform="translate(682.02 -2707.633)"/>
        <path id="Path_1796" data-name="Path 1796" d="M-778.662,2766.869l.024.008v-.016Zm39.556-14.37v0l25.974,2.253Z" transform="translate(784.151 -2730.939)"/>
        <path id="Path_1797" data-name="Path 1797" d="M-695.451,2711.029l-22.434-11.308-.073-.069c-1.8-.5,2.36-.07-19.782-.248a2.153,2.153,0,0,0-1.823,1.023l-4.495,7.321h-43.527a2.146,2.146,0,0,0-1.421,3.748l18.231,16.189-15.706,5.624a2.147,2.147,0,0,0,.028,4.04l20.643,7.118-26.161,57a2.146,2.146,0,0,0,3.549,2.323l46.682-52.323c26.112-26.282,24.866-24.542,24.866-25.905V2715.09h20.464A2.145,2.145,0,0,0-695.451,2711.029Zm-91.217,24.31-.024-.008.024-.008Zm4.726-23.306h35.256l-5.526,9-13.964,5Zm-.179,78.251,20.387-44.413,14.715,5.08Zm38.269-42.776-35.439-12.221,28.784-10.314,26.734,2.327Zm22.69-24.289-25.974-2.253v0l6.1-9.943v0h0l4.495-7.317h15.373Zm4.288-12.42v-5.77l11.446,5.77Z" transform="translate(792.182 -2699.401)"/>
      </g>
      <g id="Group_5078" data-name="Group 5078" transform="translate(10.061 46.471)">
        <path id="Path_1798" data-name="Path 1798" d="M-732.3,2818.929l-35.1,39.333,20.387-44.413Z" transform="translate(767.402 -2813.849)"/>
      </g>
      <g id="Group_5079" data-name="Group 5079" transform="translate(75.308 5.627)">
        <path id="Path_1799" data-name="Path 1799" d="M-595.266,2719.029h-11.446v-5.77Z" transform="translate(606.712 -2713.26)"/>
      </g>
      <g id="Group_5081" data-name="Group 5081" transform="translate(10.061 46.471)">
        <g id="Group_5080" data-name="Group 5080">
          <path id="Path_1800" data-name="Path 1800" d="M-732.3,2818.929l-35.1,39.333,20.387-44.413Z" transform="translate(767.402 -2813.849)" fill="#fff"/>
        </g>
      </g>
      <g id="Group_5084" data-name="Group 5084" transform="translate(5.489 25.571)">
        <g id="Group_5082" data-name="Group 5082" transform="translate(7.402)">
          <path id="Path_1801" data-name="Path 1801" d="M-704.914,2764.706l-20.079,20.208-35.439-12.221,28.784-10.314Z" transform="translate(760.432 -2762.379)" fill="#fff"/>
        </g>
        <g id="Group_5083" data-name="Group 5083" transform="translate(0 10.35)">
          <path id="Path_1802" data-name="Path 1802" d="M-778.662,2787.877l.024.008v-.016Z" transform="translate(778.662 -2787.869)"/>
        </g>
      </g>
      <g id="Group_5086" data-name="Group 5086" transform="translate(10.24 12.631)">
        <g id="Group_5085" data-name="Group 5085">
          <path id="Path_1803" data-name="Path 1803" d="M-731.706,2730.51l-5.526,9-13.964,5-15.767-14Z" transform="translate(766.962 -2730.51)" fill="#fff"/>
        </g>
      </g>
      <g id="Group_5087" data-name="Group 5087" transform="translate(75.308 5.627)">
        <path id="Path_1804" data-name="Path 1804" d="M-595.266,2719.029h-11.446v-5.77Z" transform="translate(606.712 -2713.26)" fill="#fff"/>
      </g>
      <g id="Group_5090" data-name="Group 5090" transform="translate(45.046 4.295)">
        <g id="Group_5088" data-name="Group 5088">
          <path id="Path_1805" data-name="Path 1805" d="M-655.268,2709.979V2729.5l-25.974-2.253v0l6.1-9.944v0h0l4.495-7.317Z" transform="translate(681.242 -2709.979)" fill="#fff"/>
        </g>
        <g id="Group_5089" data-name="Group 5089" transform="translate(0 7.317)">
          <path id="Path_1806" data-name="Path 1806" d="M-681.242,2737.947h0l6.1-9.944Zm6.1-9.948v0l0,0Zm-6.1,9.948h0l6.1-9.944Zm0,0h0l6.1-9.944Zm0,0h0l6.1-9.944Z" transform="translate(681.242 -2727.999)"/>
        </g>
      </g>
    </g>
  </g>
</svg>
