<svg xmlns="http://www.w3.org/2000/svg" width="36.828" height="36.827" viewBox="0 0 36.828 36.827">
  <g id="Group_5102" data-name="Group 5102" transform="translate(-4.078 -4.079)">
    <path id="Path_1812" data-name="Path 1812" d="M22.492,7.4c4.917,0,5.5.019,7.441.107a10.192,10.192,0,0,1,3.419.634,6.1,6.1,0,0,1,3.495,3.495,10.191,10.191,0,0,1,.634,3.419c.089,1.942.107,2.524.107,7.441s-.019,5.5-.107,7.441a10.192,10.192,0,0,1-.634,3.419,6.1,6.1,0,0,1-3.495,3.495,10.192,10.192,0,0,1-3.419.634c-1.941.089-2.524.107-7.441.107s-5.5-.019-7.441-.107a10.191,10.191,0,0,1-3.419-.634,6.1,6.1,0,0,1-3.495-3.495A10.192,10.192,0,0,1,7.5,29.933c-.089-1.942-.107-2.524-.107-7.441s.019-5.5.107-7.441a10.191,10.191,0,0,1,.634-3.419,6.1,6.1,0,0,1,3.495-3.495A10.191,10.191,0,0,1,15.052,7.5c1.942-.089,2.524-.107,7.441-.107m0-3.318c-5,0-5.628.021-7.592.111a13.516,13.516,0,0,0-4.47.856,9.416,9.416,0,0,0-5.385,5.385A13.516,13.516,0,0,0,4.19,14.9c-.09,1.964-.111,2.591-.111,7.592s.021,5.628.111,7.592a13.516,13.516,0,0,0,.856,4.47,9.416,9.416,0,0,0,5.385,5.385,13.516,13.516,0,0,0,4.47.856c1.964.09,2.591.111,7.592.111s5.628-.021,7.592-.111a13.516,13.516,0,0,0,4.47-.856,9.416,9.416,0,0,0,5.385-5.385,13.516,13.516,0,0,0,.856-4.47c.09-1.964.111-2.591.111-7.592s-.021-5.628-.111-7.592a13.516,13.516,0,0,0-.856-4.47,9.416,9.416,0,0,0-5.385-5.385,13.516,13.516,0,0,0-4.47-.856c-1.964-.09-2.591-.111-7.592-.111Z"/>
    <path id="Path_1813" data-name="Path 1813" d="M136.091,126.635a9.456,9.456,0,1,0,9.456,9.456A9.456,9.456,0,0,0,136.091,126.635Zm0,15.593a6.138,6.138,0,1,1,6.138-6.138A6.138,6.138,0,0,1,136.091,142.228Z" transform="translate(-113.598 -113.598)"/>
    <circle id="Ellipse_32" data-name="Ellipse 32" cx="2.21" cy="2.21" r="2.21" transform="translate(30.112 10.454)"/>
  </g>
</svg>
