<svg xmlns="http://www.w3.org/2000/svg" width="291.007" height="208.118" viewBox="0 0 291.007 208.118">
  <path id="Path_1740" data-name="Path 1740" d="M537.06-3980.351q-.273-.324-.558-.607-.17-.171-.345-.327t-.352-.3l-.119-.094q-.119-.093-.241-.178l-.122-.085c-.081-.056-.163-.111-.244-.162-.205-.132-.414-.25-.626-.358a8.556,8.556,0,0,0-1.166-.495c-.089-.03-.177-.06-.266-.086-2.662-.817-5.655-.45-8.589-.427v18.541c1.872,0,3.647.115,5.379.062.215-.006.429-.016.641-.028.108-.006.216-.012.323-.021q.321-.024.639-.058a8.447,8.447,0,0,0,5.116-2.218,7.855,7.855,0,0,0,1.877-2.972C539.742-3973.783,539.6-3977.331,537.06-3980.351Zm0,0q-.273-.324-.558-.607-.17-.171-.345-.327t-.352-.3l-.119-.094q-.119-.093-.241-.178l-.122-.085c-.081-.056-.163-.111-.244-.162-.205-.132-.414-.25-.626-.358a8.556,8.556,0,0,0-1.166-.495c-.089-.03-.177-.06-.266-.086-2.662-.817-5.655-.45-8.589-.427v18.541c1.872,0,3.647.115,5.379.062.215-.006.429-.016.641-.028.108-.006.216-.012.323-.021q.321-.024.639-.058a8.447,8.447,0,0,0,5.116-2.218,7.855,7.855,0,0,0,1.877-2.972C539.742-3973.783,539.6-3977.331,537.06-3980.351Zm0,0q-.273-.324-.558-.607-.17-.171-.345-.327t-.352-.3l-.119-.094q-.119-.093-.241-.178l-.122-.085c-.081-.056-.163-.111-.244-.162-.205-.132-.414-.25-.626-.358a8.556,8.556,0,0,0-1.166-.495c-.089-.03-.177-.06-.266-.086-2.662-.817-5.655-.45-8.589-.427v18.541c1.872,0,3.647.115,5.379.062.215-.006.429-.016.641-.028.108-.006.216-.012.323-.021q.321-.024.639-.058a8.447,8.447,0,0,0,5.116-2.218,7.855,7.855,0,0,0,1.877-2.972C539.742-3973.783,539.6-3977.331,537.06-3980.351Zm0,0q-.273-.324-.558-.607-.17-.171-.345-.327t-.352-.3l-.119-.094q-.119-.093-.241-.178l-.122-.085c-.081-.056-.163-.111-.244-.162-.205-.132-.414-.25-.626-.358a8.556,8.556,0,0,0-1.166-.495c-.089-.03-.177-.06-.266-.086-2.662-.817-5.655-.45-8.589-.427v18.541c1.872,0,3.647.115,5.379.062.215-.006.429-.016.641-.028.108-.006.216-.012.323-.021q.321-.024.639-.058a8.447,8.447,0,0,0,5.116-2.218,7.855,7.855,0,0,0,1.877-2.972C539.742-3973.783,539.6-3977.331,537.06-3980.351Zm0,0q-.273-.324-.558-.607-.17-.171-.345-.327t-.352-.3l-.119-.094q-.119-.093-.241-.178l-.122-.085c-.081-.056-.163-.111-.244-.162-.205-.132-.414-.25-.626-.358a8.556,8.556,0,0,0-1.166-.495c-.089-.03-.177-.06-.266-.086-2.662-.817-5.655-.45-8.589-.427v18.541c1.872,0,3.647.115,5.379.062.215-.006.429-.016.641-.028.108-.006.216-.012.323-.021q.321-.024.639-.058a8.447,8.447,0,0,0,5.116-2.218,7.855,7.855,0,0,0,1.877-2.972C539.742-3973.783,539.6-3977.331,537.06-3980.351Zm0,0q-.273-.324-.558-.607-.17-.171-.345-.327t-.352-.3l-.119-.094q-.119-.093-.241-.178l-.122-.085c-.081-.056-.163-.111-.244-.162-.205-.132-.414-.25-.626-.358a8.556,8.556,0,0,0-1.166-.495c-.089-.03-.177-.06-.266-.086-2.662-.817-5.655-.45-8.589-.427v18.541c1.872,0,3.647.115,5.379.062.215-.006.429-.016.641-.028.108-.006.216-.012.323-.021q.321-.024.639-.058a8.447,8.447,0,0,0,5.116-2.218,7.855,7.855,0,0,0,1.877-2.972C539.742-3973.783,539.6-3977.331,537.06-3980.351Zm0,0q-.273-.324-.558-.607-.17-.171-.345-.327t-.352-.3l-.119-.094q-.119-.093-.241-.178l-.122-.085c-.081-.056-.163-.111-.244-.162-.205-.132-.414-.25-.626-.358a8.556,8.556,0,0,0-1.166-.495c-.089-.03-.177-.06-.266-.086-2.662-.817-5.655-.45-8.589-.427v18.541c1.872,0,3.647.115,5.379.062.215-.006.429-.016.641-.028.108-.006.216-.012.323-.021q.321-.024.639-.058a8.447,8.447,0,0,0,5.116-2.218,7.855,7.855,0,0,0,1.877-2.972C539.742-3973.783,539.6-3977.331,537.06-3980.351Zm139.159-2.158a9.318,9.318,0,0,0-1.058-.437c-.085-.03-.171-.058-.258-.084-.027-.01-.053-.017-.08-.026-.1-.031-.2-.06-.3-.087s-.2-.052-.3-.076c-.084-.02-.168-.039-.25-.056s-.183-.039-.276-.055l-.234-.042c-.215-.037-.429-.066-.645-.092-.185-.02-.371-.039-.557-.053-.109-.008-.217-.016-.327-.021-1.822-.106-3.675.074-5.521.075v18.586c2.242,0,4.412.134,6.559-.026q.408-.029.8-.09c.2-.031.391-.067.582-.107.126-.028.253-.058.377-.09s.248-.067.369-.1.243-.076.361-.118l.177-.064a8.77,8.77,0,0,0,.854-.37q.33-.166.641-.356c.155-.1.308-.2.457-.3a8.455,8.455,0,0,0,1.107-.933,9.342,9.342,0,0,0,2.521-5A9.3,9.3,0,0,0,676.219-3982.509Zm-139.159,2.158q-.273-.324-.558-.607-.17-.171-.345-.327t-.352-.3l-.119-.094q-.119-.093-.241-.178l-.122-.085c-.081-.056-.163-.111-.244-.162-.205-.132-.414-.25-.626-.358a8.556,8.556,0,0,0-1.166-.495c-.089-.03-.177-.06-.266-.086-2.662-.817-5.655-.45-8.589-.427v18.541c1.872,0,3.647.115,5.379.062.215-.006.429-.016.641-.028.108-.006.216-.012.323-.021q.321-.024.639-.058a8.447,8.447,0,0,0,5.116-2.218,7.855,7.855,0,0,0,1.877-2.972C539.742-3973.783,539.6-3977.331,537.06-3980.351Zm139.159-2.158a9.318,9.318,0,0,0-1.058-.437c-.085-.03-.171-.058-.258-.084-.027-.01-.053-.017-.08-.026-.1-.031-.2-.06-.3-.087s-.2-.052-.3-.076c-.084-.02-.168-.039-.25-.056s-.183-.039-.276-.055l-.234-.042c-.215-.037-.429-.066-.645-.092-.185-.02-.371-.039-.557-.053-.109-.008-.217-.016-.327-.021-1.822-.106-3.675.074-5.521.075v18.586c2.242,0,4.412.134,6.559-.026q.408-.029.8-.09c.2-.031.391-.067.582-.107.126-.028.253-.058.377-.09s.248-.067.369-.1.243-.076.361-.118l.177-.064a8.77,8.77,0,0,0,.854-.37q.33-.166.641-.356c.155-.1.308-.2.457-.3a8.455,8.455,0,0,0,1.107-.933,9.342,9.342,0,0,0,2.521-5A9.3,9.3,0,0,0,676.219-3982.509Zm-139.159,2.158q-.273-.324-.558-.607-.17-.171-.345-.327t-.352-.3l-.119-.094q-.119-.093-.241-.178l-.122-.085c-.081-.056-.163-.111-.244-.162-.205-.132-.414-.25-.626-.358a8.556,8.556,0,0,0-1.166-.495c-.089-.03-.177-.06-.266-.086-2.662-.817-5.655-.45-8.589-.427v18.541c1.872,0,3.647.115,5.379.062.215-.006.429-.016.641-.028.108-.006.216-.012.323-.021q.321-.024.639-.058a8.447,8.447,0,0,0,5.116-2.218,7.855,7.855,0,0,0,1.877-2.972C539.742-3973.783,539.6-3977.331,537.06-3980.351Zm139.159-2.158a9.318,9.318,0,0,0-1.058-.437c-.085-.03-.171-.058-.258-.084-.027-.01-.053-.017-.08-.026-.1-.031-.2-.06-.3-.087s-.2-.052-.3-.076c-.084-.02-.168-.039-.25-.056s-.183-.039-.276-.055l-.234-.042c-.215-.037-.429-.066-.645-.092-.185-.02-.371-.039-.557-.053-.109-.008-.217-.016-.327-.021-1.822-.106-3.675.074-5.521.075v18.586c2.242,0,4.412.134,6.559-.026q.408-.029.8-.09c.2-.031.391-.067.582-.107.126-.028.253-.058.377-.09s.248-.067.369-.1.243-.076.361-.118l.177-.064a8.77,8.77,0,0,0,.854-.37q.33-.166.641-.356c.155-.1.308-.2.457-.3a8.455,8.455,0,0,0,1.107-.933,9.342,9.342,0,0,0,2.521-5A9.3,9.3,0,0,0,676.219-3982.509Zm59.411.5a4.086,4.086,0,0,0-.836-.629,5.327,5.327,0,0,0-1.244-.51,10.812,10.812,0,0,0-1.154-.248,43.311,43.311,0,0,0-6.583-.111c-.137,0-.276,0-.413-.006l-.21-.006q-.415-.014-.831-.047v9.188c2.592-.242,5.089.159,7.53-.13.079-.009.158-.02.237-.031.317-.044.632-.1.947-.17.158-.037.315-.075.471-.119a4.808,4.808,0,0,0,1.511-.716,4.642,4.642,0,0,0,.412-.335c.043-.04.085-.08.126-.121a4.161,4.161,0,0,0,1.224-3.007A4.117,4.117,0,0,0,735.631-3982Zm-198.571,1.653q-.273-.324-.558-.607-.17-.171-.345-.327t-.352-.3l-.119-.094q-.119-.093-.241-.178l-.122-.085c-.081-.056-.163-.111-.244-.162-.205-.132-.414-.25-.626-.358a8.556,8.556,0,0,0-1.166-.495c-.089-.03-.177-.06-.266-.086-2.662-.817-5.655-.45-8.589-.427v18.541c1.872,0,3.647.115,5.379.062.215-.006.429-.016.641-.028.108-.006.216-.012.323-.021q.321-.024.639-.058a8.447,8.447,0,0,0,5.116-2.218,7.855,7.855,0,0,0,1.877-2.972C539.742-3973.783,539.6-3977.331,537.06-3980.351Zm139.159-2.158a9.318,9.318,0,0,0-1.058-.437c-.085-.03-.171-.058-.258-.084-.027-.01-.053-.017-.08-.026-.1-.031-.2-.06-.3-.087s-.2-.052-.3-.076c-.084-.02-.168-.039-.25-.056s-.183-.039-.276-.055l-.234-.042c-.215-.037-.429-.066-.645-.092-.185-.02-.371-.039-.557-.053-.109-.008-.217-.016-.327-.021-1.822-.106-3.675.074-5.521.075v18.586c2.242,0,4.412.134,6.559-.026q.408-.029.8-.09c.2-.031.391-.067.582-.107.126-.028.253-.058.377-.09s.248-.067.369-.1.243-.076.361-.118l.177-.064a8.77,8.77,0,0,0,.854-.37q.33-.166.641-.356c.155-.1.308-.2.457-.3a8.455,8.455,0,0,0,1.107-.933,9.342,9.342,0,0,0,2.521-5A9.3,9.3,0,0,0,676.219-3982.509Zm59.411.5a4.086,4.086,0,0,0-.836-.629,5.327,5.327,0,0,0-1.244-.51,10.812,10.812,0,0,0-1.154-.248,43.311,43.311,0,0,0-6.583-.111c-.137,0-.276,0-.413-.006l-.21-.006q-.415-.014-.831-.047v9.188c2.592-.242,5.089.159,7.53-.13.079-.009.158-.02.237-.031.317-.044.632-.1.947-.17.158-.037.315-.075.471-.119a4.808,4.808,0,0,0,1.511-.716,4.642,4.642,0,0,0,.412-.335c.043-.04.085-.08.126-.121a4.161,4.161,0,0,0,1.224-3.007A4.117,4.117,0,0,0,735.631-3982Zm-198.571,1.653q-.273-.324-.558-.607-.17-.171-.345-.327t-.352-.3l-.119-.094q-.119-.093-.241-.178l-.122-.085c-.081-.056-.163-.111-.244-.162-.205-.132-.414-.25-.626-.358a8.556,8.556,0,0,0-1.166-.495c-.089-.03-.177-.06-.266-.086-2.662-.817-5.655-.45-8.589-.427v18.541c1.872,0,3.647.115,5.379.062.215-.006.429-.016.641-.028.108-.006.216-.012.323-.021q.321-.024.639-.058a8.447,8.447,0,0,0,5.116-2.218,7.855,7.855,0,0,0,1.877-2.972C539.742-3973.783,539.6-3977.331,537.06-3980.351Zm139.159-2.158a9.318,9.318,0,0,0-1.058-.437c-.085-.03-.171-.058-.258-.084-.027-.01-.053-.017-.08-.026-.1-.031-.2-.06-.3-.087s-.2-.052-.3-.076c-.084-.02-.168-.039-.25-.056s-.183-.039-.276-.055l-.234-.042c-.215-.037-.429-.066-.645-.092-.185-.02-.371-.039-.557-.053-.109-.008-.217-.016-.327-.021-1.822-.106-3.675.074-5.521.075v18.586c2.242,0,4.412.134,6.559-.026q.408-.029.8-.09c.2-.031.391-.067.582-.107.126-.028.253-.058.377-.09s.248-.067.369-.1.243-.076.361-.118l.177-.064a8.77,8.77,0,0,0,.854-.37q.33-.166.641-.356c.155-.1.308-.2.457-.3a8.455,8.455,0,0,0,1.107-.933,9.342,9.342,0,0,0,2.521-5A9.3,9.3,0,0,0,676.219-3982.509Zm59.411.5a4.086,4.086,0,0,0-.836-.629,5.327,5.327,0,0,0-1.244-.51,10.812,10.812,0,0,0-1.154-.248,43.311,43.311,0,0,0-6.583-.111c-.137,0-.276,0-.413-.006l-.21-.006q-.415-.014-.831-.047v9.188c2.592-.242,5.089.159,7.53-.13.079-.009.158-.02.237-.031.317-.044.632-.1.947-.17.158-.037.315-.075.471-.119a4.808,4.808,0,0,0,1.511-.716,4.642,4.642,0,0,0,.412-.335c.043-.04.085-.08.126-.121a4.161,4.161,0,0,0,1.224-3.007A4.117,4.117,0,0,0,735.631-3982Zm-198.571,1.653q-.273-.324-.558-.607-.17-.171-.345-.327t-.352-.3l-.119-.094q-.119-.093-.241-.178l-.122-.085c-.081-.056-.163-.111-.244-.162-.205-.132-.414-.25-.626-.358a8.556,8.556,0,0,0-1.166-.495c-.089-.03-.177-.06-.266-.086-2.662-.817-5.655-.45-8.589-.427v18.541c1.872,0,3.647.115,5.379.062.215-.006.429-.016.641-.028.108-.006.216-.012.323-.021q.321-.024.639-.058a8.447,8.447,0,0,0,5.116-2.218,7.855,7.855,0,0,0,1.877-2.972C539.742-3973.783,539.6-3977.331,537.06-3980.351Zm139.159-2.158a9.318,9.318,0,0,0-1.058-.437c-.085-.03-.171-.058-.258-.084-.027-.01-.053-.017-.08-.026-.1-.031-.2-.06-.3-.087s-.2-.052-.3-.076c-.084-.02-.168-.039-.25-.056s-.183-.039-.276-.055l-.234-.042c-.215-.037-.429-.066-.645-.092-.185-.02-.371-.039-.557-.053-.109-.008-.217-.016-.327-.021-1.822-.106-3.675.074-5.521.075v18.586c2.242,0,4.412.134,6.559-.026q.408-.029.8-.09c.2-.031.391-.067.582-.107.126-.028.253-.058.377-.09s.248-.067.369-.1.243-.076.361-.118l.177-.064a8.77,8.77,0,0,0,.854-.37q.33-.166.641-.356c.155-.1.308-.2.457-.3a8.455,8.455,0,0,0,1.107-.933,9.342,9.342,0,0,0,2.521-5A9.3,9.3,0,0,0,676.219-3982.509Zm59.411.5a4.086,4.086,0,0,0-.836-.629,5.327,5.327,0,0,0-1.244-.51,10.812,10.812,0,0,0-1.154-.248,43.311,43.311,0,0,0-6.583-.111c-.137,0-.276,0-.413-.006l-.21-.006q-.415-.014-.831-.047v9.188c2.592-.242,5.089.159,7.53-.13.079-.009.158-.02.237-.031.317-.044.632-.1.947-.17.158-.037.315-.075.471-.119a4.808,4.808,0,0,0,1.511-.716,4.642,4.642,0,0,0,.412-.335c.043-.04.085-.08.126-.121a4.161,4.161,0,0,0,1.224-3.007A4.117,4.117,0,0,0,735.631-3982Zm-198.571,1.653q-.273-.324-.558-.607-.17-.171-.345-.327t-.352-.3l-.119-.094q-.119-.093-.241-.178l-.122-.085c-.081-.056-.163-.111-.244-.162-.205-.132-.414-.25-.626-.358a8.556,8.556,0,0,0-1.166-.495c-.089-.03-.177-.06-.266-.086-2.662-.817-5.655-.45-8.589-.427v18.541c1.872,0,3.647.115,5.379.062.215-.006.429-.016.641-.028.108-.006.216-.012.323-.021q.321-.024.639-.058a8.447,8.447,0,0,0,5.116-2.218,7.855,7.855,0,0,0,1.877-2.972C539.742-3973.783,539.6-3977.331,537.06-3980.351Zm16.286-43.757a14.583,14.583,0,0,0-4.17-9.482q-.436-.432-.912-.829-.572-.479-1.206-.912c-.281-.193-.572-.377-.871-.556q-.337-.2-.689-.39c-.157-.084-.316-.166-.476-.247s-.325-.159-.49-.237c-5.213-2.437-10.844-1.385-16.327-1.375a.229.229,0,0,0-.135.076c-.052.048-.114.109-.2.175v31.452c.074.02.145.042.213.064l.2.066a1.3,1.3,0,0,0,.38.072l.717,0c1.191.006,2.381.025,3.573.036,1.917.017,3.833.011,5.743-.105a19.584,19.584,0,0,0,2.223-.261c.209-.037.416-.076.622-.121l.309-.068q.463-.107.915-.241a14.567,14.567,0,0,0,5.311-2.812q.548-.46,1.034-.944C552.742-4014.365,553.77-4018.966,553.346-4024.108Zm122.873,41.6a9.318,9.318,0,0,0-1.058-.437c-.085-.03-.171-.058-.258-.084-.027-.01-.053-.017-.08-.026-.1-.031-.2-.06-.3-.087s-.2-.052-.3-.076c-.084-.02-.168-.039-.25-.056s-.183-.039-.276-.055l-.234-.042c-.215-.037-.429-.066-.645-.092-.185-.02-.371-.039-.557-.053-.109-.008-.217-.016-.327-.021-1.822-.106-3.675.074-5.521.075v18.586c2.242,0,4.412.134,6.559-.026q.408-.029.8-.09c.2-.031.391-.067.582-.107.126-.028.253-.058.377-.09s.248-.067.369-.1.243-.076.361-.118l.177-.064a8.77,8.77,0,0,0,.854-.37q.33-.166.641-.356c.155-.1.308-.2.457-.3a8.455,8.455,0,0,0,1.107-.933,9.342,9.342,0,0,0,2.521-5A9.3,9.3,0,0,0,676.219-3982.509Zm59.411.5a4.086,4.086,0,0,0-.836-.629,5.327,5.327,0,0,0-1.244-.51,10.812,10.812,0,0,0-1.154-.248,43.311,43.311,0,0,0-6.583-.111c-.137,0-.276,0-.413-.006l-.21-.006q-.415-.014-.831-.047v9.188c2.592-.242,5.089.159,7.53-.13.079-.009.158-.02.237-.031.317-.044.632-.1.947-.17.158-.037.315-.075.471-.119a4.808,4.808,0,0,0,1.511-.716,4.642,4.642,0,0,0,.412-.335c.043-.04.085-.08.126-.121a4.161,4.161,0,0,0,1.224-3.007A4.117,4.117,0,0,0,735.631-3982Zm-198.571,1.653q-.273-.324-.558-.607-.17-.171-.345-.327t-.352-.3l-.119-.094q-.119-.093-.241-.178l-.122-.085c-.081-.056-.163-.111-.244-.162-.205-.132-.414-.25-.626-.358a8.556,8.556,0,0,0-1.166-.495c-.089-.03-.177-.06-.266-.086-2.662-.817-5.655-.45-8.589-.427v18.541c1.872,0,3.647.115,5.379.062.215-.006.429-.016.641-.028.108-.006.216-.012.323-.021q.321-.024.639-.058a8.447,8.447,0,0,0,5.116-2.218,7.855,7.855,0,0,0,1.877-2.972C539.742-3973.783,539.6-3977.331,537.06-3980.351Zm16.286-43.757a14.583,14.583,0,0,0-4.17-9.482q-.436-.432-.912-.829-.572-.479-1.206-.912c-.281-.193-.572-.377-.871-.556q-.337-.2-.689-.39c-.157-.084-.316-.166-.476-.247s-.325-.159-.49-.237c-5.213-2.437-10.844-1.385-16.327-1.375a.229.229,0,0,0-.135.076c-.052.048-.114.109-.2.175v31.452c.074.02.145.042.213.064l.2.066a1.3,1.3,0,0,0,.38.072l.717,0c1.191.006,2.381.025,3.573.036,1.917.017,3.833.011,5.743-.105a19.584,19.584,0,0,0,2.223-.261c.209-.037.416-.076.622-.121l.309-.068q.463-.107.915-.241a14.567,14.567,0,0,0,5.311-2.812q.548-.46,1.034-.944C552.742-4014.365,553.77-4018.966,553.346-4024.108Zm122.873,41.6a9.318,9.318,0,0,0-1.058-.437c-.085-.03-.171-.058-.258-.084-.027-.01-.053-.017-.08-.026-.1-.031-.2-.06-.3-.087s-.2-.052-.3-.076c-.084-.02-.168-.039-.25-.056s-.183-.039-.276-.055l-.234-.042c-.215-.037-.429-.066-.645-.092-.185-.02-.371-.039-.557-.053-.109-.008-.217-.016-.327-.021-1.822-.106-3.675.074-5.521.075v18.586c2.242,0,4.412.134,6.559-.026q.408-.029.8-.09c.2-.031.391-.067.582-.107.126-.028.253-.058.377-.09s.248-.067.369-.1.243-.076.361-.118l.177-.064a8.77,8.77,0,0,0,.854-.37q.33-.166.641-.356c.155-.1.308-.2.457-.3a8.455,8.455,0,0,0,1.107-.933,9.342,9.342,0,0,0,2.521-5A9.3,9.3,0,0,0,676.219-3982.509Zm59.411.5a4.086,4.086,0,0,0-.836-.629,5.327,5.327,0,0,0-1.244-.51,10.812,10.812,0,0,0-1.154-.248,43.311,43.311,0,0,0-6.583-.111c-.137,0-.276,0-.413-.006l-.21-.006q-.415-.014-.831-.047v9.188c2.592-.242,5.089.159,7.53-.13.079-.009.158-.02.237-.031.317-.044.632-.1.947-.17.158-.037.315-.075.471-.119a4.808,4.808,0,0,0,1.511-.716,4.642,4.642,0,0,0,.412-.335c.043-.04.085-.08.126-.121a4.161,4.161,0,0,0,1.224-3.007A4.117,4.117,0,0,0,735.631-3982Zm-198.571,1.653q-.273-.324-.558-.607-.17-.171-.345-.327t-.352-.3l-.119-.094q-.119-.093-.241-.178l-.122-.085c-.081-.056-.163-.111-.244-.162-.205-.132-.414-.25-.626-.358a8.556,8.556,0,0,0-1.166-.495c-.089-.03-.177-.06-.266-.086-2.662-.817-5.655-.45-8.589-.427v18.541c1.872,0,3.647.115,5.379.062.215-.006.429-.016.641-.028.108-.006.216-.012.323-.021q.321-.024.639-.058a8.447,8.447,0,0,0,5.116-2.218,7.855,7.855,0,0,0,1.877-2.972C539.742-3973.783,539.6-3977.331,537.06-3980.351Zm16.286-43.757a14.583,14.583,0,0,0-4.17-9.482q-.436-.432-.912-.829-.572-.479-1.206-.912c-.281-.193-.572-.377-.871-.556q-.337-.2-.689-.39c-.157-.084-.316-.166-.476-.247s-.325-.159-.49-.237c-5.213-2.437-10.844-1.385-16.327-1.375a.229.229,0,0,0-.135.076c-.052.048-.114.109-.2.175v31.452c.074.02.145.042.213.064l.2.066a1.3,1.3,0,0,0,.38.072l.717,0c1.191.006,2.381.025,3.573.036,1.917.017,3.833.011,5.743-.105a19.584,19.584,0,0,0,2.223-.261c.209-.037.416-.076.622-.121l.309-.068q.463-.107.915-.241a14.567,14.567,0,0,0,5.311-2.812q.548-.46,1.034-.944C552.742-4014.365,553.77-4018.966,553.346-4024.108Zm48.688-9.655a6.775,6.775,0,0,0-1.442-2.214c-.029-.032-.061-.064-.092-.093a6.693,6.693,0,0,0-2.169-1.4c-.08-.033-.161-.064-.244-.095-.164-.061-.332-.116-.5-.167s-.343-.1-.516-.137c-.087-.021-.175-.04-.264-.058-.177-.035-.356-.067-.537-.095q-.543-.082-1.107-.11c-3.975-.21-7.967-.118-11.95-.118-.047,0-.095,0-.142,0-.087,0-.175-.011-.264-.019-.134-.013-.267-.028-.4-.038h-.02a2.407,2.407,0,0,0-.761.042s0,0,0,0a1.658,1.658,0,0,0-.492.205v15.4c3.7,0,7.291,0,10.864,0l1.531,0a9.53,9.53,0,0,0,1.05-.059c.035,0,.071-.006.1-.011l.13-.016c.258-.033.514-.073.77-.121l.222-.041c.444-.085.888-.186,1.334-.286C601.865-4024.246,603.894-4029.222,602.034-4033.763Zm74.185,51.254a9.318,9.318,0,0,0-1.058-.437c-.085-.03-.171-.058-.258-.084-.027-.01-.053-.017-.08-.026-.1-.031-.2-.06-.3-.087s-.2-.052-.3-.076c-.084-.02-.168-.039-.25-.056s-.183-.039-.276-.055l-.234-.042c-.215-.037-.429-.066-.645-.092-.185-.02-.371-.039-.557-.053-.109-.008-.217-.016-.327-.021-1.822-.106-3.675.074-5.521.075v18.586c2.242,0,4.412.134,6.559-.026q.408-.029.8-.09c.2-.031.391-.067.582-.107.126-.028.253-.058.377-.09s.248-.067.369-.1.243-.076.361-.118l.177-.064a8.77,8.77,0,0,0,.854-.37q.33-.166.641-.356c.155-.1.308-.2.457-.3a8.455,8.455,0,0,0,1.107-.933,9.342,9.342,0,0,0,2.521-5A9.3,9.3,0,0,0,676.219-3982.509Zm59.411.5a4.086,4.086,0,0,0-.836-.629,5.327,5.327,0,0,0-1.244-.51,10.812,10.812,0,0,0-1.154-.248,43.311,43.311,0,0,0-6.583-.111c-.137,0-.276,0-.413-.006l-.21-.006q-.415-.014-.831-.047v9.188c2.592-.242,5.089.159,7.53-.13.079-.009.158-.02.237-.031.317-.044.632-.1.947-.17.158-.037.315-.075.471-.119a4.808,4.808,0,0,0,1.511-.716,4.642,4.642,0,0,0,.412-.335c.043-.04.085-.08.126-.121a4.161,4.161,0,0,0,1.224-3.007A4.117,4.117,0,0,0,735.631-3982Zm-198.571,1.653q-.273-.324-.558-.607-.17-.171-.345-.327t-.352-.3l-.119-.094q-.119-.093-.241-.178l-.122-.085c-.081-.056-.163-.111-.244-.162-.205-.132-.414-.25-.626-.358a8.556,8.556,0,0,0-1.166-.495c-.089-.03-.177-.06-.266-.086-2.662-.817-5.655-.45-8.589-.427v18.541c1.872,0,3.647.115,5.379.062.215-.006.429-.016.641-.028.108-.006.216-.012.323-.021q.321-.024.639-.058a8.447,8.447,0,0,0,5.116-2.218,7.855,7.855,0,0,0,1.877-2.972C539.742-3973.783,539.6-3977.331,537.06-3980.351Zm16.286-43.757a14.583,14.583,0,0,0-4.17-9.482q-.436-.432-.912-.829-.572-.479-1.206-.912c-.281-.193-.572-.377-.871-.556q-.337-.2-.689-.39c-.157-.084-.316-.166-.476-.247s-.325-.159-.49-.237c-5.213-2.437-10.844-1.385-16.327-1.375a.229.229,0,0,0-.135.076c-.052.048-.114.109-.2.175v31.452c.074.02.145.042.213.064l.2.066a1.3,1.3,0,0,0,.38.072l.717,0c1.191.006,2.381.025,3.573.036,1.917.017,3.833.011,5.743-.105a19.584,19.584,0,0,0,2.223-.261c.209-.037.416-.076.622-.121l.309-.068q.463-.107.915-.241a14.567,14.567,0,0,0,5.311-2.812q.548-.46,1.034-.944C552.742-4014.365,553.77-4018.966,553.346-4024.108Zm48.688-9.655a6.775,6.775,0,0,0-1.442-2.214c-.029-.032-.061-.064-.092-.093a6.693,6.693,0,0,0-2.169-1.4c-.08-.033-.161-.064-.244-.095-.164-.061-.332-.116-.5-.167s-.343-.1-.516-.137c-.087-.021-.175-.04-.264-.058-.177-.035-.356-.067-.537-.095q-.543-.082-1.107-.11c-3.975-.21-7.967-.118-11.95-.118-.047,0-.095,0-.142,0-.087,0-.175-.011-.264-.019-.134-.013-.267-.028-.4-.038h-.02a2.407,2.407,0,0,0-.761.042s0,0,0,0a1.658,1.658,0,0,0-.492.205v15.4c3.7,0,7.291,0,10.864,0l1.531,0a9.53,9.53,0,0,0,1.05-.059c.035,0,.071-.006.1-.011l.13-.016c.258-.033.514-.073.77-.121l.222-.041c.444-.085.888-.186,1.334-.286C601.865-4024.246,603.894-4029.222,602.034-4033.763Zm74.185,51.254a9.318,9.318,0,0,0-1.058-.437c-.085-.03-.171-.058-.258-.084-.027-.01-.053-.017-.08-.026-.1-.031-.2-.06-.3-.087s-.2-.052-.3-.076c-.084-.02-.168-.039-.25-.056s-.183-.039-.276-.055l-.234-.042c-.215-.037-.429-.066-.645-.092-.185-.02-.371-.039-.557-.053-.109-.008-.217-.016-.327-.021-1.822-.106-3.675.074-5.521.075v18.586c2.242,0,4.412.134,6.559-.026q.408-.029.8-.09c.2-.031.391-.067.582-.107.126-.028.253-.058.377-.09s.248-.067.369-.1.243-.076.361-.118l.177-.064a8.77,8.77,0,0,0,.854-.37q.33-.166.641-.356c.155-.1.308-.2.457-.3a8.455,8.455,0,0,0,1.107-.933,9.342,9.342,0,0,0,2.521-5A9.3,9.3,0,0,0,676.219-3982.509Zm59.411.5a4.086,4.086,0,0,0-.836-.629,5.327,5.327,0,0,0-1.244-.51,10.812,10.812,0,0,0-1.154-.248,43.311,43.311,0,0,0-6.583-.111c-.137,0-.276,0-.413-.006l-.21-.006q-.415-.014-.831-.047v9.188c2.592-.242,5.089.159,7.53-.13.079-.009.158-.02.237-.031.317-.044.632-.1.947-.17.158-.037.315-.075.471-.119a4.808,4.808,0,0,0,1.511-.716,4.642,4.642,0,0,0,.412-.335c.043-.04.085-.08.126-.121a4.161,4.161,0,0,0,1.224-3.007A4.117,4.117,0,0,0,735.631-3982Zm-198.571,1.653q-.273-.324-.558-.607-.17-.171-.345-.327t-.352-.3l-.119-.094q-.119-.093-.241-.178l-.122-.085c-.081-.056-.163-.111-.244-.162-.205-.132-.414-.25-.626-.358a8.556,8.556,0,0,0-1.166-.495c-.089-.03-.177-.06-.266-.086-2.662-.817-5.655-.45-8.589-.427v18.541c1.872,0,3.647.115,5.379.062.215-.006.429-.016.641-.028.108-.006.216-.012.323-.021q.321-.024.639-.058a8.447,8.447,0,0,0,5.116-2.218,7.855,7.855,0,0,0,1.877-2.972C539.742-3973.783,539.6-3977.331,537.06-3980.351Zm16.286-43.757a14.583,14.583,0,0,0-4.17-9.482q-.436-.432-.912-.829-.572-.479-1.206-.912c-.281-.193-.572-.377-.871-.556q-.337-.2-.689-.39c-.157-.084-.316-.166-.476-.247s-.325-.159-.49-.237c-5.213-2.437-10.844-1.385-16.327-1.375a.229.229,0,0,0-.135.076c-.052.048-.114.109-.2.175v31.452c.074.02.145.042.213.064l.2.066a1.3,1.3,0,0,0,.38.072l.717,0c1.191.006,2.381.025,3.573.036,1.917.017,3.833.011,5.743-.105a19.584,19.584,0,0,0,2.223-.261c.209-.037.416-.076.622-.121l.309-.068q.463-.107.915-.241a14.567,14.567,0,0,0,5.311-2.812q.548-.46,1.034-.944C552.742-4014.365,553.77-4018.966,553.346-4024.108Zm48.688-9.655a6.775,6.775,0,0,0-1.442-2.214c-.029-.032-.061-.064-.092-.093a6.693,6.693,0,0,0-2.169-1.4c-.08-.033-.161-.064-.244-.095-.164-.061-.332-.116-.5-.167s-.343-.1-.516-.137c-.087-.021-.175-.04-.264-.058-.177-.035-.356-.067-.537-.095q-.543-.082-1.107-.11c-3.975-.21-7.967-.118-11.95-.118-.047,0-.095,0-.142,0-.087,0-.175-.011-.264-.019-.134-.013-.267-.028-.4-.038h-.02a2.407,2.407,0,0,0-.761.042s0,0,0,0a1.658,1.658,0,0,0-.492.205v15.4c3.7,0,7.291,0,10.864,0l1.531,0a9.53,9.53,0,0,0,1.05-.059c.035,0,.071-.006.1-.011l.13-.016c.258-.033.514-.073.77-.121l.222-.041c.444-.085.888-.186,1.334-.286C601.865-4024.246,603.894-4029.222,602.034-4033.763Zm74.185,51.254a9.318,9.318,0,0,0-1.058-.437c-.085-.03-.171-.058-.258-.084-.027-.01-.053-.017-.08-.026-.1-.031-.2-.06-.3-.087s-.2-.052-.3-.076c-.084-.02-.168-.039-.25-.056s-.183-.039-.276-.055l-.234-.042c-.215-.037-.429-.066-.645-.092-.185-.02-.371-.039-.557-.053-.109-.008-.217-.016-.327-.021-1.822-.106-3.675.074-5.521.075v18.586c2.242,0,4.412.134,6.559-.026q.408-.029.8-.09c.2-.031.391-.067.582-.107.126-.028.253-.058.377-.09s.248-.067.369-.1.243-.076.361-.118l.177-.064a8.77,8.77,0,0,0,.854-.37q.33-.166.641-.356c.155-.1.308-.2.457-.3a8.455,8.455,0,0,0,1.107-.933,9.342,9.342,0,0,0,2.521-5A9.3,9.3,0,0,0,676.219-3982.509Zm11.555-53.288c-2.709,6.211-5.283,12.119-7.934,18.2h15.9C693.08-4023.668,690.5-4029.564,687.775-4035.8ZM735.631-3982a4.086,4.086,0,0,0-.836-.629,5.327,5.327,0,0,0-1.244-.51,10.812,10.812,0,0,0-1.154-.248,43.311,43.311,0,0,0-6.583-.111c-.137,0-.276,0-.413-.006l-.21-.006q-.415-.014-.831-.047v9.188c2.592-.242,5.089.159,7.53-.13.079-.009.158-.02.237-.031.317-.044.632-.1.947-.17.158-.037.315-.075.471-.119a4.808,4.808,0,0,0,1.511-.716,4.642,4.642,0,0,0,.412-.335c.043-.04.085-.08.126-.121a4.161,4.161,0,0,0,1.224-3.007A4.117,4.117,0,0,0,735.631-3982Zm-198.571,1.653q-.273-.324-.558-.607-.17-.171-.345-.327t-.352-.3l-.119-.094q-.119-.093-.241-.178l-.122-.085c-.081-.056-.163-.111-.244-.162-.205-.132-.414-.25-.626-.358a8.556,8.556,0,0,0-1.166-.495c-.089-.03-.177-.06-.266-.086-2.662-.817-5.655-.45-8.589-.427v18.541c1.872,0,3.647.115,5.379.062.215-.006.429-.016.641-.028.108-.006.216-.012.323-.021q.321-.024.639-.058a8.447,8.447,0,0,0,5.116-2.218,7.855,7.855,0,0,0,1.877-2.972C539.742-3973.783,539.6-3977.331,537.06-3980.351Zm16.286-43.757a14.583,14.583,0,0,0-4.17-9.482q-.436-.432-.912-.829-.572-.479-1.206-.912c-.281-.193-.572-.377-.871-.556q-.337-.2-.689-.39c-.157-.084-.316-.166-.476-.247s-.325-.159-.49-.237c-5.213-2.437-10.844-1.385-16.327-1.375a.229.229,0,0,0-.135.076c-.052.048-.114.109-.2.175v31.452c.074.02.145.042.213.064l.2.066a1.3,1.3,0,0,0,.38.072l.717,0c1.191.006,2.381.025,3.573.036,1.917.017,3.833.011,5.743-.105a19.584,19.584,0,0,0,2.223-.261c.209-.037.416-.076.622-.121l.309-.068q.463-.107.915-.241a14.567,14.567,0,0,0,5.311-2.812q.548-.46,1.034-.944C552.742-4014.365,553.77-4018.966,553.346-4024.108Zm48.688-9.655a6.775,6.775,0,0,0-1.442-2.214c-.029-.032-.061-.064-.092-.093a6.693,6.693,0,0,0-2.169-1.4c-.08-.033-.161-.064-.244-.095-.164-.061-.332-.116-.5-.167s-.343-.1-.516-.137c-.087-.021-.175-.04-.264-.058-.177-.035-.356-.067-.537-.095q-.543-.082-1.107-.11c-3.975-.21-7.967-.118-11.95-.118-.047,0-.095,0-.142,0-.087,0-.175-.011-.264-.019-.134-.013-.267-.028-.4-.038h-.02a2.407,2.407,0,0,0-.761.042s0,0,0,0a1.658,1.658,0,0,0-.492.205v15.4c3.7,0,7.291,0,10.864,0l1.531,0a9.53,9.53,0,0,0,1.05-.059c.035,0,.071-.006.1-.011l.13-.016c.258-.033.514-.073.77-.121l.222-.041c.444-.085.888-.186,1.334-.286C601.865-4024.246,603.894-4029.222,602.034-4033.763Zm74.185,51.254a9.318,9.318,0,0,0-1.058-.437c-.085-.03-.171-.058-.258-.084-.027-.01-.053-.017-.08-.026-.1-.031-.2-.06-.3-.087s-.2-.052-.3-.076c-.084-.02-.168-.039-.25-.056s-.183-.039-.276-.055l-.234-.042c-.215-.037-.429-.066-.645-.092-.185-.02-.371-.039-.557-.053-.109-.008-.217-.016-.327-.021-1.822-.106-3.675.074-5.521.075v18.586c2.242,0,4.412.134,6.559-.026q.408-.029.8-.09c.2-.031.391-.067.582-.107.126-.028.253-.058.377-.09s.248-.067.369-.1.243-.076.361-.118l.177-.064a8.77,8.77,0,0,0,.854-.37q.33-.166.641-.356c.155-.1.308-.2.457-.3a8.455,8.455,0,0,0,1.107-.933,9.342,9.342,0,0,0,2.521-5A9.3,9.3,0,0,0,676.219-3982.509Zm11.555-53.288c-2.709,6.211-5.283,12.119-7.934,18.2h15.9C693.08-4023.668,690.5-4029.564,687.775-4035.8ZM735.631-3982a4.086,4.086,0,0,0-.836-.629,5.327,5.327,0,0,0-1.244-.51,10.812,10.812,0,0,0-1.154-.248,43.311,43.311,0,0,0-6.583-.111c-.137,0-.276,0-.413-.006l-.21-.006q-.415-.014-.831-.047v9.188c2.592-.242,5.089.159,7.53-.13.079-.009.158-.02.237-.031.317-.044.632-.1.947-.17.158-.037.315-.075.471-.119a4.808,4.808,0,0,0,1.511-.716,4.642,4.642,0,0,0,.412-.335c.043-.04.085-.08.126-.121a4.161,4.161,0,0,0,1.224-3.007A4.117,4.117,0,0,0,735.631-3982Zm-198.571,1.653q-.273-.324-.558-.607-.17-.171-.345-.327t-.352-.3l-.119-.094q-.119-.093-.241-.178l-.122-.085c-.081-.056-.163-.111-.244-.162-.205-.132-.414-.25-.626-.358a8.556,8.556,0,0,0-1.166-.495c-.089-.03-.177-.06-.266-.086-2.662-.817-5.655-.45-8.589-.427v18.541c1.872,0,3.647.115,5.379.062.215-.006.429-.016.641-.028.108-.006.216-.012.323-.021q.321-.024.639-.058a8.447,8.447,0,0,0,5.116-2.218,7.855,7.855,0,0,0,1.877-2.972C539.742-3973.783,539.6-3977.331,537.06-3980.351Zm16.286-43.757a14.583,14.583,0,0,0-4.17-9.482q-.436-.432-.912-.829-.572-.479-1.206-.912c-.281-.193-.572-.377-.871-.556q-.337-.2-.689-.39c-.157-.084-.316-.166-.476-.247s-.325-.159-.49-.237c-5.213-2.437-10.844-1.385-16.327-1.375a.229.229,0,0,0-.135.076c-.052.048-.114.109-.2.175v31.452c.074.02.145.042.213.064l.2.066a1.3,1.3,0,0,0,.38.072l.717,0c1.191.006,2.381.025,3.573.036,1.917.017,3.833.011,5.743-.105a19.584,19.584,0,0,0,2.223-.261c.209-.037.416-.076.622-.121l.309-.068q.463-.107.915-.241a14.567,14.567,0,0,0,5.311-2.812q.548-.46,1.034-.944C552.742-4014.365,553.77-4018.966,553.346-4024.108Zm48.688-9.655a6.775,6.775,0,0,0-1.442-2.214c-.029-.032-.061-.064-.092-.093a6.693,6.693,0,0,0-2.169-1.4c-.08-.033-.161-.064-.244-.095-.164-.061-.332-.116-.5-.167s-.343-.1-.516-.137c-.087-.021-.175-.04-.264-.058-.177-.035-.356-.067-.537-.095q-.543-.082-1.107-.11c-3.975-.21-7.967-.118-11.95-.118-.047,0-.095,0-.142,0-.087,0-.175-.011-.264-.019-.134-.013-.267-.028-.4-.038h-.02a2.407,2.407,0,0,0-.761.042s0,0,0,0a1.658,1.658,0,0,0-.492.205v15.4c3.7,0,7.291,0,10.864,0l1.531,0a9.53,9.53,0,0,0,1.05-.059c.035,0,.071-.006.1-.011l.13-.016c.258-.033.514-.073.77-.121l.222-.041c.444-.085.888-.186,1.334-.286C601.865-4024.246,603.894-4029.222,602.034-4033.763Zm74.185,51.254a9.318,9.318,0,0,0-1.058-.437c-.085-.03-.171-.058-.258-.084-.027-.01-.053-.017-.08-.026-.1-.031-.2-.06-.3-.087s-.2-.052-.3-.076c-.084-.02-.168-.039-.25-.056s-.183-.039-.276-.055l-.234-.042c-.215-.037-.429-.066-.645-.092-.185-.02-.371-.039-.557-.053-.109-.008-.217-.016-.327-.021-1.822-.106-3.675.074-5.521.075v18.586c2.242,0,4.412.134,6.559-.026q.408-.029.8-.09c.2-.031.391-.067.582-.107.126-.028.253-.058.377-.09s.248-.067.369-.1.243-.076.361-.118l.177-.064a8.77,8.77,0,0,0,.854-.37q.33-.166.641-.356c.155-.1.308-.2.457-.3a8.455,8.455,0,0,0,1.107-.933,9.342,9.342,0,0,0,2.521-5A9.3,9.3,0,0,0,676.219-3982.509Zm11.555-53.288c-2.709,6.211-5.283,12.119-7.934,18.2h15.9C693.08-4023.668,690.5-4029.564,687.775-4035.8ZM735.631-3982a4.086,4.086,0,0,0-.836-.629,5.327,5.327,0,0,0-1.244-.51,10.812,10.812,0,0,0-1.154-.248,43.311,43.311,0,0,0-6.583-.111c-.137,0-.276,0-.413-.006l-.21-.006q-.415-.014-.831-.047v9.188c2.592-.242,5.089.159,7.53-.13.079-.009.158-.02.237-.031.317-.044.632-.1.947-.17.158-.037.315-.075.471-.119a4.808,4.808,0,0,0,1.511-.716,4.642,4.642,0,0,0,.412-.335c.043-.04.085-.08.126-.121a4.161,4.161,0,0,0,1.224-3.007A4.117,4.117,0,0,0,735.631-3982Zm-198.571,1.653q-.273-.324-.558-.607-.17-.171-.345-.327t-.352-.3l-.119-.094q-.119-.093-.241-.178l-.122-.085c-.081-.056-.163-.111-.244-.162-.205-.132-.414-.25-.626-.358a8.556,8.556,0,0,0-1.166-.495c-.089-.03-.177-.06-.266-.086-2.662-.817-5.655-.45-8.589-.427v18.541c1.872,0,3.647.115,5.379.062.215-.006.429-.016.641-.028.108-.006.216-.012.323-.021q.321-.024.639-.058a8.447,8.447,0,0,0,5.116-2.218,7.855,7.855,0,0,0,1.877-2.972C539.742-3973.783,539.6-3977.331,537.06-3980.351Zm16.286-43.757a14.583,14.583,0,0,0-4.17-9.482q-.436-.432-.912-.829-.572-.479-1.206-.912c-.281-.193-.572-.377-.871-.556q-.337-.2-.689-.39c-.157-.084-.316-.166-.476-.247s-.325-.159-.49-.237c-5.213-2.437-10.844-1.385-16.327-1.375a.229.229,0,0,0-.135.076c-.052.048-.114.109-.2.175v31.452c.074.02.145.042.213.064l.2.066a1.3,1.3,0,0,0,.38.072l.717,0c1.191.006,2.381.025,3.573.036,1.917.017,3.833.011,5.743-.105a19.584,19.584,0,0,0,2.223-.261c.209-.037.416-.076.622-.121l.309-.068q.463-.107.915-.241a14.567,14.567,0,0,0,5.311-2.812q.548-.46,1.034-.944C552.742-4014.365,553.77-4018.966,553.346-4024.108Zm48.688-9.655a6.775,6.775,0,0,0-1.442-2.214c-.029-.032-.061-.064-.092-.093a6.693,6.693,0,0,0-2.169-1.4c-.08-.033-.161-.064-.244-.095-.164-.061-.332-.116-.5-.167s-.343-.1-.516-.137c-.087-.021-.175-.04-.264-.058-.177-.035-.356-.067-.537-.095q-.543-.082-1.107-.11c-3.975-.21-7.967-.118-11.95-.118-.047,0-.095,0-.142,0-.087,0-.175-.011-.264-.019-.134-.013-.267-.028-.4-.038h-.02a2.407,2.407,0,0,0-.761.042s0,0,0,0a1.658,1.658,0,0,0-.492.205v15.4c3.7,0,7.291,0,10.864,0l1.531,0a9.53,9.53,0,0,0,1.05-.059c.035,0,.071-.006.1-.011l.13-.016c.258-.033.514-.073.77-.121l.222-.041c.444-.085.888-.186,1.334-.286C601.865-4024.246,603.894-4029.222,602.034-4033.763Zm74.185,51.254a9.318,9.318,0,0,0-1.058-.437c-.085-.03-.171-.058-.258-.084-.027-.01-.053-.017-.08-.026-.1-.031-.2-.06-.3-.087s-.2-.052-.3-.076c-.084-.02-.168-.039-.25-.056s-.183-.039-.276-.055l-.234-.042c-.215-.037-.429-.066-.645-.092-.185-.02-.371-.039-.557-.053-.109-.008-.217-.016-.327-.021-1.822-.106-3.675.074-5.521.075v18.586c2.242,0,4.412.134,6.559-.026q.408-.029.8-.09c.2-.031.391-.067.582-.107.126-.028.253-.058.377-.09s.248-.067.369-.1.243-.076.361-.118l.177-.064a8.77,8.77,0,0,0,.854-.37q.33-.166.641-.356c.155-.1.308-.2.457-.3a8.455,8.455,0,0,0,1.107-.933,9.342,9.342,0,0,0,2.521-5A9.3,9.3,0,0,0,676.219-3982.509Zm11.555-53.288c-2.709,6.211-5.283,12.119-7.934,18.2h15.9C693.08-4023.668,690.5-4029.564,687.775-4035.8ZM735.631-3982a4.086,4.086,0,0,0-.836-.629,5.327,5.327,0,0,0-1.244-.51,10.812,10.812,0,0,0-1.154-.248,43.311,43.311,0,0,0-6.583-.111c-.137,0-.276,0-.413-.006l-.21-.006q-.415-.014-.831-.047v9.188c2.592-.242,5.089.159,7.53-.13.079-.009.158-.02.237-.031.317-.044.632-.1.947-.17.158-.037.315-.075.471-.119a4.808,4.808,0,0,0,1.511-.716,4.642,4.642,0,0,0,.412-.335c.043-.04.085-.08.126-.121a4.161,4.161,0,0,0,1.224-3.007A4.117,4.117,0,0,0,735.631-3982Zm53.33-80.106a4.9,4.9,0,0,0-3.751-4.728,13.742,13.742,0,0,0-4.067-.6q-68.9.009-137.8.006H508.575a42.017,42.017,0,0,0-4.3.032c-2.366.239-4.623.794-5.778,3.26a8.55,8.55,0,0,0-.495,3.749q-.009,56.777,0,113.554a10.517,10.517,0,0,0,1.209,4.865c1.87,3.644,4.862,5.9,8.458,7.791,9.519,5.031,18.882,10.359,28.307,15.564,8.9,4.92,17.789,9.868,26.712,14.752,8.8,4.81,17.489,9.813,26.332,14.543,9.07,4.856,18.009,9.957,27,14.956,7.972,4.432,15.884,8.97,23.926,13.268a13.846,13.846,0,0,0,13.683-.141c1.343-.72,2.619-1.572,3.937-2.345q10.8-6.327,21.6-12.643c8.148-4.781,16.267-9.609,24.434-14.355,8.393-4.878,16.714-9.886,25.135-14.723,11.677-6.706,23.206-13.67,34.812-20.5,6.188-3.64,12.509-7.065,18.576-10.893a13.491,13.491,0,0,0,6.755-12.024c-.045-7.175.034-14.353.044-21.531q.044-45.053.076-90.108C789-4060.939,789.009-4061.526,788.961-4062.111Zm-68.136,16.174h9.125c4.693,7.306,9.429,14.679,14.33,22.306,4.74-7.691,9.51-14.99,14.343-22.343h9v47.588h-8.34v-32.974c-.163-.076-.326-.153-.488-.232-4.827,7.2-9.65,14.4-14.69,21.917-4.974-7.45-9.776-14.63-14.838-22.211v33.526h-8.442ZM719-3987.916a2.686,2.686,0,0,1,.789-.264c4.619.083,9.251-.261,13.865.168,4.358.408,7.66,3.165,8.231,6.747.785,4.938-1.1,8.342-5.7,10.288a6.5,6.5,0,0,0-.651.4l7.373,10.289h-5.96c-2.472-2.855-4.387-6.294-6.757-9.418h-5.978v9.4a34.666,34.666,0,0,1-5.213.112Zm-7.637,11.227a19.027,19.027,0,0,1,.112,4.555H697.687v7.359H713.28c.42,1.589.128,2.99.258,4.5H692.407v-27.742h20.806v4.326H697.636v7Zm-129,.557H596.05a19.22,19.22,0,0,1,.12,4.563H582.316v11.236a29.466,29.466,0,0,1-5.089.169v-27.924h20.718a19.828,19.828,0,0,1,.028,4.475H582.316A63.474,63.474,0,0,0,582.364-3976.132Zm-4.37,31.576c6.818-.024,13.762-1.081,20.237,1.985,4.885,2.314,9.641,4.872,14.437,7.327q12.382,6.3,24.74,12.629c2.365,1.208,4.63,2.494,7.427,2.532,2.888.051,5.19-1.3,7.582-2.582,11.664-6.246,23.353-12.452,34.979-18.762a25.522,25.522,0,0,1,13.254-3.256c2.506.076,5,.012,7.505.051.712.012,1.526-.014,1.807.979-.179,1.081-1.095,1.462-1.909,1.921q-13.3,7.46-26.61,14.933c-4.706,2.646-9.387,5.355-14.081,8-5.863,3.295-11.715,6.588-17.63,9.794a9.577,9.577,0,0,1-9.462.051c-5.14-2.709-10.2-5.6-15.366-8.256-9.705-4.986-19.155-10.429-28.835-15.441-5.826-3.015-11.524-6.259-17.35-9.286a2.987,2.987,0,0,1-1.691-1.551C577.052-3944.136,577.4-3944.556,577.994-3944.556Zm44.024-32.2a15.293,15.293,0,0,1,.1,4.677H608.389v7.357h15.725a16.242,16.242,0,0,1,.041,4.428H603.237v-27.8H623.9a22.941,22.941,0,0,1,.07,4.509H608.342v6.83Zm25.525,42.365.906,4.569a.279.279,0,0,1-.381.312l-4.466-1.876a.277.277,0,0,0-.216,0l-4.467,1.876a.279.279,0,0,1-.381-.312l.906-4.569a.281.281,0,0,0-.069-.244l-3.563-3.843a.279.279,0,0,1,.165-.465l4.91-.7a.276.276,0,0,0,.207-.144l2.127-3.97a.311.311,0,0,1,.547,0l2.126,3.97a.277.277,0,0,0,.207.144l4.91.7a.278.278,0,0,1,.165.465l-3.563,3.843A.28.28,0,0,0,647.543-3934.389Zm2.571-25.781c-5.283-6.145-9.784-12.892-15.3-19.419v19.313a26.793,26.793,0,0,1-5,.045v-27.755c1.477-.456,3.009-.071,4.652-.274,4.8,6.192,9.58,12.366,14.678,18.944v-18.707a35.794,35.794,0,0,1,5.067-.17v27.842A16.194,16.194,0,0,1,650.114-3960.17Zm33.781-86.18a70.116,70.116,0,0,1,7.995-.026l20.982,48.054h-9.125c-1.505-3.657-3.031-7.361-4.607-11.183h-22.51c-1.972,3.51-3.1,7.459-4.846,11.167h-8.856Zm-22.545,58.345a3.9,3.9,0,0,1,.89-.181c3.981.086,7.966-.16,11.951.165,10.247.833,16.059,12.821,10.367,21.375a13.863,13.863,0,0,1-11.021,6.361c-4.008.287-8.053.061-12.165.061C661.162-3961.8,661.159-3986.57,661.35-3988.006Zm-39.721-57.927h35.38v7.507H630.194v12.25H654v7.452H630.2v12.576h27.018c.449,2.664.127,5.127.21,7.746h-35.8Zm-49.206-.117h4.426c6.217,0,12.441-.151,18.652.06,5.449.186,10.292,1.979,13.6,6.69a14.947,14.947,0,0,1-7.006,22.319c-.577.214-1.138.479-1.8.763l12.831,17.868h-10.24c-3.867-5.507-7.7-10.961-11.593-16.5H581.043v16.513h-8.621Zm-1.3,62.445H555.525v6.861h13.606c.494,1.615.151,3.021.268,4.6H555.652a51.615,51.615,0,0,0-.153,7.373h15.552c.638,1.522.271,2.929.367,4.476H550.484v-27.768h20.567A16.681,16.681,0,0,1,571.118-3983.605Zm-51.77-62.184c.1-.1.131-.176.165-.176,8.116.112,16.321-1.056,24.32.667,11.972,2.578,19.543,12.631,18.566,24.875-.938,11.819-9.159,20.168-21.3,21.881a35.255,35.255,0,0,1-5.085.3c-5.471-.016-10.942-.006-16.665-.006Zm-.029,85.635v-27.828a4.75,4.75,0,0,1,1-.2c4.087.089,8.176-.2,12.26.2a14,14,0,0,1,11.334,9.249c1.739,5.429.239,11.554-3.72,14.866a14.329,14.329,0,0,1-7.4,3.471C528.367-3959.842,523.913-3960.257,519.319-3960.155Zm238.812,22.646a32.5,32.5,0,0,1-5.864,3.816c-5,2.989-10.049,5.9-15.047,8.879q-16.6,9.882-33.161,19.791-13.432,8.032-26.889,16.015c-7.492,4.477-14.958,9.018-22.5,13.406a16.3,16.3,0,0,1-16.994.141c-7.071-3.931-13.978-8.18-21.09-12.084-8.713-4.809-17.286-9.858-25.948-14.755q-13.146-7.441-26.24-14.921-13.508-7.687-27.042-15.391c-2.252-1.284-4.541-2.493-6.805-3.778a10.411,10.411,0,0,1-1.667-1.22c-.559-.5-1.144-1.03-.865-1.9a1.963,1.963,0,0,1,1.718-1.234,16.1,16.1,0,0,1,2.684-.267c2.722-.024,5.432-.012,8.917-.012,2.569.114,5.915-.178,9.259.153a43.825,43.825,0,0,1,17.209,5.228c7.468,4.121,14.973,8.154,22.464,12.211q17.878,9.673,35.743,19.321c4.1,2.214,8.1,4.643,12.314,6.6a17.307,17.307,0,0,0,16.5-.623c10.926-6.169,21.8-12.427,32.717-18.634,9.387-5.342,18.749-10.736,28.2-15.963,4.427-2.455,8.688-5.278,13.712-6.55a45.205,45.205,0,0,1,10.977-1.756c4.669,0,9.349-.014,14.03.024a11.817,11.817,0,0,1,2.85.294C759.263-3940.231,759.605-3938.883,758.131-3937.509Zm9.568-29.4a8.706,8.706,0,0,1-6.582,6.767c-5.5,1.263-10.24-.408-14.64-3.553-.155-.112-.216-.351-.395-.657l2.453-3.139c.824-.3,1.254.245,1.758.616a12.081,12.081,0,0,0,8.467,2.581,5.06,5.06,0,0,0,2.252-.722,3.014,3.014,0,0,0-.119-5.4c-2.406-1.289-5.129-1.646-7.711-2.392-6.208-1.793-7.185-7.015-5.172-11.338,1.35-2.9,4.075-3.994,6.971-4.375a15.2,15.2,0,0,1,11.246,2.968,1.459,1.459,0,0,1,.326.338,2.328,2.328,0,0,1,.169.469c-.785,1.1-1.633,2.278-2.392,3.337-.833.15-1.152-.347-1.586-.628a10.275,10.275,0,0,0-7.366-1.858,3.515,3.515,0,0,0-3.267,2.986c-.112,1.432.816,2.428,2.766,3.194,2.81,1.107,5.9,1.33,8.584,2.839C766.808-3972.993,768.219-3970.427,767.7-3966.909Zm-35.81-7.595c.079-.009.158-.02.237-.031.317-.044.632-.1.947-.17.158-.037.315-.075.471-.119a4.808,4.808,0,0,0,1.511-.716,4.642,4.642,0,0,0,.412-.335c.043-.04.085-.08.126-.121a4.161,4.161,0,0,0,1.224-3.007,4.117,4.117,0,0,0-1.187-3,4.086,4.086,0,0,0-.836-.629,5.327,5.327,0,0,0-1.244-.51,10.812,10.812,0,0,0-1.154-.248,43.311,43.311,0,0,0-6.583-.111c-.137,0-.276,0-.413-.006l-.21-.006q-.415-.014-.831-.047v9.188C726.952-3974.616,729.448-3974.215,731.889-3974.5ZM687.775-4035.8c-2.709,6.211-5.283,12.119-7.934,18.2h15.9C693.08-4023.668,690.5-4029.564,687.775-4035.8ZM672.969-3964.9q.408-.029.8-.09c.2-.031.391-.067.582-.107.126-.028.253-.058.377-.09s.248-.067.369-.1.243-.076.361-.118l.177-.064a8.77,8.77,0,0,0,.854-.37q.33-.166.641-.356c.155-.1.308-.2.457-.3a8.455,8.455,0,0,0,1.107-.933,9.342,9.342,0,0,0,2.521-5,9.3,9.3,0,0,0-5-10.075,9.318,9.318,0,0,0-1.058-.437c-.085-.03-.171-.058-.258-.084-.027-.01-.053-.017-.08-.026-.1-.031-.2-.06-.3-.087s-.2-.052-.3-.076c-.084-.02-.168-.039-.25-.056s-.183-.039-.276-.055l-.234-.042c-.215-.037-.429-.066-.645-.092-.185-.02-.371-.039-.557-.053-.109-.008-.217-.016-.327-.021-1.822-.106-3.675.074-5.521.075v18.586C668.652-3964.877,670.822-3964.743,672.969-3964.9ZM592-4022.661l1.531,0a9.53,9.53,0,0,0,1.05-.059c.035,0,.071-.006.1-.011l.13-.016c.258-.033.514-.073.77-.121l.222-.041c.444-.085.888-.186,1.334-.286,4.728-1.056,6.757-6.032,4.9-10.573a6.775,6.775,0,0,0-1.442-2.214c-.029-.032-.061-.064-.092-.093a6.693,6.693,0,0,0-2.169-1.4c-.08-.033-.161-.064-.244-.095-.164-.061-.332-.116-.5-.167s-.343-.1-.516-.137c-.087-.021-.175-.04-.264-.058-.177-.035-.356-.067-.537-.095q-.543-.082-1.107-.11c-3.975-.21-7.967-.118-11.95-.118-.047,0-.095,0-.142,0-.087,0-.175-.011-.264-.019-.134-.013-.267-.028-.4-.038h-.02a2.407,2.407,0,0,0-.761.042s0,0,0,0a1.658,1.658,0,0,0-.492.205v15.4C584.836-4022.664,588.423-4022.668,592-4022.661ZM528.287-4006.3a1.3,1.3,0,0,0,.38.072l.717,0c1.191.006,2.381.025,3.573.036,1.917.017,3.833.011,5.743-.105a19.584,19.584,0,0,0,2.223-.261c.209-.037.416-.076.622-.121l.309-.068q.463-.107.915-.241a14.567,14.567,0,0,0,5.311-2.812q.548-.46,1.034-.944c3.63-3.62,4.658-8.221,4.234-13.363a14.583,14.583,0,0,0-4.17-9.482q-.436-.432-.912-.829-.572-.479-1.206-.912c-.281-.193-.572-.377-.871-.556q-.337-.2-.689-.39c-.157-.084-.316-.166-.476-.247s-.325-.159-.49-.237c-5.213-2.437-10.844-1.385-16.327-1.375a.229.229,0,0,0-.135.076c-.052.048-.114.109-.2.175v31.452c.074.02.145.042.213.064Zm10.122,36.14c1.334-3.62,1.19-7.168-1.349-10.189q-.273-.324-.558-.607-.17-.171-.345-.327t-.352-.3l-.119-.094q-.119-.093-.241-.178l-.122-.085c-.081-.056-.163-.111-.244-.162-.205-.132-.414-.25-.626-.358a8.556,8.556,0,0,0-1.166-.495c-.089-.03-.177-.06-.266-.086-2.662-.817-5.655-.45-8.589-.427v18.541c1.872,0,3.647.115,5.379.062.215-.006.429-.016.641-.028.108-.006.216-.012.323-.021q.321-.024.639-.058a8.447,8.447,0,0,0,5.116-2.218A7.855,7.855,0,0,0,538.409-3970.162ZM735.631-3982a4.086,4.086,0,0,0-.836-.629,5.327,5.327,0,0,0-1.244-.51,10.812,10.812,0,0,0-1.154-.248,43.311,43.311,0,0,0-6.583-.111c-.137,0-.276,0-.413-.006l-.21-.006q-.415-.014-.831-.047v9.188c2.592-.242,5.089.159,7.53-.13.079-.009.158-.02.237-.031.317-.044.632-.1.947-.17.158-.037.315-.075.471-.119a4.808,4.808,0,0,0,1.511-.716,4.642,4.642,0,0,0,.412-.335c.043-.04.085-.08.126-.121a4.161,4.161,0,0,0,1.224-3.007A4.117,4.117,0,0,0,735.631-3982ZM687.775-4035.8c-2.709,6.211-5.283,12.119-7.934,18.2h15.9C693.08-4023.668,690.5-4029.564,687.775-4035.8Zm-11.555,53.288a9.318,9.318,0,0,0-1.058-.437c-.085-.03-.171-.058-.258-.084-.027-.01-.053-.017-.08-.026-.1-.031-.2-.06-.3-.087s-.2-.052-.3-.076c-.084-.02-.168-.039-.25-.056s-.183-.039-.276-.055l-.234-.042c-.215-.037-.429-.066-.645-.092-.185-.02-.371-.039-.557-.053-.109-.008-.217-.016-.327-.021-1.822-.106-3.675.074-5.521.075v18.586c2.242,0,4.412.134,6.559-.026q.408-.029.8-.09c.2-.031.391-.067.582-.107.126-.028.253-.058.377-.09s.248-.067.369-.1.243-.076.361-.118l.177-.064a8.77,8.77,0,0,0,.854-.37q.33-.166.641-.356c.155-.1.308-.2.457-.3a8.455,8.455,0,0,0,1.107-.933,9.342,9.342,0,0,0,2.521-5A9.3,9.3,0,0,0,676.219-3982.509Zm-74.185-51.254a6.775,6.775,0,0,0-1.442-2.214c-.029-.032-.061-.064-.092-.093a6.693,6.693,0,0,0-2.169-1.4c-.08-.033-.161-.064-.244-.095-.164-.061-.332-.116-.5-.167s-.343-.1-.516-.137c-.087-.021-.175-.04-.264-.058-.177-.035-.356-.067-.537-.095q-.543-.082-1.107-.11c-3.975-.21-7.967-.118-11.95-.118-.047,0-.095,0-.142,0-.087,0-.175-.011-.264-.019-.134-.013-.267-.028-.4-.038h-.02a2.407,2.407,0,0,0-.761.042s0,0,0,0a1.658,1.658,0,0,0-.492.205v15.4c3.7,0,7.291,0,10.864,0l1.531,0a9.53,9.53,0,0,0,1.05-.059c.035,0,.071-.006.1-.011l.13-.016c.258-.033.514-.073.77-.121l.222-.041c.444-.085.888-.186,1.334-.286C601.865-4024.246,603.894-4029.222,602.034-4033.763Zm-48.688,9.655a14.583,14.583,0,0,0-4.17-9.482q-.436-.432-.912-.829-.572-.479-1.206-.912c-.281-.193-.572-.377-.871-.556q-.337-.2-.689-.39c-.157-.084-.316-.166-.476-.247s-.325-.159-.49-.237c-5.213-2.437-10.844-1.385-16.327-1.375a.229.229,0,0,0-.135.076c-.052.048-.114.109-.2.175v31.452c.074.02.145.042.213.064l.2.066a1.3,1.3,0,0,0,.38.072l.717,0c1.191.006,2.381.025,3.573.036,1.917.017,3.833.011,5.743-.105a19.584,19.584,0,0,0,2.223-.261c.209-.037.416-.076.622-.121l.309-.068q.463-.107.915-.241a14.567,14.567,0,0,0,5.311-2.812q.548-.46,1.034-.944C552.742-4014.365,553.77-4018.966,553.346-4024.108Zm-16.286,43.757q-.273-.324-.558-.607-.17-.171-.345-.327t-.352-.3l-.119-.094q-.119-.093-.241-.178l-.122-.085c-.081-.056-.163-.111-.244-.162-.205-.132-.414-.25-.626-.358a8.556,8.556,0,0,0-1.166-.495c-.089-.03-.177-.06-.266-.086-2.662-.817-5.655-.45-8.589-.427v18.541c1.872,0,3.647.115,5.379.062.215-.006.429-.016.641-.028.108-.006.216-.012.323-.021q.321-.024.639-.058a8.447,8.447,0,0,0,5.116-2.218,7.855,7.855,0,0,0,1.877-2.972C539.742-3973.783,539.6-3977.331,537.06-3980.351ZM735.631-3982a4.086,4.086,0,0,0-.836-.629,5.327,5.327,0,0,0-1.244-.51,10.812,10.812,0,0,0-1.154-.248,43.311,43.311,0,0,0-6.583-.111c-.137,0-.276,0-.413-.006l-.21-.006q-.415-.014-.831-.047v9.188c2.592-.242,5.089.159,7.53-.13.079-.009.158-.02.237-.031.317-.044.632-.1.947-.17.158-.037.315-.075.471-.119a4.808,4.808,0,0,0,1.511-.716,4.642,4.642,0,0,0,.412-.335c.043-.04.085-.08.126-.121a4.161,4.161,0,0,0,1.224-3.007A4.117,4.117,0,0,0,735.631-3982ZM687.775-4035.8c-2.709,6.211-5.283,12.119-7.934,18.2h15.9C693.08-4023.668,690.5-4029.564,687.775-4035.8Zm-11.555,53.288a9.318,9.318,0,0,0-1.058-.437c-.085-.03-.171-.058-.258-.084-.027-.01-.053-.017-.08-.026-.1-.031-.2-.06-.3-.087s-.2-.052-.3-.076c-.084-.02-.168-.039-.25-.056s-.183-.039-.276-.055l-.234-.042c-.215-.037-.429-.066-.645-.092-.185-.02-.371-.039-.557-.053-.109-.008-.217-.016-.327-.021-1.822-.106-3.675.074-5.521.075v18.586c2.242,0,4.412.134,6.559-.026q.408-.029.8-.09c.2-.031.391-.067.582-.107.126-.028.253-.058.377-.09s.248-.067.369-.1.243-.076.361-.118l.177-.064a8.77,8.77,0,0,0,.854-.37q.33-.166.641-.356c.155-.1.308-.2.457-.3a8.455,8.455,0,0,0,1.107-.933,9.342,9.342,0,0,0,2.521-5A9.3,9.3,0,0,0,676.219-3982.509Zm-74.185-51.254a6.775,6.775,0,0,0-1.442-2.214c-.029-.032-.061-.064-.092-.093a6.693,6.693,0,0,0-2.169-1.4c-.08-.033-.161-.064-.244-.095-.164-.061-.332-.116-.5-.167s-.343-.1-.516-.137c-.087-.021-.175-.04-.264-.058-.177-.035-.356-.067-.537-.095q-.543-.082-1.107-.11c-3.975-.21-7.967-.118-11.95-.118-.047,0-.095,0-.142,0-.087,0-.175-.011-.264-.019-.134-.013-.267-.028-.4-.038h-.02a2.407,2.407,0,0,0-.761.042s0,0,0,0a1.658,1.658,0,0,0-.492.205v15.4c3.7,0,7.291,0,10.864,0l1.531,0a9.53,9.53,0,0,0,1.05-.059c.035,0,.071-.006.1-.011l.13-.016c.258-.033.514-.073.77-.121l.222-.041c.444-.085.888-.186,1.334-.286C601.865-4024.246,603.894-4029.222,602.034-4033.763Zm-48.688,9.655a14.583,14.583,0,0,0-4.17-9.482q-.436-.432-.912-.829-.572-.479-1.206-.912c-.281-.193-.572-.377-.871-.556q-.337-.2-.689-.39c-.157-.084-.316-.166-.476-.247s-.325-.159-.49-.237c-5.213-2.437-10.844-1.385-16.327-1.375a.229.229,0,0,0-.135.076c-.052.048-.114.109-.2.175v31.452c.074.02.145.042.213.064l.2.066a1.3,1.3,0,0,0,.38.072l.717,0c1.191.006,2.381.025,3.573.036,1.917.017,3.833.011,5.743-.105a19.584,19.584,0,0,0,2.223-.261c.209-.037.416-.076.622-.121l.309-.068q.463-.107.915-.241a14.567,14.567,0,0,0,5.311-2.812q.548-.46,1.034-.944C552.742-4014.365,553.77-4018.966,553.346-4024.108Zm-16.286,43.757q-.273-.324-.558-.607-.17-.171-.345-.327t-.352-.3l-.119-.094q-.119-.093-.241-.178l-.122-.085c-.081-.056-.163-.111-.244-.162-.205-.132-.414-.25-.626-.358a8.556,8.556,0,0,0-1.166-.495c-.089-.03-.177-.06-.266-.086-2.662-.817-5.655-.45-8.589-.427v18.541c1.872,0,3.647.115,5.379.062.215-.006.429-.016.641-.028.108-.006.216-.012.323-.021q.321-.024.639-.058a8.447,8.447,0,0,0,5.116-2.218,7.855,7.855,0,0,0,1.877-2.972C539.742-3973.783,539.6-3977.331,537.06-3980.351ZM735.631-3982a4.086,4.086,0,0,0-.836-.629,5.327,5.327,0,0,0-1.244-.51,10.812,10.812,0,0,0-1.154-.248,43.311,43.311,0,0,0-6.583-.111c-.137,0-.276,0-.413-.006l-.21-.006q-.415-.014-.831-.047v9.188c2.592-.242,5.089.159,7.53-.13.079-.009.158-.02.237-.031.317-.044.632-.1.947-.17.158-.037.315-.075.471-.119a4.808,4.808,0,0,0,1.511-.716,4.642,4.642,0,0,0,.412-.335c.043-.04.085-.08.126-.121a4.161,4.161,0,0,0,1.224-3.007A4.117,4.117,0,0,0,735.631-3982ZM687.775-4035.8c-2.709,6.211-5.283,12.119-7.934,18.2h15.9C693.08-4023.668,690.5-4029.564,687.775-4035.8Zm-11.555,53.288a9.318,9.318,0,0,0-1.058-.437c-.085-.03-.171-.058-.258-.084-.027-.01-.053-.017-.08-.026-.1-.031-.2-.06-.3-.087s-.2-.052-.3-.076c-.084-.02-.168-.039-.25-.056s-.183-.039-.276-.055l-.234-.042c-.215-.037-.429-.066-.645-.092-.185-.02-.371-.039-.557-.053-.109-.008-.217-.016-.327-.021-1.822-.106-3.675.074-5.521.075v18.586c2.242,0,4.412.134,6.559-.026q.408-.029.8-.09c.2-.031.391-.067.582-.107.126-.028.253-.058.377-.09s.248-.067.369-.1.243-.076.361-.118l.177-.064a8.77,8.77,0,0,0,.854-.37q.33-.166.641-.356c.155-.1.308-.2.457-.3a8.455,8.455,0,0,0,1.107-.933,9.342,9.342,0,0,0,2.521-5A9.3,9.3,0,0,0,676.219-3982.509Zm-74.185-51.254a6.775,6.775,0,0,0-1.442-2.214c-.029-.032-.061-.064-.092-.093a6.693,6.693,0,0,0-2.169-1.4c-.08-.033-.161-.064-.244-.095-.164-.061-.332-.116-.5-.167s-.343-.1-.516-.137c-.087-.021-.175-.04-.264-.058-.177-.035-.356-.067-.537-.095q-.543-.082-1.107-.11c-3.975-.21-7.967-.118-11.95-.118-.047,0-.095,0-.142,0-.087,0-.175-.011-.264-.019-.134-.013-.267-.028-.4-.038h-.02a2.407,2.407,0,0,0-.761.042s0,0,0,0a1.658,1.658,0,0,0-.492.205v15.4c3.7,0,7.291,0,10.864,0l1.531,0a9.53,9.53,0,0,0,1.05-.059c.035,0,.071-.006.1-.011l.13-.016c.258-.033.514-.073.77-.121l.222-.041c.444-.085.888-.186,1.334-.286C601.865-4024.246,603.894-4029.222,602.034-4033.763Zm-48.688,9.655a14.583,14.583,0,0,0-4.17-9.482q-.436-.432-.912-.829-.572-.479-1.206-.912c-.281-.193-.572-.377-.871-.556q-.337-.2-.689-.39c-.157-.084-.316-.166-.476-.247s-.325-.159-.49-.237c-5.213-2.437-10.844-1.385-16.327-1.375a.229.229,0,0,0-.135.076c-.052.048-.114.109-.2.175v31.452c.074.02.145.042.213.064l.2.066a1.3,1.3,0,0,0,.38.072l.717,0c1.191.006,2.381.025,3.573.036,1.917.017,3.833.011,5.743-.105a19.584,19.584,0,0,0,2.223-.261c.209-.037.416-.076.622-.121l.309-.068q.463-.107.915-.241a14.567,14.567,0,0,0,5.311-2.812q.548-.46,1.034-.944C552.742-4014.365,553.77-4018.966,553.346-4024.108Zm-16.286,43.757q-.273-.324-.558-.607-.17-.171-.345-.327t-.352-.3l-.119-.094q-.119-.093-.241-.178l-.122-.085c-.081-.056-.163-.111-.244-.162-.205-.132-.414-.25-.626-.358a8.556,8.556,0,0,0-1.166-.495c-.089-.03-.177-.06-.266-.086-2.662-.817-5.655-.45-8.589-.427v18.541c1.872,0,3.647.115,5.379.062.215-.006.429-.016.641-.028.108-.006.216-.012.323-.021q.321-.024.639-.058a8.447,8.447,0,0,0,5.116-2.218,7.855,7.855,0,0,0,1.877-2.972C539.742-3973.783,539.6-3977.331,537.06-3980.351ZM735.631-3982a4.086,4.086,0,0,0-.836-.629,5.327,5.327,0,0,0-1.244-.51,10.812,10.812,0,0,0-1.154-.248,43.311,43.311,0,0,0-6.583-.111c-.137,0-.276,0-.413-.006l-.21-.006q-.415-.014-.831-.047v9.188c2.592-.242,5.089.159,7.53-.13.079-.009.158-.02.237-.031.317-.044.632-.1.947-.17.158-.037.315-.075.471-.119a4.808,4.808,0,0,0,1.511-.716,4.642,4.642,0,0,0,.412-.335c.043-.04.085-.08.126-.121a4.161,4.161,0,0,0,1.224-3.007A4.117,4.117,0,0,0,735.631-3982ZM687.775-4035.8c-2.709,6.211-5.283,12.119-7.934,18.2h15.9C693.08-4023.668,690.5-4029.564,687.775-4035.8Zm-11.555,53.288a9.318,9.318,0,0,0-1.058-.437c-.085-.03-.171-.058-.258-.084-.027-.01-.053-.017-.08-.026-.1-.031-.2-.06-.3-.087s-.2-.052-.3-.076c-.084-.02-.168-.039-.25-.056s-.183-.039-.276-.055l-.234-.042c-.215-.037-.429-.066-.645-.092-.185-.02-.371-.039-.557-.053-.109-.008-.217-.016-.327-.021-1.822-.106-3.675.074-5.521.075v18.586c2.242,0,4.412.134,6.559-.026q.408-.029.8-.09c.2-.031.391-.067.582-.107.126-.028.253-.058.377-.09s.248-.067.369-.1.243-.076.361-.118l.177-.064a8.77,8.77,0,0,0,.854-.37q.33-.166.641-.356c.155-.1.308-.2.457-.3a8.455,8.455,0,0,0,1.107-.933,9.342,9.342,0,0,0,2.521-5A9.3,9.3,0,0,0,676.219-3982.509Zm-74.185-51.254a6.775,6.775,0,0,0-1.442-2.214c-.029-.032-.061-.064-.092-.093a6.693,6.693,0,0,0-2.169-1.4c-.08-.033-.161-.064-.244-.095-.164-.061-.332-.116-.5-.167s-.343-.1-.516-.137c-.087-.021-.175-.04-.264-.058-.177-.035-.356-.067-.537-.095q-.543-.082-1.107-.11c-3.975-.21-7.967-.118-11.95-.118-.047,0-.095,0-.142,0-.087,0-.175-.011-.264-.019-.134-.013-.267-.028-.4-.038h-.02a2.407,2.407,0,0,0-.761.042s0,0,0,0a1.658,1.658,0,0,0-.492.205v15.4c3.7,0,7.291,0,10.864,0l1.531,0a9.53,9.53,0,0,0,1.05-.059c.035,0,.071-.006.1-.011l.13-.016c.258-.033.514-.073.77-.121l.222-.041c.444-.085.888-.186,1.334-.286C601.865-4024.246,603.894-4029.222,602.034-4033.763Zm-48.688,9.655a14.583,14.583,0,0,0-4.17-9.482q-.436-.432-.912-.829-.572-.479-1.206-.912c-.281-.193-.572-.377-.871-.556q-.337-.2-.689-.39c-.157-.084-.316-.166-.476-.247s-.325-.159-.49-.237c-5.213-2.437-10.844-1.385-16.327-1.375a.229.229,0,0,0-.135.076c-.052.048-.114.109-.2.175v31.452c.074.02.145.042.213.064l.2.066a1.3,1.3,0,0,0,.38.072l.717,0c1.191.006,2.381.025,3.573.036,1.917.017,3.833.011,5.743-.105a19.584,19.584,0,0,0,2.223-.261c.209-.037.416-.076.622-.121l.309-.068q.463-.107.915-.241a14.567,14.567,0,0,0,5.311-2.812q.548-.46,1.034-.944C552.742-4014.365,553.77-4018.966,553.346-4024.108Zm-16.286,43.757q-.273-.324-.558-.607-.17-.171-.345-.327t-.352-.3l-.119-.094q-.119-.093-.241-.178l-.122-.085c-.081-.056-.163-.111-.244-.162-.205-.132-.414-.25-.626-.358a8.556,8.556,0,0,0-1.166-.495c-.089-.03-.177-.06-.266-.086-2.662-.817-5.655-.45-8.589-.427v18.541c1.872,0,3.647.115,5.379.062.215-.006.429-.016.641-.028.108-.006.216-.012.323-.021q.321-.024.639-.058a8.447,8.447,0,0,0,5.116-2.218,7.855,7.855,0,0,0,1.877-2.972C539.742-3973.783,539.6-3977.331,537.06-3980.351ZM735.631-3982a4.086,4.086,0,0,0-.836-.629,5.327,5.327,0,0,0-1.244-.51,10.812,10.812,0,0,0-1.154-.248,43.311,43.311,0,0,0-6.583-.111c-.137,0-.276,0-.413-.006l-.21-.006q-.415-.014-.831-.047v9.188c2.592-.242,5.089.159,7.53-.13.079-.009.158-.02.237-.031.317-.044.632-.1.947-.17.158-.037.315-.075.471-.119a4.808,4.808,0,0,0,1.511-.716,4.642,4.642,0,0,0,.412-.335c.043-.04.085-.08.126-.121a4.161,4.161,0,0,0,1.224-3.007A4.117,4.117,0,0,0,735.631-3982Zm-59.411-.5a9.318,9.318,0,0,0-1.058-.437c-.085-.03-.171-.058-.258-.084-.027-.01-.053-.017-.08-.026-.1-.031-.2-.06-.3-.087s-.2-.052-.3-.076c-.084-.02-.168-.039-.25-.056s-.183-.039-.276-.055l-.234-.042c-.215-.037-.429-.066-.645-.092-.185-.02-.371-.039-.557-.053-.109-.008-.217-.016-.327-.021-1.822-.106-3.675.074-5.521.075v18.586c2.242,0,4.412.134,6.559-.026q.408-.029.8-.09c.2-.031.391-.067.582-.107.126-.028.253-.058.377-.09s.248-.067.369-.1.243-.076.361-.118l.177-.064a8.77,8.77,0,0,0,.854-.37q.33-.166.641-.356c.155-.1.308-.2.457-.3a8.455,8.455,0,0,0,1.107-.933,9.342,9.342,0,0,0,2.521-5A9.3,9.3,0,0,0,676.219-3982.509Zm-74.185-51.254a6.775,6.775,0,0,0-1.442-2.214c-.029-.032-.061-.064-.092-.093a6.693,6.693,0,0,0-2.169-1.4c-.08-.033-.161-.064-.244-.095-.164-.061-.332-.116-.5-.167s-.343-.1-.516-.137c-.087-.021-.175-.04-.264-.058-.177-.035-.356-.067-.537-.095q-.543-.082-1.107-.11c-3.975-.21-7.967-.118-11.95-.118-.047,0-.095,0-.142,0-.087,0-.175-.011-.264-.019-.134-.013-.267-.028-.4-.038h-.02a2.407,2.407,0,0,0-.761.042s0,0,0,0a1.658,1.658,0,0,0-.492.205v15.4c3.7,0,7.291,0,10.864,0l1.531,0a9.53,9.53,0,0,0,1.05-.059c.035,0,.071-.006.1-.011l.13-.016c.258-.033.514-.073.77-.121l.222-.041c.444-.085.888-.186,1.334-.286C601.865-4024.246,603.894-4029.222,602.034-4033.763Zm-48.688,9.655a14.583,14.583,0,0,0-4.17-9.482q-.436-.432-.912-.829-.572-.479-1.206-.912c-.281-.193-.572-.377-.871-.556q-.337-.2-.689-.39c-.157-.084-.316-.166-.476-.247s-.325-.159-.49-.237c-5.213-2.437-10.844-1.385-16.327-1.375a.229.229,0,0,0-.135.076c-.052.048-.114.109-.2.175v31.452c.074.02.145.042.213.064l.2.066a1.3,1.3,0,0,0,.38.072l.717,0c1.191.006,2.381.025,3.573.036,1.917.017,3.833.011,5.743-.105a19.584,19.584,0,0,0,2.223-.261c.209-.037.416-.076.622-.121l.309-.068q.463-.107.915-.241a14.567,14.567,0,0,0,5.311-2.812q.548-.46,1.034-.944C552.742-4014.365,553.77-4018.966,553.346-4024.108Zm-16.286,43.757q-.273-.324-.558-.607-.17-.171-.345-.327t-.352-.3l-.119-.094q-.119-.093-.241-.178l-.122-.085c-.081-.056-.163-.111-.244-.162-.205-.132-.414-.25-.626-.358a8.556,8.556,0,0,0-1.166-.495c-.089-.03-.177-.06-.266-.086-2.662-.817-5.655-.45-8.589-.427v18.541c1.872,0,3.647.115,5.379.062.215-.006.429-.016.641-.028.108-.006.216-.012.323-.021q.321-.024.639-.058a8.447,8.447,0,0,0,5.116-2.218,7.855,7.855,0,0,0,1.877-2.972C539.742-3973.783,539.6-3977.331,537.06-3980.351ZM735.631-3982a4.086,4.086,0,0,0-.836-.629,5.327,5.327,0,0,0-1.244-.51,10.812,10.812,0,0,0-1.154-.248,43.311,43.311,0,0,0-6.583-.111c-.137,0-.276,0-.413-.006l-.21-.006q-.415-.014-.831-.047v9.188c2.592-.242,5.089.159,7.53-.13.079-.009.158-.02.237-.031.317-.044.632-.1.947-.17.158-.037.315-.075.471-.119a4.808,4.808,0,0,0,1.511-.716,4.642,4.642,0,0,0,.412-.335c.043-.04.085-.08.126-.121a4.161,4.161,0,0,0,1.224-3.007A4.117,4.117,0,0,0,735.631-3982Zm-59.411-.5a9.318,9.318,0,0,0-1.058-.437c-.085-.03-.171-.058-.258-.084-.027-.01-.053-.017-.08-.026-.1-.031-.2-.06-.3-.087s-.2-.052-.3-.076c-.084-.02-.168-.039-.25-.056s-.183-.039-.276-.055l-.234-.042c-.215-.037-.429-.066-.645-.092-.185-.02-.371-.039-.557-.053-.109-.008-.217-.016-.327-.021-1.822-.106-3.675.074-5.521.075v18.586c2.242,0,4.412.134,6.559-.026q.408-.029.8-.09c.2-.031.391-.067.582-.107.126-.028.253-.058.377-.09s.248-.067.369-.1.243-.076.361-.118l.177-.064a8.77,8.77,0,0,0,.854-.37q.33-.166.641-.356c.155-.1.308-.2.457-.3a8.455,8.455,0,0,0,1.107-.933,9.342,9.342,0,0,0,2.521-5A9.3,9.3,0,0,0,676.219-3982.509Zm-74.185-51.254a6.775,6.775,0,0,0-1.442-2.214c-.029-.032-.061-.064-.092-.093a6.693,6.693,0,0,0-2.169-1.4c-.08-.033-.161-.064-.244-.095-.164-.061-.332-.116-.5-.167s-.343-.1-.516-.137c-.087-.021-.175-.04-.264-.058-.177-.035-.356-.067-.537-.095q-.543-.082-1.107-.11c-3.975-.21-7.967-.118-11.95-.118-.047,0-.095,0-.142,0-.087,0-.175-.011-.264-.019-.134-.013-.267-.028-.4-.038h-.02a2.407,2.407,0,0,0-.761.042s0,0,0,0a1.658,1.658,0,0,0-.492.205v15.4c3.7,0,7.291,0,10.864,0l1.531,0a9.53,9.53,0,0,0,1.05-.059c.035,0,.071-.006.1-.011l.13-.016c.258-.033.514-.073.77-.121l.222-.041c.444-.085.888-.186,1.334-.286C601.865-4024.246,603.894-4029.222,602.034-4033.763Zm-48.688,9.655a14.583,14.583,0,0,0-4.17-9.482q-.436-.432-.912-.829-.572-.479-1.206-.912c-.281-.193-.572-.377-.871-.556q-.337-.2-.689-.39c-.157-.084-.316-.166-.476-.247s-.325-.159-.49-.237c-5.213-2.437-10.844-1.385-16.327-1.375a.229.229,0,0,0-.135.076c-.052.048-.114.109-.2.175v31.452c.074.02.145.042.213.064l.2.066a1.3,1.3,0,0,0,.38.072l.717,0c1.191.006,2.381.025,3.573.036,1.917.017,3.833.011,5.743-.105a19.584,19.584,0,0,0,2.223-.261c.209-.037.416-.076.622-.121l.309-.068q.463-.107.915-.241a14.567,14.567,0,0,0,5.311-2.812q.548-.46,1.034-.944C552.742-4014.365,553.77-4018.966,553.346-4024.108Zm-16.286,43.757q-.273-.324-.558-.607-.17-.171-.345-.327t-.352-.3l-.119-.094q-.119-.093-.241-.178l-.122-.085c-.081-.056-.163-.111-.244-.162-.205-.132-.414-.25-.626-.358a8.556,8.556,0,0,0-1.166-.495c-.089-.03-.177-.06-.266-.086-2.662-.817-5.655-.45-8.589-.427v18.541c1.872,0,3.647.115,5.379.062.215-.006.429-.016.641-.028.108-.006.216-.012.323-.021q.321-.024.639-.058a8.447,8.447,0,0,0,5.116-2.218,7.855,7.855,0,0,0,1.877-2.972C539.742-3973.783,539.6-3977.331,537.06-3980.351ZM735.631-3982a4.086,4.086,0,0,0-.836-.629,5.327,5.327,0,0,0-1.244-.51,10.812,10.812,0,0,0-1.154-.248,43.311,43.311,0,0,0-6.583-.111c-.137,0-.276,0-.413-.006l-.21-.006q-.415-.014-.831-.047v9.188c2.592-.242,5.089.159,7.53-.13.079-.009.158-.02.237-.031.317-.044.632-.1.947-.17.158-.037.315-.075.471-.119a4.808,4.808,0,0,0,1.511-.716,4.642,4.642,0,0,0,.412-.335c.043-.04.085-.08.126-.121a4.161,4.161,0,0,0,1.224-3.007A4.117,4.117,0,0,0,735.631-3982Zm-59.411-.5a9.318,9.318,0,0,0-1.058-.437c-.085-.03-.171-.058-.258-.084-.027-.01-.053-.017-.08-.026-.1-.031-.2-.06-.3-.087s-.2-.052-.3-.076c-.084-.02-.168-.039-.25-.056s-.183-.039-.276-.055l-.234-.042c-.215-.037-.429-.066-.645-.092-.185-.02-.371-.039-.557-.053-.109-.008-.217-.016-.327-.021-1.822-.106-3.675.074-5.521.075v18.586c2.242,0,4.412.134,6.559-.026q.408-.029.8-.09c.2-.031.391-.067.582-.107.126-.028.253-.058.377-.09s.248-.067.369-.1.243-.076.361-.118l.177-.064a8.77,8.77,0,0,0,.854-.37q.33-.166.641-.356c.155-.1.308-.2.457-.3a8.455,8.455,0,0,0,1.107-.933,9.342,9.342,0,0,0,2.521-5A9.3,9.3,0,0,0,676.219-3982.509Zm-139.159,2.158q-.273-.324-.558-.607-.17-.171-.345-.327t-.352-.3l-.119-.094q-.119-.093-.241-.178l-.122-.085c-.081-.056-.163-.111-.244-.162-.205-.132-.414-.25-.626-.358a8.556,8.556,0,0,0-1.166-.495c-.089-.03-.177-.06-.266-.086-2.662-.817-5.655-.45-8.589-.427v18.541c1.872,0,3.647.115,5.379.062.215-.006.429-.016.641-.028.108-.006.216-.012.323-.021q.321-.024.639-.058a8.447,8.447,0,0,0,5.116-2.218,7.855,7.855,0,0,0,1.877-2.972C539.742-3973.783,539.6-3977.331,537.06-3980.351ZM735.631-3982a4.086,4.086,0,0,0-.836-.629,5.327,5.327,0,0,0-1.244-.51,10.812,10.812,0,0,0-1.154-.248,43.311,43.311,0,0,0-6.583-.111c-.137,0-.276,0-.413-.006l-.21-.006q-.415-.014-.831-.047v9.188c2.592-.242,5.089.159,7.53-.13.079-.009.158-.02.237-.031.317-.044.632-.1.947-.17.158-.037.315-.075.471-.119a4.808,4.808,0,0,0,1.511-.716,4.642,4.642,0,0,0,.412-.335c.043-.04.085-.08.126-.121a4.161,4.161,0,0,0,1.224-3.007A4.117,4.117,0,0,0,735.631-3982Zm-59.411-.5a9.318,9.318,0,0,0-1.058-.437c-.085-.03-.171-.058-.258-.084-.027-.01-.053-.017-.08-.026-.1-.031-.2-.06-.3-.087s-.2-.052-.3-.076c-.084-.02-.168-.039-.25-.056s-.183-.039-.276-.055l-.234-.042c-.215-.037-.429-.066-.645-.092-.185-.02-.371-.039-.557-.053-.109-.008-.217-.016-.327-.021-1.822-.106-3.675.074-5.521.075v18.586c2.242,0,4.412.134,6.559-.026q.408-.029.8-.09c.2-.031.391-.067.582-.107.126-.028.253-.058.377-.09s.248-.067.369-.1.243-.076.361-.118l.177-.064a8.77,8.77,0,0,0,.854-.37q.33-.166.641-.356c.155-.1.308-.2.457-.3a8.455,8.455,0,0,0,1.107-.933,9.342,9.342,0,0,0,2.521-5A9.3,9.3,0,0,0,676.219-3982.509Zm-139.159,2.158q-.273-.324-.558-.607-.17-.171-.345-.327t-.352-.3l-.119-.094q-.119-.093-.241-.178l-.122-.085c-.081-.056-.163-.111-.244-.162-.205-.132-.414-.25-.626-.358a8.556,8.556,0,0,0-1.166-.495c-.089-.03-.177-.06-.266-.086-2.662-.817-5.655-.45-8.589-.427v18.541c1.872,0,3.647.115,5.379.062.215-.006.429-.016.641-.028.108-.006.216-.012.323-.021q.321-.024.639-.058a8.447,8.447,0,0,0,5.116-2.218,7.855,7.855,0,0,0,1.877-2.972C539.742-3973.783,539.6-3977.331,537.06-3980.351ZM735.631-3982a4.086,4.086,0,0,0-.836-.629,5.327,5.327,0,0,0-1.244-.51,10.812,10.812,0,0,0-1.154-.248,43.311,43.311,0,0,0-6.583-.111c-.137,0-.276,0-.413-.006l-.21-.006q-.415-.014-.831-.047v9.188c2.592-.242,5.089.159,7.53-.13.079-.009.158-.02.237-.031.317-.044.632-.1.947-.17.158-.037.315-.075.471-.119a4.808,4.808,0,0,0,1.511-.716,4.642,4.642,0,0,0,.412-.335c.043-.04.085-.08.126-.121a4.161,4.161,0,0,0,1.224-3.007A4.117,4.117,0,0,0,735.631-3982Zm-59.411-.5a9.318,9.318,0,0,0-1.058-.437c-.085-.03-.171-.058-.258-.084-.027-.01-.053-.017-.08-.026-.1-.031-.2-.06-.3-.087s-.2-.052-.3-.076c-.084-.02-.168-.039-.25-.056s-.183-.039-.276-.055l-.234-.042c-.215-.037-.429-.066-.645-.092-.185-.02-.371-.039-.557-.053-.109-.008-.217-.016-.327-.021-1.822-.106-3.675.074-5.521.075v18.586c2.242,0,4.412.134,6.559-.026q.408-.029.8-.09c.2-.031.391-.067.582-.107.126-.028.253-.058.377-.09s.248-.067.369-.1.243-.076.361-.118l.177-.064a8.77,8.77,0,0,0,.854-.37q.33-.166.641-.356c.155-.1.308-.2.457-.3a8.455,8.455,0,0,0,1.107-.933,9.342,9.342,0,0,0,2.521-5A9.3,9.3,0,0,0,676.219-3982.509Zm-139.159,2.158q-.273-.324-.558-.607-.17-.171-.345-.327t-.352-.3l-.119-.094q-.119-.093-.241-.178l-.122-.085c-.081-.056-.163-.111-.244-.162-.205-.132-.414-.25-.626-.358a8.556,8.556,0,0,0-1.166-.495c-.089-.03-.177-.06-.266-.086-2.662-.817-5.655-.45-8.589-.427v18.541c1.872,0,3.647.115,5.379.062.215-.006.429-.016.641-.028.108-.006.216-.012.323-.021q.321-.024.639-.058a8.447,8.447,0,0,0,5.116-2.218,7.855,7.855,0,0,0,1.877-2.972C539.742-3973.783,539.6-3977.331,537.06-3980.351ZM735.631-3982a4.086,4.086,0,0,0-.836-.629,5.327,5.327,0,0,0-1.244-.51,10.812,10.812,0,0,0-1.154-.248,43.311,43.311,0,0,0-6.583-.111c-.137,0-.276,0-.413-.006l-.21-.006q-.415-.014-.831-.047v9.188c2.592-.242,5.089.159,7.53-.13.079-.009.158-.02.237-.031.317-.044.632-.1.947-.17.158-.037.315-.075.471-.119a4.808,4.808,0,0,0,1.511-.716,4.642,4.642,0,0,0,.412-.335c.043-.04.085-.08.126-.121a4.161,4.161,0,0,0,1.224-3.007A4.117,4.117,0,0,0,735.631-3982Zm-59.411-.5a9.318,9.318,0,0,0-1.058-.437c-.085-.03-.171-.058-.258-.084-.027-.01-.053-.017-.08-.026-.1-.031-.2-.06-.3-.087s-.2-.052-.3-.076c-.084-.02-.168-.039-.25-.056s-.183-.039-.276-.055l-.234-.042c-.215-.037-.429-.066-.645-.092-.185-.02-.371-.039-.557-.053-.109-.008-.217-.016-.327-.021-1.822-.106-3.675.074-5.521.075v18.586c2.242,0,4.412.134,6.559-.026q.408-.029.8-.09c.2-.031.391-.067.582-.107.126-.028.253-.058.377-.09s.248-.067.369-.1.243-.076.361-.118l.177-.064a8.77,8.77,0,0,0,.854-.37q.33-.166.641-.356c.155-.1.308-.2.457-.3a8.455,8.455,0,0,0,1.107-.933,9.342,9.342,0,0,0,2.521-5A9.3,9.3,0,0,0,676.219-3982.509Zm-139.159,2.158q-.273-.324-.558-.607-.17-.171-.345-.327t-.352-.3l-.119-.094q-.119-.093-.241-.178l-.122-.085c-.081-.056-.163-.111-.244-.162-.205-.132-.414-.25-.626-.358a8.556,8.556,0,0,0-1.166-.495c-.089-.03-.177-.06-.266-.086-2.662-.817-5.655-.45-8.589-.427v18.541c1.872,0,3.647.115,5.379.062.215-.006.429-.016.641-.028.108-.006.216-.012.323-.021q.321-.024.639-.058a8.447,8.447,0,0,0,5.116-2.218,7.855,7.855,0,0,0,1.877-2.972C539.742-3973.783,539.6-3977.331,537.06-3980.351Zm139.159-2.158a9.318,9.318,0,0,0-1.058-.437c-.085-.03-.171-.058-.258-.084-.027-.01-.053-.017-.08-.026-.1-.031-.2-.06-.3-.087s-.2-.052-.3-.076c-.084-.02-.168-.039-.25-.056s-.183-.039-.276-.055l-.234-.042c-.215-.037-.429-.066-.645-.092-.185-.02-.371-.039-.557-.053-.109-.008-.217-.016-.327-.021-1.822-.106-3.675.074-5.521.075v18.586c2.242,0,4.412.134,6.559-.026q.408-.029.8-.09c.2-.031.391-.067.582-.107.126-.028.253-.058.377-.09s.248-.067.369-.1.243-.076.361-.118l.177-.064a8.77,8.77,0,0,0,.854-.37q.33-.166.641-.356c.155-.1.308-.2.457-.3a8.455,8.455,0,0,0,1.107-.933,9.342,9.342,0,0,0,2.521-5A9.3,9.3,0,0,0,676.219-3982.509Zm-139.159,2.158q-.273-.324-.558-.607-.17-.171-.345-.327t-.352-.3l-.119-.094q-.119-.093-.241-.178l-.122-.085c-.081-.056-.163-.111-.244-.162-.205-.132-.414-.25-.626-.358a8.556,8.556,0,0,0-1.166-.495c-.089-.03-.177-.06-.266-.086-2.662-.817-5.655-.45-8.589-.427v18.541c1.872,0,3.647.115,5.379.062.215-.006.429-.016.641-.028.108-.006.216-.012.323-.021q.321-.024.639-.058a8.447,8.447,0,0,0,5.116-2.218,7.855,7.855,0,0,0,1.877-2.972C539.742-3973.783,539.6-3977.331,537.06-3980.351Zm139.159-2.158a9.318,9.318,0,0,0-1.058-.437c-.085-.03-.171-.058-.258-.084-.027-.01-.053-.017-.08-.026-.1-.031-.2-.06-.3-.087s-.2-.052-.3-.076c-.084-.02-.168-.039-.25-.056s-.183-.039-.276-.055l-.234-.042c-.215-.037-.429-.066-.645-.092-.185-.02-.371-.039-.557-.053-.109-.008-.217-.016-.327-.021-1.822-.106-3.675.074-5.521.075v18.586c2.242,0,4.412.134,6.559-.026q.408-.029.8-.09c.2-.031.391-.067.582-.107.126-.028.253-.058.377-.09s.248-.067.369-.1.243-.076.361-.118l.177-.064a8.77,8.77,0,0,0,.854-.37q.33-.166.641-.356c.155-.1.308-.2.457-.3a8.455,8.455,0,0,0,1.107-.933,9.342,9.342,0,0,0,2.521-5A9.3,9.3,0,0,0,676.219-3982.509Zm-139.159,2.158q-.273-.324-.558-.607-.17-.171-.345-.327t-.352-.3l-.119-.094q-.119-.093-.241-.178l-.122-.085c-.081-.056-.163-.111-.244-.162-.205-.132-.414-.25-.626-.358a8.556,8.556,0,0,0-1.166-.495c-.089-.03-.177-.06-.266-.086-2.662-.817-5.655-.45-8.589-.427v18.541c1.872,0,3.647.115,5.379.062.215-.006.429-.016.641-.028.108-.006.216-.012.323-.021q.321-.024.639-.058a8.447,8.447,0,0,0,5.116-2.218,7.855,7.855,0,0,0,1.877-2.972C539.742-3973.783,539.6-3977.331,537.06-3980.351Zm0,0q-.273-.324-.558-.607-.17-.171-.345-.327t-.352-.3l-.119-.094q-.119-.093-.241-.178l-.122-.085c-.081-.056-.163-.111-.244-.162-.205-.132-.414-.25-.626-.358a8.556,8.556,0,0,0-1.166-.495c-.089-.03-.177-.06-.266-.086-2.662-.817-5.655-.45-8.589-.427v18.541c1.872,0,3.647.115,5.379.062.215-.006.429-.016.641-.028.108-.006.216-.012.323-.021q.321-.024.639-.058a8.447,8.447,0,0,0,5.116-2.218,7.855,7.855,0,0,0,1.877-2.972C539.742-3973.783,539.6-3977.331,537.06-3980.351Zm0,0q-.273-.324-.558-.607-.17-.171-.345-.327t-.352-.3l-.119-.094q-.119-.093-.241-.178l-.122-.085c-.081-.056-.163-.111-.244-.162-.205-.132-.414-.25-.626-.358a8.556,8.556,0,0,0-1.166-.495c-.089-.03-.177-.06-.266-.086-2.662-.817-5.655-.45-8.589-.427v18.541c1.872,0,3.647.115,5.379.062.215-.006.429-.016.641-.028.108-.006.216-.012.323-.021q.321-.024.639-.058a8.447,8.447,0,0,0,5.116-2.218,7.855,7.855,0,0,0,1.877-2.972C539.742-3973.783,539.6-3977.331,537.06-3980.351Zm0,0q-.273-.324-.558-.607-.17-.171-.345-.327t-.352-.3l-.119-.094q-.119-.093-.241-.178l-.122-.085c-.081-.056-.163-.111-.244-.162-.205-.132-.414-.25-.626-.358a8.556,8.556,0,0,0-1.166-.495c-.089-.03-.177-.06-.266-.086-2.662-.817-5.655-.45-8.589-.427v18.541c1.872,0,3.647.115,5.379.062.215-.006.429-.016.641-.028.108-.006.216-.012.323-.021q.321-.024.639-.058a8.447,8.447,0,0,0,5.116-2.218,7.855,7.855,0,0,0,1.877-2.972C539.742-3973.783,539.6-3977.331,537.06-3980.351Zm0,0q-.273-.324-.558-.607-.17-.171-.345-.327t-.352-.3l-.119-.094q-.119-.093-.241-.178l-.122-.085c-.081-.056-.163-.111-.244-.162-.205-.132-.414-.25-.626-.358a8.556,8.556,0,0,0-1.166-.495c-.089-.03-.177-.06-.266-.086-2.662-.817-5.655-.45-8.589-.427v18.541c1.872,0,3.647.115,5.379.062.215-.006.429-.016.641-.028.108-.006.216-.012.323-.021q.321-.024.639-.058a8.447,8.447,0,0,0,5.116-2.218,7.855,7.855,0,0,0,1.877-2.972C539.742-3973.783,539.6-3977.331,537.06-3980.351Zm0,0q-.273-.324-.558-.607-.17-.171-.345-.327t-.352-.3l-.119-.094q-.119-.093-.241-.178l-.122-.085c-.081-.056-.163-.111-.244-.162-.205-.132-.414-.25-.626-.358a8.556,8.556,0,0,0-1.166-.495c-.089-.03-.177-.06-.266-.086-2.662-.817-5.655-.45-8.589-.427v18.541c1.872,0,3.647.115,5.379.062.215-.006.429-.016.641-.028.108-.006.216-.012.323-.021q.321-.024.639-.058a8.447,8.447,0,0,0,5.116-2.218,7.855,7.855,0,0,0,1.877-2.972C539.742-3973.783,539.6-3977.331,537.06-3980.351Zm0,0q-.273-.324-.558-.607-.17-.171-.345-.327t-.352-.3l-.119-.094q-.119-.093-.241-.178l-.122-.085c-.081-.056-.163-.111-.244-.162-.205-.132-.414-.25-.626-.358a8.556,8.556,0,0,0-1.166-.495c-.089-.03-.177-.06-.266-.086-2.662-.817-5.655-.45-8.589-.427v18.541c1.872,0,3.647.115,5.379.062.215-.006.429-.016.641-.028.108-.006.216-.012.323-.021q.321-.024.639-.058a8.447,8.447,0,0,0,5.116-2.218,7.855,7.855,0,0,0,1.877-2.972C539.742-3973.783,539.6-3977.331,537.06-3980.351Z" transform="translate(-497.996 4067.475)"/>
</svg>
