<svg xmlns="http://www.w3.org/2000/svg" width="48.324" height="39.273" viewBox="0 0 48.324 39.273">
  <path id="Path_1815" data-name="Path 1815" d="M90.2,137.685c18.236,0,28.209-15.108,28.209-28.209,0-.429-.009-.857-.028-1.282a20.173,20.173,0,0,0,4.946-5.133,19.791,19.791,0,0,1-5.694,1.561,9.948,9.948,0,0,0,4.36-5.484,19.869,19.869,0,0,1-6.3,2.406,9.923,9.923,0,0,0-16.9,9.042,28.148,28.148,0,0,1-20.436-10.359,9.923,9.923,0,0,0,3.069,13.236,9.841,9.841,0,0,1-4.49-1.24c0,.041,0,.083,0,.126a9.919,9.919,0,0,0,7.954,9.72,9.9,9.9,0,0,1-4.477.17,9.926,9.926,0,0,0,9.262,6.886,19.9,19.9,0,0,1-12.314,4.244A20.167,20.167,0,0,1,75,133.231a28.068,28.068,0,0,0,15.2,4.453" transform="translate(-75 -98.411)"/>
</svg>
