<?xml version="1.0" encoding="UTF-8"?>
<svg viewBox="0 0 65 65" version="1.1" xmlns="http://www.w3.org/2000/svg" xmlns:xlink="http://www.w3.org/1999/xlink">
  <title>Tiny Pixel Collective</title>
  <desc>Creating meaningful digital experiences to inspire change.</desc>
  <g id="Page-1" stroke="none" stroke-width="1" fill="none" fill-rule="evenodd">
    <g id="LOGO" fill="currentColor">
      <g id="Group-37" class="logo-paths">
        <polygon id="Fill-1" class="pixel" points="30 35 34 35 34 31 30 31"></polygon>
        <polygon id="Fill-2" points="13.8114101 58.2593435 13.210151 59 9 55.2776428 9.60125912 54.5369863 11.3470945 56.0801758 16.2810742 50 17 50.6355131 12.0655747 56.716154"></polygon>
        <polygon id="Fill-3" points="5.88082948 48.9666989 11.5989314 45.2198686 10.5118174 43.5196802 11.3046274 43 14 47.2142675 13.2067373 47.7339478 12.1196233 46.0333011 6.40061577 49.7796731 7.48863533 51.4803198 6.69537263 52 4 47.7857325 4.7932627 47.2665105"></polygon>
        <polygon id="Fill-4" points="9.42975207 36 9.69731976 36.9420769 4.09711885 42.5323824 10.7328889 40.5879283 11 41.5295414 2.57024793 44 2.30268024 43.0579231 7.90288115 37.4680814 1.26756769 39.4125355 1 38.4704586"></polygon>
        <polygon id="Fill-5" points="0.0587564767 30.091118 4.37409326 32.5378532 0.0107253886 34.9093551 0 36 5.41865285 33.0554955 8.98974093 33.0919292 9 32.0921319 5.44103627 32.0556983 0.0699481865 29"></polygon>
        <path d="M2.54177536,16.7077535 L1.62974638,18.3106354 L4.58463043,20.008309 L5.49665942,18.4054271 C6.15799275,17.2435521 5.73297826,16.4427882 4.91934058,15.9751493 C4.10525362,15.5079618 3.2031087,15.5463299 2.54177536,16.7077535 M6.31074638,18.8726146 L5.39826812,20.4759479 L8.31047101,22.1487951 L7.83918116,22.9766424 L0.344369565,18.6717465 L1.72813768,16.2401146 C2.72013768,14.4977535 4.07515217,14.3627882 5.40321014,15.1256354 C6.73036957,15.8884826 7.3022971,17.1307049 6.31074638,18.8726146" id="Fill-6"></path>
        <polygon id="Fill-8" points="8.36348551 9.43420833 13.0188768 14.3566042 14.4579058 12.9825764 15.1039638 13.6650764 11.5362681 17.0703542 10.8906594 16.3878542 12.3301377 15.0138264 7.67519565 10.0914306 6.23571739 11.4654583 5.5901087 10.7829583 9.15735507 7.37768056 9.80296377 8.06018056"></polygon>
        <polygon id="Fill-10" points="16.8635058 2.74272917 17.7997957 2.26967361 17.5005783 7.10765972 21.8410275 9.93651389 20.871042 10.4258194 17.2485348 8.038875 16.9924478 12.3839444 16.0224623 12.87325 16.3544768 7.68634028 12.3123464 5.03984722 13.2486362 4.56724306 16.6226942 6.78807639"></polygon>
        <polygon id="Fill-12" points="23.9350101 8.55345833 27.8333725 7.86509028 27.9960101 8.79224306 23.1618072 9.64581944 21.6675174 1.10463889 26.5008217 0.250611111 26.6634594 1.17821528 22.7650971 1.86658333 23.2601986 4.69724306 26.3085319 4.1591875 26.4707203 5.08634028 23.422387 5.62484722"></polygon>
        <polygon id="Fill-14" points="31.1157333 0.167961806 32.058313 0.281260417 31.1440377 7.95803125 35.0747478 8.43018403 34.9633275 9.36501042 30.0900377 8.77910764"></polygon>
        <path d="M48.9853913,9.92504861 L48.2112899,9.373 C48.7948986,8.37588194 48.5145507,7.44602083 47.7305652,6.88675 C46.8958116,6.29091667 45.8395652,6.37261806 45.082087,7.44376389 L43.3254203,9.92865972 C42.5683913,10.9993542 42.8393043,12.0285208 43.674058,12.6239028 C44.4580435,13.1840764 45.4244348,13.1439028 46.1688841,12.2618889 L46.9429855,12.8139375 C45.8984203,14.1207083 44.418058,14.3102917 43.1313333,13.3917153 C41.7839565,12.4302569 41.5018116,10.8612292 42.5513188,9.37615972 L44.3079855,6.89126389 C45.357942,5.40619444 46.925913,5.15702778 48.2732899,6.1189375 C49.5600145,7.03751389 49.8691159,8.50407639 48.9853913,9.92504861" id="Fill-16"></path>
        <path d="M54.0160623,16.1342639 C55.0561348,15.3384653 55.1024101,14.2745417 54.4824101,13.456625 C53.8624101,12.6382569 52.8290768,12.4008264 51.7890043,13.196625 L49.3754971,15.0432569 C48.3349754,15.8395069 48.2887,16.9029792 48.9091493,17.7213472 C49.5295986,18.5397153 50.5624826,18.7771458 51.6021058,17.9813472 L54.0160623,16.1342639 Z M52.1776275,18.7401319 C50.7354536,19.8442292 49.1652362,19.6131181 48.1633522,18.2919028 C47.1623667,16.9711389 47.3578014,15.3881181 48.7999754,14.2844722 L51.2134826,12.4373889 C52.6561058,11.3337431 54.2267725,11.5648542 55.2282072,12.8860694 C56.2291928,14.2068333 56.033758,15.7898542 54.5915841,16.8935 L52.1776275,18.7401319 Z" id="Fill-18"></path>
        <polygon id="Fill-20" points="59.0067928 19.3980312 59.3298217 20.294941 52.0924449 22.9242812 53.4389232 26.6653924 52.5578942 26.9854271 50.888387 22.3478576"></polygon>
        <polygon id="Fill-22" points="61.5596203 28.7958576 61.6040986 29.7487396 53.9156493 30.1116563 54.1012 34.0852326 53.1649101 34.1294688 52.9348812 29.202559"></polygon>
        <polygon id="Fill-24" points="53.6009768 37.2038785 52.6314406 41.0600937 51.7225565 40.829434 52.9252667 36.0478715 61.2948174 38.1721076 60.0930058 42.9536701 59.1841217 42.7230104 60.1532087 38.8667951 57.3798319 38.1626285 56.6214551 41.1779062 55.712571 40.9472465 56.4709478 37.9319687"></polygon>
        <path d="M53.4788188,50.2716771 L53.9667319,49.453309 C55.001413,49.9606701 55.9022101,49.6072326 56.3968623,48.7780312 C56.9225145,47.8960174 56.7589783,46.8442813 55.637587,46.1694549 L53.0353841,44.602684 C51.9139928,43.9274063 50.9139058,44.2785868 50.3878043,45.1610521 C49.8936014,45.9902535 50.0081667,46.9544201 50.9413116,47.6319549 L50.4533986,48.4503229 C49.0759203,47.505566 48.7726594,46.0376493 49.5840507,44.6771632 C50.4331812,43.2525799 51.9683551,42.8481354 53.5232971,43.7838646 L56.1259493,45.3510868 C57.6813406,46.286816 58.0497464,47.8382396 57.2006159,49.2623715 C56.3892246,50.6228576 54.9578333,51.0467118 53.4788188,50.2716771" id="Fill-26"></path>
        <polygon id="Fill-28" points="52.6120768 53.8625208 53.243758 54.5585625 49.1342362 58.3231458 48.5030043 57.6271042 50.2066565 56.0662014 45.0224681 50.353875 45.7242362 49.7110972 50.9084246 55.4234236"></polygon>
        <polygon id="Fill-30" points="42.5560362 61.0728264 39.646529 54.9434167 37.8539203 55.8024097 37.450471 54.9519931 41.8920072 52.8236944 42.2959058 53.6736597 40.5037464 54.5326528 43.4132536 60.6616111 45.205413 59.8030694 45.6088623 60.6530347 41.1673261 62.7813333 40.7638768 61.9313681"></polygon>
        <polygon id="Fill-32" points="32.0982986 64.8518993 31.1480812 64.9999549 32.5682406 56.0028715 33.6406609 55.836309 37.7039072 63.9793646 36.7532406 64.1274201 33.3064 57.2292951"></polygon>
        <polygon id="Fill-34" points="27.4811406 57.0980312 23.5603145 56.5450799 23.6906043 55.6125104 28.5517638 56.2981701 27.3517493 64.8876493 22.4905899 64.2019896 22.6208797 63.2694201 26.5417058 63.8223715 26.9393145 60.9754618 23.8734594 60.5430313 24.0037493 59.6104618 27.0691551 60.0428924"></polygon>
      </g>
    </g>
  </g>
</svg>
