<svg xmlns="http://www.w3.org/2000/svg" xmlns:xlink="http://www.w3.org/1999/xlink" version="1.1" viewBox="0 0 65 65"><title>Tiny Pixel Collective</title><desc>Creating meaningful digital experiences to inspire change.</desc><g id="Page-1" fill="none" fill-rule="evenodd" stroke="none" stroke-width="1"><g id="LOGO" fill="currentColor"><g id="Group-37" class="logo-paths"><polygon id="Fill-1" points="30 35 34 35 34 31 30 31" class="pixel"/><polygon id="Fill-2" points="13.811 58.259 13.21 59 9 55.278 9.601 54.537 11.347 56.08 16.281 50 17 50.636 12.066 56.716"/><polygon id="Fill-3" points="5.881 48.967 11.599 45.22 10.512 43.52 11.305 43 14 47.214 13.207 47.734 12.12 46.033 6.401 49.78 7.489 51.48 6.695 52 4 47.786 4.793 47.267"/><polygon id="Fill-4" points="9.43 36 9.697 36.942 4.097 42.532 10.733 40.588 11 41.53 2.57 44 2.303 43.058 7.903 37.468 1.268 39.413 1 38.47"/><polygon id="Fill-5" points=".059 30.091 4.374 32.538 .011 34.909 0 36 5.419 33.055 8.99 33.092 9 32.092 5.441 32.056 .07 29"/><path id="Fill-6" d="M2.54177536,16.7077535 L1.62974638,18.3106354 L4.58463043,20.008309 L5.49665942,18.4054271 C6.15799275,17.2435521 5.73297826,16.4427882 4.91934058,15.9751493 C4.10525362,15.5079618 3.2031087,15.5463299 2.54177536,16.7077535 M6.31074638,18.8726146 L5.39826812,20.4759479 L8.31047101,22.1487951 L7.83918116,22.9766424 L0.344369565,18.6717465 L1.72813768,16.2401146 C2.72013768,14.4977535 4.07515217,14.3627882 5.40321014,15.1256354 C6.73036957,15.8884826 7.3022971,17.1307049 6.31074638,18.8726146"/><polygon id="Fill-8" points="8.363 9.434 13.019 14.357 14.458 12.983 15.104 13.665 11.536 17.07 10.891 16.388 12.33 15.014 7.675 10.091 6.236 11.465 5.59 10.783 9.157 7.378 9.803 8.06"/><polygon id="Fill-10" points="16.864 2.743 17.8 2.27 17.501 7.108 21.841 9.937 20.871 10.426 17.249 8.039 16.992 12.384 16.022 12.873 16.354 7.686 12.312 5.04 13.249 4.567 16.623 6.788"/><polygon id="Fill-12" points="23.935 8.553 27.833 7.865 27.996 8.792 23.162 9.646 21.668 1.105 26.501 .251 26.663 1.178 22.765 1.867 23.26 4.697 26.309 4.159 26.471 5.086 23.422 5.625"/><polygon id="Fill-14" points="31.116 .168 32.058 .281 31.144 7.958 35.075 8.43 34.963 9.365 30.09 8.779"/><path id="Fill-16" d="M48.9853913,9.92504861 L48.2112899,9.373 C48.7948986,8.37588194 48.5145507,7.44602083 47.7305652,6.88675 C46.8958116,6.29091667 45.8395652,6.37261806 45.082087,7.44376389 L43.3254203,9.92865972 C42.5683913,10.9993542 42.8393043,12.0285208 43.674058,12.6239028 C44.4580435,13.1840764 45.4244348,13.1439028 46.1688841,12.2618889 L46.9429855,12.8139375 C45.8984203,14.1207083 44.418058,14.3102917 43.1313333,13.3917153 C41.7839565,12.4302569 41.5018116,10.8612292 42.5513188,9.37615972 L44.3079855,6.89126389 C45.357942,5.40619444 46.925913,5.15702778 48.2732899,6.1189375 C49.5600145,7.03751389 49.8691159,8.50407639 48.9853913,9.92504861"/><path id="Fill-18" d="M54.0160623,16.1342639 C55.0561348,15.3384653 55.1024101,14.2745417 54.4824101,13.456625 C53.8624101,12.6382569 52.8290768,12.4008264 51.7890043,13.196625 L49.3754971,15.0432569 C48.3349754,15.8395069 48.2887,16.9029792 48.9091493,17.7213472 C49.5295986,18.5397153 50.5624826,18.7771458 51.6021058,17.9813472 L54.0160623,16.1342639 Z M52.1776275,18.7401319 C50.7354536,19.8442292 49.1652362,19.6131181 48.1633522,18.2919028 C47.1623667,16.9711389 47.3578014,15.3881181 48.7999754,14.2844722 L51.2134826,12.4373889 C52.6561058,11.3337431 54.2267725,11.5648542 55.2282072,12.8860694 C56.2291928,14.2068333 56.033758,15.7898542 54.5915841,16.8935 L52.1776275,18.7401319 Z"/><polygon id="Fill-20" points="59.007 19.398 59.33 20.295 52.092 22.924 53.439 26.665 52.558 26.985 50.888 22.348"/><polygon id="Fill-22" points="61.56 28.796 61.604 29.749 53.916 30.112 54.101 34.085 53.165 34.129 52.935 29.203"/><polygon id="Fill-24" points="53.601 37.204 52.631 41.06 51.723 40.829 52.925 36.048 61.295 38.172 60.093 42.954 59.184 42.723 60.153 38.867 57.38 38.163 56.621 41.178 55.713 40.947 56.471 37.932"/><path id="Fill-26" d="M53.4788188,50.2716771 L53.9667319,49.453309 C55.001413,49.9606701 55.9022101,49.6072326 56.3968623,48.7780312 C56.9225145,47.8960174 56.7589783,46.8442813 55.637587,46.1694549 L53.0353841,44.602684 C51.9139928,43.9274063 50.9139058,44.2785868 50.3878043,45.1610521 C49.8936014,45.9902535 50.0081667,46.9544201 50.9413116,47.6319549 L50.4533986,48.4503229 C49.0759203,47.505566 48.7726594,46.0376493 49.5840507,44.6771632 C50.4331812,43.2525799 51.9683551,42.8481354 53.5232971,43.7838646 L56.1259493,45.3510868 C57.6813406,46.286816 58.0497464,47.8382396 57.2006159,49.2623715 C56.3892246,50.6228576 54.9578333,51.0467118 53.4788188,50.2716771"/><polygon id="Fill-28" points="52.612 53.863 53.244 54.559 49.134 58.323 48.503 57.627 50.207 56.066 45.022 50.354 45.724 49.711 50.908 55.423"/><polygon id="Fill-30" points="42.556 61.073 39.647 54.943 37.854 55.802 37.45 54.952 41.892 52.824 42.296 53.674 40.504 54.533 43.413 60.662 45.205 59.803 45.609 60.653 41.167 62.781 40.764 61.931"/><polygon id="Fill-32" points="32.098 64.852 31.148 65 32.568 56.003 33.641 55.836 37.704 63.979 36.753 64.127 33.306 57.229"/><polygon id="Fill-34" points="27.481 57.098 23.56 56.545 23.691 55.613 28.552 56.298 27.352 64.888 22.491 64.202 22.621 63.269 26.542 63.822 26.939 60.975 23.873 60.543 24.004 59.61 27.069 60.043"/></g></g></g></svg>