<?xml version="1.0" encoding="UTF-8"?>
<svg viewBox="0 0 1066 540" version="1.1" xmlns="http://www.w3.org/2000/svg" xmlns:xlink="http://www.w3.org/1999/xlink">
  <g id="Page-1" stroke="none" stroke-width="1" fill="none" fill-rule="evenodd">
    <path d="M0,261 L0,0 L30.0333333,0 C65.3666667,0 84.4466667,7.10204082 94.6933333,26.9877551 C104.586667,46.8734694 106,79.5428571 106,130.677551 C106,181.812245 104.586667,214.126531 94.6933333,234.012245 C84.4466667,253.897959 65.3666667,261 30.0333333,261 L0,261 Z M37.6,222 C50.92,222 58.48,220.581888 62.44,207.818882 C64.24,201.791908 65.68,192.574181 66.04,180.165703 C66.4,167.757225 66.4,151.094412 66.4,129.822736 C66.4,108.55106 66.4,91.8882466 66.04,79.4797688 C65.68,67.4258189 64.24,58.2080925 62.44,51.8265896 C58.48,39.4181118 50.92,38 37.6,38 L37.6,222 Z M199.607973,261 L179.700997,150.918367 L169.392027,150.918367 L169.392027,261 L131,261 L131,0 L169.392027,0 C215.249169,0 234.800664,25.922449 234.800664,75.2816327 C234.800664,101.204082 228.046512,124.640816 213.471761,134.583673 L238,261 L199.607973,261 Z M169.6,115 C175,115 182.2,114.293578 187.96,109.348624 C193.72,104.40367 198.4,94.8669725 198.4,76.5 C198.4,58.1330275 193.72,48.2431193 187.96,43.2981651 C182.2,38.353211 175,38 169.6,38 L169.6,115 Z M259,0 L347,0 L347,39.4163265 L297.477733,39.4163265 L297.477733,107.95102 L333.105263,107.95102 L333.105263,149.853061 L297.477733,149.853061 L297.477733,221.583673 L347,221.583673 L347,261 L259,261 L259,0 Z M358,261 L397.194915,0 L443.805085,0 L483,261 L445.923729,261 L438.861582,207.734694 L402.138418,207.734694 L395.076271,261 L358,261 Z M423.16,84.7370518 L422.08,78 L419.92,78 L418.84,84.7370518 L407.68,167 L434.32,167 L423.16,84.7370518 Z M565.358911,261 L540.935644,96.9428571 L539.519802,85.9346939 L537.39604,85.9346939 L537.39604,261 L502,261 L502,0 L548.722772,0 L571.376238,119.314286 L573.14604,133.163265 L573.85396,133.163265 L575.623762,119.314286 L598.277228,0 L645,0 L645,261 L609.60396,261 L609.60396,85.9346939 L607.480198,85.9346939 L606.064356,96.9428571 L581.641089,261 L565.358911,261 Z M0,538 L0,277 L30.0333333,277 C65.3666667,277 84.4466667,284.102041 94.6933333,303.987755 C104.586667,323.873469 106,356.542857 106,407.677551 C106,458.812245 104.586667,491.126531 94.6933333,511.012245 C84.4466667,530.897959 65.3666667,538 30.0333333,538 L0,538 Z M37.6,499 C50.92,499 58.48,497.581888 62.44,484.818882 C64.24,478.791908 65.68,469.574181 66.04,457.165703 C66.4,444.757225 66.4,428.094412 66.4,406.822736 C66.4,385.55106 66.4,368.888247 66.04,356.479769 C65.68,344.425819 64.24,335.208092 62.44,328.82659 C58.48,316.418112 50.92,315 37.6,315 L37.6,499 Z M131,277 L219,277 L219,316.416327 L169.477733,316.416327 L169.477733,384.95102 L205.105263,384.95102 L205.105263,426.853061 L169.477733,426.853061 L169.477733,498.583673 L219,498.583673 L219,538 L131,538 L131,277 Z M331,316.416327 L278.241245,316.416327 L278.241245,384.95102 L313.649805,384.95102 L313.649805,424.367347 L278.241245,424.367347 L278.241245,538 L240,538 L240,277 L331,277 L331,316.416327 Z M347,277 L435,277 L435,316.416327 L385.477733,316.416327 L385.477733,384.95102 L421.105263,384.95102 L421.105263,426.853061 L385.477733,426.853061 L385.477733,498.583673 L435,498.583673 L435,538 L347,538 L347,277 Z M496.533333,401.995918 L493.333333,389.922449 L491.2,389.922449 L491.2,538 L456,538 L456,277 L490.133333,277 L527.466667,413.004082 L530.666667,425.077551 L532.8,425.077551 L532.8,277 L568,277 L568,538 L533.866667,538 L496.533333,401.995918 Z M596,538 L596,277 L626.033333,277 C661.366667,277 680.446667,284.102041 690.693333,303.987755 C700.586667,323.873469 702,356.542857 702,407.677551 C702,458.812245 700.586667,491.126531 690.693333,511.012245 C680.446667,530.897959 661.366667,538 626.033333,538 L596,538 Z M633.6,499 C646.92,499 654.48,497.581888 658.44,484.818882 C660.24,478.791908 661.68,469.574181 662.04,457.165703 C662.4,444.757225 662.4,428.094412 662.4,406.822736 C662.4,385.55106 662.4,368.888247 662.04,356.479769 C661.68,344.425819 660.24,335.208092 658.44,328.82659 C654.48,316.418112 646.92,315 633.6,315 L633.6,499 Z M727,277 L815,277 L815,316.416327 L765.477733,316.416327 L765.477733,384.95102 L801.105263,384.95102 L801.105263,426.853061 L765.477733,426.853061 L765.477733,498.583673 L815,498.583673 L815,538 L727,538 L727,277 Z M904.607973,538 L884.700997,427.918367 L874.392027,427.918367 L874.392027,538 L836,538 L836,277 L874.392027,277 C920.249169,277 939.800664,302.922449 939.800664,352.281633 C939.800664,378.204082 933.046512,401.640816 918.471761,411.583673 L943,538 L904.607973,538 Z M874.6,392 C880,392 887.2,391.293578 892.96,386.348624 C898.72,381.40367 903.4,371.866972 903.4,353.5 C903.4,335.133028 898.72,325.243119 892.96,320.298165 C887.2,315.353211 880,315 874.6,315 L874.6,392 Z M1028.36482,346.616775 C1028.36482,338.116413 1028.00977,328.553506 1025.52443,321.11569 C1023.03909,314.032055 1019.13355,309.073511 1013.09772,309.073511 C1003.15635,309.427693 999.960912,319.698963 999.960912,334.928777 C999.960912,343.783321 1003.86645,352.992046 1009.54723,362.909134 C1015.22801,372.826223 1022.68404,383.097493 1030.14007,394.077127 C1039.01629,407.181851 1047.89251,420.640756 1054.63844,433.745481 C1061.38436,446.850205 1066,460.30911 1066,474.47638 C1066,491.831284 1063.15961,508.123644 1054.99349,520.165823 C1046.82736,532.208002 1033.69055,540 1012.74267,540 C988.2443,540 974.397394,530.791275 966.586319,516.624006 C958.775244,502.456736 957,483.685105 957,464.205109 L994.635179,460.663292 C994.635179,471.642926 994.990228,482.622559 997.830619,490.768739 C1000.31596,499.269101 1004.57655,504.936009 1012.74267,504.936009 C1024.10423,504.936009 1028.36482,492.89383 1028.36482,476.247288 C1028.36482,467.746927 1024.10423,457.829838 1018.42345,447.558568 C1015.22801,442.600024 1012.03257,437.287298 1008.48208,431.974572 C1001.02606,421.34912 992.859935,409.306941 984.338762,396.202217 C975.81759,383.097493 969.42671,369.638587 965.521173,355.8255 C963.390879,349.096047 962.325733,342.012412 962.325733,334.928777 C962.325733,320.761508 965.521173,305.531694 973.687296,293.843697 C981.85342,282.509881 994.28013,274.363701 1012.38762,274.00952 C1035.4658,273.655338 1048.95765,283.218245 1056.41368,297.031332 C1063.86971,311.198601 1066,328.553506 1066,343.074957 L1028.36482,346.616775 Z" id="DREAMDEFENDERS" fill="#000000" fill-rule="nonzero"></path>
  </g>
</svg>
