<svg xmlns="http://www.w3.org/2000/svg" viewBox="0 0 196 140.173"><g><path fill="#fff" d="M687.3-4067.055a9.062,9.062,0,0,0-2.681-.395q-45.411.005-90.822,0H504.968a27.818,27.818,0,0,0-2.837.021c-1.56.157-3.047.523-3.808,2.149a5.632,5.632,0,0,0-.326,2.47q-.006,37.422,0,74.843a6.934,6.934,0,0,0,.8,3.207,12.132,12.132,0,0,0,5.574,5.135c6.274,3.316,12.445,6.828,18.657,10.259,5.868,3.242,11.724,6.5,17.606,9.723,5.8,3.17,11.527,6.468,17.355,9.585,5.978,3.2,11.869,6.563,17.8,9.858,5.254,2.921,10.469,5.913,15.77,8.745a9.126,9.126,0,0,0,9.018-.093c.885-.475,1.726-1.036,2.6-1.546q7.118-4.17,14.239-8.333c5.37-3.151,10.721-6.333,16.1-9.461,5.532-3.215,11.016-6.516,16.566-9.7,7.7-4.42,15.295-9.011,22.945-13.51,4.079-2.4,8.245-4.657,12.243-7.179a8.892,8.892,0,0,0,4.452-7.925c-.03-4.729.022-9.46.029-14.19q.029-29.695.05-59.39C689.8-4063.167,688.879-4066.573,687.3-4067.055Z" transform="translate(2 2) translate(-497.996 4067.474)"/></g><g><path d="M524.307-4008.8c-.123-.145-.248-.282-.375-.409q-.114-.116-.232-.22c-.078-.07-.157-.138-.237-.2l-.08-.063c-.053-.042-.107-.082-.162-.12l-.082-.058c-.055-.038-.11-.075-.164-.109q-.207-.133-.421-.242a5.815,5.815,0,0,0-.786-.333c-.06-.021-.119-.041-.179-.058-1.793-.55-3.809-.3-5.785-.288v12.488c1.261,0,2.456.078,3.623.042q.217-.007.432-.019c.073,0,.146-.008.218-.014.144-.011.287-.023.43-.039a5.691,5.691,0,0,0,3.446-1.494,5.294,5.294,0,0,0,1.264-2A6.548,6.548,0,0,0,524.307-4008.8Zm0,0c-.123-.145-.248-.282-.375-.409q-.114-.116-.232-.22c-.078-.07-.157-.138-.237-.2l-.08-.063c-.053-.042-.107-.082-.162-.12l-.082-.058c-.055-.038-.11-.075-.164-.109q-.207-.133-.421-.242a5.815,5.815,0,0,0-.786-.333c-.06-.021-.119-.041-.179-.058-1.793-.55-3.809-.3-5.785-.288v12.488c1.261,0,2.456.078,3.623.042q.217-.007.432-.019c.073,0,.146-.008.218-.014.144-.011.287-.023.43-.039a5.691,5.691,0,0,0,3.446-1.494,5.294,5.294,0,0,0,1.264-2A6.548,6.548,0,0,0,524.307-4008.8Zm0,0c-.123-.145-.248-.282-.375-.409q-.114-.116-.232-.22c-.078-.07-.157-.138-.237-.2l-.08-.063c-.053-.042-.107-.082-.162-.12l-.082-.058c-.055-.038-.11-.075-.164-.109q-.207-.133-.421-.242a5.815,5.815,0,0,0-.786-.333c-.06-.021-.119-.041-.179-.058-1.793-.55-3.809-.3-5.785-.288v12.488c1.261,0,2.456.078,3.623.042q.217-.007.432-.019c.073,0,.146-.008.218-.014.144-.011.287-.023.43-.039a5.691,5.691,0,0,0,3.446-1.494,5.294,5.294,0,0,0,1.264-2A6.548,6.548,0,0,0,524.307-4008.8Zm0,0c-.123-.145-.248-.282-.375-.409q-.114-.116-.232-.22c-.078-.07-.157-.138-.237-.2l-.08-.063c-.053-.042-.107-.082-.162-.12l-.082-.058c-.055-.038-.11-.075-.164-.109q-.207-.133-.421-.242a5.815,5.815,0,0,0-.786-.333c-.06-.021-.119-.041-.179-.058-1.793-.55-3.809-.3-5.785-.288v12.488c1.261,0,2.456.078,3.623.042q.217-.007.432-.019c.073,0,.146-.008.218-.014.144-.011.287-.023.43-.039a5.691,5.691,0,0,0,3.446-1.494,5.294,5.294,0,0,0,1.264-2A6.548,6.548,0,0,0,524.307-4008.8Zm0,0c-.123-.145-.248-.282-.375-.409q-.114-.116-.232-.22c-.078-.07-.157-.138-.237-.2l-.08-.063c-.053-.042-.107-.082-.162-.12l-.082-.058c-.055-.038-.11-.075-.164-.109q-.207-.133-.421-.242a5.815,5.815,0,0,0-.786-.333c-.06-.021-.119-.041-.179-.058-1.793-.55-3.809-.3-5.785-.288v12.488c1.261,0,2.456.078,3.623.042q.217-.007.432-.019c.073,0,.146-.008.218-.014.144-.011.287-.023.43-.039a5.691,5.691,0,0,0,3.446-1.494,5.294,5.294,0,0,0,1.264-2A6.548,6.548,0,0,0,524.307-4008.8Zm0,0c-.123-.145-.248-.282-.375-.409q-.114-.116-.232-.22c-.078-.07-.157-.138-.237-.2l-.08-.063c-.053-.042-.107-.082-.162-.12l-.082-.058c-.055-.038-.11-.075-.164-.109q-.207-.133-.421-.242a5.815,5.815,0,0,0-.786-.333c-.06-.021-.119-.041-.179-.058-1.793-.55-3.809-.3-5.785-.288v12.488c1.261,0,2.456.078,3.623.042q.217-.007.432-.019c.073,0,.146-.008.218-.014.144-.011.287-.023.43-.039a5.691,5.691,0,0,0,3.446-1.494,5.294,5.294,0,0,0,1.264-2A6.548,6.548,0,0,0,524.307-4008.8Zm0,0c-.123-.145-.248-.282-.375-.409q-.114-.116-.232-.22c-.078-.07-.157-.138-.237-.2l-.08-.063c-.053-.042-.107-.082-.162-.12l-.082-.058c-.055-.038-.11-.075-.164-.109q-.207-.133-.421-.242a5.815,5.815,0,0,0-.786-.333c-.06-.021-.119-.041-.179-.058-1.793-.55-3.809-.3-5.785-.288v12.488c1.261,0,2.456.078,3.623.042q.217-.007.432-.019c.073,0,.146-.008.218-.014.144-.011.287-.023.43-.039a5.691,5.691,0,0,0,3.446-1.494,5.294,5.294,0,0,0,1.264-2A6.548,6.548,0,0,0,524.307-4008.8Zm93.727-1.453a6.194,6.194,0,0,0-.713-.294c-.057-.021-.115-.04-.174-.057-.018-.007-.036-.011-.054-.017-.068-.021-.136-.041-.2-.059l-.2-.052-.169-.038-.186-.038-.158-.028c-.145-.024-.289-.044-.435-.062-.125-.013-.25-.026-.375-.036-.073-.006-.146-.01-.22-.014-1.227-.072-2.475.049-3.719.05v12.518c1.51,0,2.972.09,4.418-.017.183-.014.363-.033.539-.061.133-.021.264-.045.392-.072.085-.019.17-.04.254-.061s.167-.045.249-.07.164-.051.243-.079l.119-.043a5.875,5.875,0,0,0,.575-.25q.222-.112.432-.24c.1-.065.208-.132.308-.2a5.693,5.693,0,0,0,.745-.629,6.29,6.29,0,0,0,1.7-3.367A6.263,6.263,0,0,0,618.034-4010.248Zm-93.727,1.453c-.123-.145-.248-.282-.375-.409q-.114-.116-.232-.22c-.078-.07-.157-.138-.237-.2l-.08-.063c-.053-.042-.107-.082-.162-.12l-.082-.058c-.055-.038-.11-.075-.164-.109q-.207-.133-.421-.242a5.815,5.815,0,0,0-.786-.333c-.06-.021-.119-.041-.179-.058-1.793-.55-3.809-.3-5.785-.288v12.488c1.261,0,2.456.078,3.623.042q.217-.007.432-.019c.073,0,.146-.008.218-.014.144-.011.287-.023.43-.039a5.691,5.691,0,0,0,3.446-1.494,5.294,5.294,0,0,0,1.264-2A6.548,6.548,0,0,0,524.307-4008.8Zm93.727-1.453a6.194,6.194,0,0,0-.713-.294c-.057-.021-.115-.04-.174-.057-.018-.007-.036-.011-.054-.017-.068-.021-.136-.041-.2-.059l-.2-.052-.169-.038-.186-.038-.158-.028c-.145-.024-.289-.044-.435-.062-.125-.013-.25-.026-.375-.036-.073-.006-.146-.01-.22-.014-1.227-.072-2.475.049-3.719.05v12.518c1.51,0,2.972.09,4.418-.017.183-.014.363-.033.539-.061.133-.021.264-.045.392-.072.085-.019.17-.04.254-.061s.167-.045.249-.07.164-.051.243-.079l.119-.043a5.875,5.875,0,0,0,.575-.25q.222-.112.432-.24c.1-.065.208-.132.308-.2a5.693,5.693,0,0,0,.745-.629,6.29,6.29,0,0,0,1.7-3.367A6.263,6.263,0,0,0,618.034-4010.248Zm-93.727,1.453c-.123-.145-.248-.282-.375-.409q-.114-.116-.232-.22c-.078-.07-.157-.138-.237-.2l-.08-.063c-.053-.042-.107-.082-.162-.12l-.082-.058c-.055-.038-.11-.075-.164-.109q-.207-.133-.421-.242a5.815,5.815,0,0,0-.786-.333c-.06-.021-.119-.041-.179-.058-1.793-.55-3.809-.3-5.785-.288v12.488c1.261,0,2.456.078,3.623.042q.217-.007.432-.019c.073,0,.146-.008.218-.014.144-.011.287-.023.43-.039a5.691,5.691,0,0,0,3.446-1.494,5.294,5.294,0,0,0,1.264-2A6.548,6.548,0,0,0,524.307-4008.8Zm93.727-1.453a6.194,6.194,0,0,0-.713-.294c-.057-.021-.115-.04-.174-.057-.018-.007-.036-.011-.054-.017-.068-.021-.136-.041-.2-.059l-.2-.052-.169-.038-.186-.038-.158-.028c-.145-.024-.289-.044-.435-.062-.125-.013-.25-.026-.375-.036-.073-.006-.146-.01-.22-.014-1.227-.072-2.475.049-3.719.05v12.518c1.51,0,2.972.09,4.418-.017.183-.014.363-.033.539-.061.133-.021.264-.045.392-.072.085-.019.17-.04.254-.061s.167-.045.249-.07.164-.051.243-.079l.119-.043a5.875,5.875,0,0,0,.575-.25q.222-.112.432-.24c.1-.065.208-.132.308-.2a5.693,5.693,0,0,0,.745-.629,6.29,6.29,0,0,0,1.7-3.367A6.263,6.263,0,0,0,618.034-4010.248Zm40.015.34a2.753,2.753,0,0,0-.563-.424,3.578,3.578,0,0,0-.838-.344,7.326,7.326,0,0,0-.777-.167,29.172,29.172,0,0,0-4.434-.075c-.093,0-.186,0-.278,0l-.142,0c-.186-.006-.373-.018-.56-.032v6.188c1.746-.163,3.427.107,5.071-.087l.159-.021c.214-.03.425-.067.637-.115.106-.025.212-.05.317-.08a3.238,3.238,0,0,0,1.018-.482,3.248,3.248,0,0,0,.277-.226l.085-.082a2.8,2.8,0,0,0,.825-2.025A2.77,2.77,0,0,0,658.049-4009.908ZM524.307-4008.8c-.123-.145-.248-.282-.375-.409q-.114-.116-.232-.22c-.078-.07-.157-.138-.237-.2l-.08-.063c-.053-.042-.107-.082-.162-.12l-.082-.058c-.055-.038-.11-.075-.164-.109q-.207-.133-.421-.242a5.815,5.815,0,0,0-.786-.333c-.06-.021-.119-.041-.179-.058-1.793-.55-3.809-.3-5.785-.288v12.488c1.261,0,2.456.078,3.623.042q.217-.007.432-.019c.073,0,.146-.008.218-.014.144-.011.287-.023.43-.039a5.691,5.691,0,0,0,3.446-1.494,5.294,5.294,0,0,0,1.264-2A6.548,6.548,0,0,0,524.307-4008.8Zm93.727-1.453a6.194,6.194,0,0,0-.713-.294c-.057-.021-.115-.04-.174-.057-.018-.007-.036-.011-.054-.017-.068-.021-.136-.041-.2-.059l-.2-.052-.169-.038-.186-.038-.158-.028c-.145-.024-.289-.044-.435-.062-.125-.013-.25-.026-.375-.036-.073-.006-.146-.01-.22-.014-1.227-.072-2.475.049-3.719.05v12.518c1.51,0,2.972.09,4.418-.017.183-.014.363-.033.539-.061.133-.021.264-.045.392-.072.085-.019.17-.04.254-.061s.167-.045.249-.07.164-.051.243-.079l.119-.043a5.875,5.875,0,0,0,.575-.25q.222-.112.432-.24c.1-.065.208-.132.308-.2a5.693,5.693,0,0,0,.745-.629,6.29,6.29,0,0,0,1.7-3.367A6.263,6.263,0,0,0,618.034-4010.248Zm40.015.34a2.753,2.753,0,0,0-.563-.424,3.578,3.578,0,0,0-.838-.344,7.326,7.326,0,0,0-.777-.167,29.172,29.172,0,0,0-4.434-.075c-.093,0-.186,0-.278,0l-.142,0c-.186-.006-.373-.018-.56-.032v6.188c1.746-.163,3.427.107,5.071-.087l.159-.021c.214-.03.425-.067.637-.115.106-.025.212-.05.317-.08a3.238,3.238,0,0,0,1.018-.482,3.248,3.248,0,0,0,.277-.226l.085-.082a2.8,2.8,0,0,0,.825-2.025A2.77,2.77,0,0,0,658.049-4009.908ZM524.307-4008.8c-.123-.145-.248-.282-.375-.409q-.114-.116-.232-.22c-.078-.07-.157-.138-.237-.2l-.08-.063c-.053-.042-.107-.082-.162-.12l-.082-.058c-.055-.038-.11-.075-.164-.109q-.207-.133-.421-.242a5.815,5.815,0,0,0-.786-.333c-.06-.021-.119-.041-.179-.058-1.793-.55-3.809-.3-5.785-.288v12.488c1.261,0,2.456.078,3.623.042q.217-.007.432-.019c.073,0,.146-.008.218-.014.144-.011.287-.023.43-.039a5.691,5.691,0,0,0,3.446-1.494,5.294,5.294,0,0,0,1.264-2A6.548,6.548,0,0,0,524.307-4008.8Zm93.727-1.453a6.194,6.194,0,0,0-.713-.294c-.057-.021-.115-.04-.174-.057-.018-.007-.036-.011-.054-.017-.068-.021-.136-.041-.2-.059l-.2-.052-.169-.038-.186-.038-.158-.028c-.145-.024-.289-.044-.435-.062-.125-.013-.25-.026-.375-.036-.073-.006-.146-.01-.22-.014-1.227-.072-2.475.049-3.719.05v12.518c1.51,0,2.972.09,4.418-.017.183-.014.363-.033.539-.061.133-.021.264-.045.392-.072.085-.019.17-.04.254-.061s.167-.045.249-.07.164-.051.243-.079l.119-.043a5.875,5.875,0,0,0,.575-.25q.222-.112.432-.24c.1-.065.208-.132.308-.2a5.693,5.693,0,0,0,.745-.629,6.29,6.29,0,0,0,1.7-3.367A6.263,6.263,0,0,0,618.034-4010.248Zm40.015.34a2.753,2.753,0,0,0-.563-.424,3.578,3.578,0,0,0-.838-.344,7.326,7.326,0,0,0-.777-.167,29.172,29.172,0,0,0-4.434-.075c-.093,0-.186,0-.278,0l-.142,0c-.186-.006-.373-.018-.56-.032v6.188c1.746-.163,3.427.107,5.071-.087l.159-.021c.214-.03.425-.067.637-.115.106-.025.212-.05.317-.08a3.238,3.238,0,0,0,1.018-.482,3.248,3.248,0,0,0,.277-.226l.085-.082a2.8,2.8,0,0,0,.825-2.025A2.77,2.77,0,0,0,658.049-4009.908ZM524.307-4008.8c-.123-.145-.248-.282-.375-.409q-.114-.116-.232-.22c-.078-.07-.157-.138-.237-.2l-.08-.063c-.053-.042-.107-.082-.162-.12l-.082-.058c-.055-.038-.11-.075-.164-.109q-.207-.133-.421-.242a5.815,5.815,0,0,0-.786-.333c-.06-.021-.119-.041-.179-.058-1.793-.55-3.809-.3-5.785-.288v12.488c1.261,0,2.456.078,3.623.042q.217-.007.432-.019c.073,0,.146-.008.218-.014.144-.011.287-.023.43-.039a5.691,5.691,0,0,0,3.446-1.494,5.294,5.294,0,0,0,1.264-2A6.548,6.548,0,0,0,524.307-4008.8Zm93.727-1.453a6.194,6.194,0,0,0-.713-.294c-.057-.021-.115-.04-.174-.057-.018-.007-.036-.011-.054-.017-.068-.021-.136-.041-.2-.059l-.2-.052-.169-.038-.186-.038-.158-.028c-.145-.024-.289-.044-.435-.062-.125-.013-.25-.026-.375-.036-.073-.006-.146-.01-.22-.014-1.227-.072-2.475.049-3.719.05v12.518c1.51,0,2.972.09,4.418-.017.183-.014.363-.033.539-.061.133-.021.264-.045.392-.072.085-.019.17-.04.254-.061s.167-.045.249-.07.164-.051.243-.079l.119-.043a5.875,5.875,0,0,0,.575-.25q.222-.112.432-.24c.1-.065.208-.132.308-.2a5.693,5.693,0,0,0,.745-.629,6.29,6.29,0,0,0,1.7-3.367A6.263,6.263,0,0,0,618.034-4010.248Zm40.015.34a2.753,2.753,0,0,0-.563-.424,3.578,3.578,0,0,0-.838-.344,7.326,7.326,0,0,0-.777-.167,29.172,29.172,0,0,0-4.434-.075c-.093,0-.186,0-.278,0l-.142,0c-.186-.006-.373-.018-.56-.032v6.188c1.746-.163,3.427.107,5.071-.087l.159-.021c.214-.03.425-.067.637-.115.106-.025.212-.05.317-.08a3.238,3.238,0,0,0,1.018-.482,3.248,3.248,0,0,0,.277-.226l.085-.082a2.8,2.8,0,0,0,.825-2.025A2.77,2.77,0,0,0,658.049-4009.908ZM524.307-4008.8c-.123-.145-.248-.282-.375-.409q-.114-.116-.232-.22c-.078-.07-.157-.138-.237-.2l-.08-.063c-.053-.042-.107-.082-.162-.12l-.082-.058c-.055-.038-.11-.075-.164-.109q-.207-.133-.421-.242a5.815,5.815,0,0,0-.786-.333c-.06-.021-.119-.041-.179-.058-1.793-.55-3.809-.3-5.785-.288v12.488c1.261,0,2.456.078,3.623.042q.217-.007.432-.019c.073,0,.146-.008.218-.014.144-.011.287-.023.43-.039a5.691,5.691,0,0,0,3.446-1.494,5.294,5.294,0,0,0,1.264-2A6.548,6.548,0,0,0,524.307-4008.8Zm10.969-29.471a9.823,9.823,0,0,0-2.809-6.387c-.2-.193-.4-.38-.615-.559q-.385-.322-.812-.614c-.189-.13-.385-.254-.587-.375q-.227-.135-.464-.263c-.105-.056-.213-.112-.321-.166s-.219-.107-.33-.16c-3.511-1.642-7.3-.933-11-.926a.155.155,0,0,0-.091.051c-.035.032-.077.074-.133.118v21.184c.05.013.1.028.143.043l.136.044a.883.883,0,0,0,.256.048h.483c.8,0,1.6.017,2.406.024,1.291.011,2.581.007,3.868-.071a13.213,13.213,0,0,0,1.5-.176c.141-.025.28-.052.419-.082l.208-.045q.312-.073.616-.163a9.81,9.81,0,0,0,3.577-1.894q.369-.31.7-.636C534.869-4031.7,535.561-4034.8,535.276-4038.266Zm82.758,28.018a6.194,6.194,0,0,0-.713-.294c-.057-.021-.115-.04-.174-.057-.018-.007-.036-.011-.054-.017-.068-.021-.136-.041-.2-.059l-.2-.052-.169-.038-.186-.038-.158-.028c-.145-.024-.289-.044-.435-.062-.125-.013-.25-.026-.375-.036-.073-.006-.146-.01-.22-.014-1.227-.072-2.475.049-3.719.05v12.518c1.51,0,2.972.09,4.418-.017.183-.014.363-.033.539-.061.133-.021.264-.045.392-.072.085-.019.17-.04.254-.061s.167-.045.249-.07.164-.051.243-.079l.119-.043a5.875,5.875,0,0,0,.575-.25q.222-.112.432-.24c.1-.065.208-.132.308-.2a5.693,5.693,0,0,0,.745-.629,6.29,6.29,0,0,0,1.7-3.367A6.263,6.263,0,0,0,618.034-4010.248Zm40.015.34a2.753,2.753,0,0,0-.563-.424,3.578,3.578,0,0,0-.838-.344,7.326,7.326,0,0,0-.777-.167,29.172,29.172,0,0,0-4.434-.075c-.093,0-.186,0-.278,0l-.142,0c-.186-.006-.373-.018-.56-.032v6.188c1.746-.163,3.427.107,5.071-.087l.159-.021c.214-.03.425-.067.637-.115.106-.025.212-.05.317-.08a3.238,3.238,0,0,0,1.018-.482,3.248,3.248,0,0,0,.277-.226l.085-.082a2.8,2.8,0,0,0,.825-2.025A2.77,2.77,0,0,0,658.049-4009.908ZM524.307-4008.8c-.123-.145-.248-.282-.375-.409q-.114-.116-.232-.22c-.078-.07-.157-.138-.237-.2l-.08-.063c-.053-.042-.107-.082-.162-.12l-.082-.058c-.055-.038-.11-.075-.164-.109q-.207-.133-.421-.242a5.815,5.815,0,0,0-.786-.333c-.06-.021-.119-.041-.179-.058-1.793-.55-3.809-.3-5.785-.288v12.488c1.261,0,2.456.078,3.623.042q.217-.007.432-.019c.073,0,.146-.008.218-.014.144-.011.287-.023.43-.039a5.691,5.691,0,0,0,3.446-1.494,5.294,5.294,0,0,0,1.264-2A6.548,6.548,0,0,0,524.307-4008.8Zm10.969-29.471a9.823,9.823,0,0,0-2.809-6.387c-.2-.193-.4-.38-.615-.559q-.385-.322-.812-.614c-.189-.13-.385-.254-.587-.375q-.227-.135-.464-.263c-.105-.056-.213-.112-.321-.166s-.219-.107-.33-.16c-3.511-1.642-7.3-.933-11-.926a.155.155,0,0,0-.091.051c-.035.032-.077.074-.133.118v21.184c.05.013.1.028.143.043l.136.044a.883.883,0,0,0,.256.048h.483c.8,0,1.6.017,2.406.024,1.291.011,2.581.007,3.868-.071a13.213,13.213,0,0,0,1.5-.176c.141-.025.28-.052.419-.082l.208-.045q.312-.073.616-.163a9.81,9.81,0,0,0,3.577-1.894q.369-.31.7-.636C534.869-4031.7,535.561-4034.8,535.276-4038.266Zm82.758,28.018a6.194,6.194,0,0,0-.713-.294c-.057-.021-.115-.04-.174-.057-.018-.007-.036-.011-.054-.017-.068-.021-.136-.041-.2-.059l-.2-.052-.169-.038-.186-.038-.158-.028c-.145-.024-.289-.044-.435-.062-.125-.013-.25-.026-.375-.036-.073-.006-.146-.01-.22-.014-1.227-.072-2.475.049-3.719.05v12.518c1.51,0,2.972.09,4.418-.017.183-.014.363-.033.539-.061.133-.021.264-.045.392-.072.085-.019.17-.04.254-.061s.167-.045.249-.07.164-.051.243-.079l.119-.043a5.875,5.875,0,0,0,.575-.25q.222-.112.432-.24c.1-.065.208-.132.308-.2a5.693,5.693,0,0,0,.745-.629,6.29,6.29,0,0,0,1.7-3.367A6.263,6.263,0,0,0,618.034-4010.248Zm40.015.34a2.753,2.753,0,0,0-.563-.424,3.578,3.578,0,0,0-.838-.344,7.326,7.326,0,0,0-.777-.167,29.172,29.172,0,0,0-4.434-.075c-.093,0-.186,0-.278,0l-.142,0c-.186-.006-.373-.018-.56-.032v6.188c1.746-.163,3.427.107,5.071-.087l.159-.021c.214-.03.425-.067.637-.115.106-.025.212-.05.317-.08a3.238,3.238,0,0,0,1.018-.482,3.248,3.248,0,0,0,.277-.226l.085-.082a2.8,2.8,0,0,0,.825-2.025A2.77,2.77,0,0,0,658.049-4009.908ZM524.307-4008.8c-.123-.145-.248-.282-.375-.409q-.114-.116-.232-.22c-.078-.07-.157-.138-.237-.2l-.08-.063c-.053-.042-.107-.082-.162-.12l-.082-.058c-.055-.038-.11-.075-.164-.109q-.207-.133-.421-.242a5.815,5.815,0,0,0-.786-.333c-.06-.021-.119-.041-.179-.058-1.793-.55-3.809-.3-5.785-.288v12.488c1.261,0,2.456.078,3.623.042q.217-.007.432-.019c.073,0,.146-.008.218-.014.144-.011.287-.023.43-.039a5.691,5.691,0,0,0,3.446-1.494,5.294,5.294,0,0,0,1.264-2A6.548,6.548,0,0,0,524.307-4008.8Zm10.969-29.471a9.823,9.823,0,0,0-2.809-6.387c-.2-.193-.4-.38-.615-.559q-.385-.322-.812-.614c-.189-.13-.385-.254-.587-.375q-.227-.135-.464-.263c-.105-.056-.213-.112-.321-.166s-.219-.107-.33-.16c-3.511-1.642-7.3-.933-11-.926a.155.155,0,0,0-.091.051c-.035.032-.077.074-.133.118v21.184c.05.013.1.028.143.043l.136.044a.883.883,0,0,0,.256.048h.483c.8,0,1.6.017,2.406.024,1.291.011,2.581.007,3.868-.071a13.213,13.213,0,0,0,1.5-.176c.141-.025.28-.052.419-.082l.208-.045q.312-.073.616-.163a9.81,9.81,0,0,0,3.577-1.894q.369-.31.7-.636C534.869-4031.7,535.561-4034.8,535.276-4038.266Zm32.793-6.5a4.569,4.569,0,0,0-.971-1.491c-.02-.021-.041-.043-.062-.062a4.51,4.51,0,0,0-1.46-.941c-.054-.022-.109-.043-.164-.064-.11-.041-.223-.078-.337-.112s-.231-.064-.348-.092c-.059-.014-.118-.027-.178-.039-.119-.024-.24-.045-.362-.064-.244-.037-.493-.061-.745-.075-2.677-.141-5.366-.079-8.049-.079l-.1,0c-.059,0-.118-.007-.177-.013-.09-.009-.18-.019-.271-.025h-.013a1.61,1.61,0,0,0-.512.028h0a1.1,1.1,0,0,0-.331.138v10.372c2.495,0,4.911,0,7.317,0l1.031,0a6.522,6.522,0,0,0,.707-.04c.024,0,.048,0,.07-.007l.088-.011c.174-.022.346-.049.519-.081l.15-.028c.3-.057.6-.125.9-.192C567.955-4038.359,569.321-4041.711,568.068-4044.769Zm49.965,34.521a6.194,6.194,0,0,0-.713-.294c-.057-.021-.115-.04-.174-.057-.018-.007-.036-.011-.054-.017-.068-.021-.136-.041-.2-.059l-.2-.052-.169-.038-.186-.038-.158-.028c-.145-.024-.289-.044-.435-.062-.125-.013-.25-.026-.375-.036-.073-.006-.146-.01-.22-.014-1.227-.072-2.475.049-3.719.05v12.518c1.51,0,2.972.09,4.418-.017.183-.014.363-.033.539-.061.133-.021.264-.045.392-.072.085-.019.17-.04.254-.061s.167-.045.249-.07.164-.051.243-.079l.119-.043a5.875,5.875,0,0,0,.575-.25q.222-.112.432-.24c.1-.065.208-.132.308-.2a5.693,5.693,0,0,0,.745-.629,6.29,6.29,0,0,0,1.7-3.367A6.263,6.263,0,0,0,618.034-4010.248Zm40.015.34a2.753,2.753,0,0,0-.563-.424,3.578,3.578,0,0,0-.838-.344,7.326,7.326,0,0,0-.777-.167,29.172,29.172,0,0,0-4.434-.075c-.093,0-.186,0-.278,0l-.142,0c-.186-.006-.373-.018-.56-.032v6.188c1.746-.163,3.427.107,5.071-.087l.159-.021c.214-.03.425-.067.637-.115.106-.025.212-.05.317-.08a3.238,3.238,0,0,0,1.018-.482,3.248,3.248,0,0,0,.277-.226l.085-.082a2.8,2.8,0,0,0,.825-2.025A2.77,2.77,0,0,0,658.049-4009.908ZM524.307-4008.8c-.123-.145-.248-.282-.375-.409q-.114-.116-.232-.22c-.078-.07-.157-.138-.237-.2l-.08-.063c-.053-.042-.107-.082-.162-.12l-.082-.058c-.055-.038-.11-.075-.164-.109q-.207-.133-.421-.242a5.815,5.815,0,0,0-.786-.333c-.06-.021-.119-.041-.179-.058-1.793-.55-3.809-.3-5.785-.288v12.488c1.261,0,2.456.078,3.623.042q.217-.007.432-.019c.073,0,.146-.008.218-.014.144-.011.287-.023.43-.039a5.691,5.691,0,0,0,3.446-1.494,5.294,5.294,0,0,0,1.264-2A6.548,6.548,0,0,0,524.307-4008.8Zm10.969-29.471a9.823,9.823,0,0,0-2.809-6.387c-.2-.193-.4-.38-.615-.559q-.385-.322-.812-.614c-.189-.13-.385-.254-.587-.375q-.227-.135-.464-.263c-.105-.056-.213-.112-.321-.166s-.219-.107-.33-.16c-3.511-1.642-7.3-.933-11-.926a.155.155,0,0,0-.091.051c-.035.032-.077.074-.133.118v21.184c.05.013.1.028.143.043l.136.044a.883.883,0,0,0,.256.048h.483c.8,0,1.6.017,2.406.024,1.291.011,2.581.007,3.868-.071a13.213,13.213,0,0,0,1.5-.176c.141-.025.28-.052.419-.082l.208-.045q.312-.073.616-.163a9.81,9.81,0,0,0,3.577-1.894q.369-.31.7-.636C534.869-4031.7,535.561-4034.8,535.276-4038.266Zm32.793-6.5a4.569,4.569,0,0,0-.971-1.491c-.02-.021-.041-.043-.062-.062a4.51,4.51,0,0,0-1.46-.941c-.054-.022-.109-.043-.164-.064-.11-.041-.223-.078-.337-.112s-.231-.064-.348-.092c-.059-.014-.118-.027-.178-.039-.119-.024-.24-.045-.362-.064-.244-.037-.493-.061-.745-.075-2.677-.141-5.366-.079-8.049-.079l-.1,0c-.059,0-.118-.007-.177-.013-.09-.009-.18-.019-.271-.025h-.013a1.61,1.61,0,0,0-.512.028h0a1.1,1.1,0,0,0-.331.138v10.372c2.495,0,4.911,0,7.317,0l1.031,0a6.522,6.522,0,0,0,.707-.04c.024,0,.048,0,.07-.007l.088-.011c.174-.022.346-.049.519-.081l.15-.028c.3-.057.6-.125.9-.192C567.955-4038.359,569.321-4041.711,568.068-4044.769Zm49.965,34.521a6.194,6.194,0,0,0-.713-.294c-.057-.021-.115-.04-.174-.057-.018-.007-.036-.011-.054-.017-.068-.021-.136-.041-.2-.059l-.2-.052-.169-.038-.186-.038-.158-.028c-.145-.024-.289-.044-.435-.062-.125-.013-.25-.026-.375-.036-.073-.006-.146-.01-.22-.014-1.227-.072-2.475.049-3.719.05v12.518c1.51,0,2.972.09,4.418-.017.183-.014.363-.033.539-.061.133-.021.264-.045.392-.072.085-.019.17-.04.254-.061s.167-.045.249-.07.164-.051.243-.079l.119-.043a5.875,5.875,0,0,0,.575-.25q.222-.112.432-.24c.1-.065.208-.132.308-.2a5.693,5.693,0,0,0,.745-.629,6.29,6.29,0,0,0,1.7-3.367A6.263,6.263,0,0,0,618.034-4010.248Zm40.015.34a2.753,2.753,0,0,0-.563-.424,3.578,3.578,0,0,0-.838-.344,7.326,7.326,0,0,0-.777-.167,29.172,29.172,0,0,0-4.434-.075c-.093,0-.186,0-.278,0l-.142,0c-.186-.006-.373-.018-.56-.032v6.188c1.746-.163,3.427.107,5.071-.087l.159-.021c.214-.03.425-.067.637-.115.106-.025.212-.05.317-.08a3.238,3.238,0,0,0,1.018-.482,3.248,3.248,0,0,0,.277-.226l.085-.082a2.8,2.8,0,0,0,.825-2.025A2.77,2.77,0,0,0,658.049-4009.908ZM524.307-4008.8c-.123-.145-.248-.282-.375-.409q-.114-.116-.232-.22c-.078-.07-.157-.138-.237-.2l-.08-.063c-.053-.042-.107-.082-.162-.12l-.082-.058c-.055-.038-.11-.075-.164-.109q-.207-.133-.421-.242a5.815,5.815,0,0,0-.786-.333c-.06-.021-.119-.041-.179-.058-1.793-.55-3.809-.3-5.785-.288v12.488c1.261,0,2.456.078,3.623.042q.217-.007.432-.019c.073,0,.146-.008.218-.014.144-.011.287-.023.43-.039a5.691,5.691,0,0,0,3.446-1.494,5.294,5.294,0,0,0,1.264-2A6.548,6.548,0,0,0,524.307-4008.8Zm10.969-29.471a9.823,9.823,0,0,0-2.809-6.387c-.2-.193-.4-.38-.615-.559q-.385-.322-.812-.614c-.189-.13-.385-.254-.587-.375q-.227-.135-.464-.263c-.105-.056-.213-.112-.321-.166s-.219-.107-.33-.16c-3.511-1.642-7.3-.933-11-.926a.155.155,0,0,0-.091.051c-.035.032-.077.074-.133.118v21.184c.05.013.1.028.143.043l.136.044a.883.883,0,0,0,.256.048h.483c.8,0,1.6.017,2.406.024,1.291.011,2.581.007,3.868-.071a13.213,13.213,0,0,0,1.5-.176c.141-.025.28-.052.419-.082l.208-.045q.312-.073.616-.163a9.81,9.81,0,0,0,3.577-1.894q.369-.31.7-.636C534.869-4031.7,535.561-4034.8,535.276-4038.266Zm32.793-6.5a4.569,4.569,0,0,0-.971-1.491c-.02-.021-.041-.043-.062-.062a4.51,4.51,0,0,0-1.46-.941c-.054-.022-.109-.043-.164-.064-.11-.041-.223-.078-.337-.112s-.231-.064-.348-.092c-.059-.014-.118-.027-.178-.039-.119-.024-.24-.045-.362-.064-.244-.037-.493-.061-.745-.075-2.677-.141-5.366-.079-8.049-.079l-.1,0c-.059,0-.118-.007-.177-.013-.09-.009-.18-.019-.271-.025h-.013a1.61,1.61,0,0,0-.512.028h0a1.1,1.1,0,0,0-.331.138v10.372c2.495,0,4.911,0,7.317,0l1.031,0a6.522,6.522,0,0,0,.707-.04c.024,0,.048,0,.07-.007l.088-.011c.174-.022.346-.049.519-.081l.15-.028c.3-.057.6-.125.9-.192C567.955-4038.359,569.321-4041.711,568.068-4044.769Zm49.965,34.521a6.194,6.194,0,0,0-.713-.294c-.057-.021-.115-.04-.174-.057-.018-.007-.036-.011-.054-.017-.068-.021-.136-.041-.2-.059l-.2-.052-.169-.038-.186-.038-.158-.028c-.145-.024-.289-.044-.435-.062-.125-.013-.25-.026-.375-.036-.073-.006-.146-.01-.22-.014-1.227-.072-2.475.049-3.719.05v12.518c1.51,0,2.972.09,4.418-.017.183-.014.363-.033.539-.061.133-.021.264-.045.392-.072.085-.019.17-.04.254-.061s.167-.045.249-.07.164-.051.243-.079l.119-.043a5.875,5.875,0,0,0,.575-.25q.222-.112.432-.24c.1-.065.208-.132.308-.2a5.693,5.693,0,0,0,.745-.629,6.29,6.29,0,0,0,1.7-3.367A6.263,6.263,0,0,0,618.034-4010.248Zm7.783-35.891c-1.825,4.184-3.558,8.163-5.344,12.26h10.706C629.39-4037.97,627.654-4041.941,625.817-4046.139Zm32.232,36.231a2.753,2.753,0,0,0-.563-.424,3.578,3.578,0,0,0-.838-.344,7.326,7.326,0,0,0-.777-.167,29.172,29.172,0,0,0-4.434-.075c-.093,0-.186,0-.278,0l-.142,0c-.186-.006-.373-.018-.56-.032v6.188c1.746-.163,3.427.107,5.071-.087l.159-.021c.214-.03.425-.067.637-.115.106-.025.212-.05.317-.08a3.238,3.238,0,0,0,1.018-.482,3.248,3.248,0,0,0,.277-.226l.085-.082a2.8,2.8,0,0,0,.825-2.025A2.77,2.77,0,0,0,658.049-4009.908ZM524.307-4008.8c-.123-.145-.248-.282-.375-.409q-.114-.116-.232-.22c-.078-.07-.157-.138-.237-.2l-.08-.063c-.053-.042-.107-.082-.162-.12l-.082-.058c-.055-.038-.11-.075-.164-.109q-.207-.133-.421-.242a5.815,5.815,0,0,0-.786-.333c-.06-.021-.119-.041-.179-.058-1.793-.55-3.809-.3-5.785-.288v12.488c1.261,0,2.456.078,3.623.042q.217-.007.432-.019c.073,0,.146-.008.218-.014.144-.011.287-.023.43-.039a5.691,5.691,0,0,0,3.446-1.494,5.294,5.294,0,0,0,1.264-2A6.548,6.548,0,0,0,524.307-4008.8Zm10.969-29.471a9.823,9.823,0,0,0-2.809-6.387c-.2-.193-.4-.38-.615-.559q-.385-.322-.812-.614c-.189-.13-.385-.254-.587-.375q-.227-.135-.464-.263c-.105-.056-.213-.112-.321-.166s-.219-.107-.33-.16c-3.511-1.642-7.3-.933-11-.926a.155.155,0,0,0-.091.051c-.035.032-.077.074-.133.118v21.184c.05.013.1.028.143.043l.136.044a.883.883,0,0,0,.256.048h.483c.8,0,1.6.017,2.406.024,1.291.011,2.581.007,3.868-.071a13.213,13.213,0,0,0,1.5-.176c.141-.025.28-.052.419-.082l.208-.045q.312-.073.616-.163a9.81,9.81,0,0,0,3.577-1.894q.369-.31.7-.636C534.869-4031.7,535.561-4034.8,535.276-4038.266Zm32.793-6.5a4.569,4.569,0,0,0-.971-1.491c-.02-.021-.041-.043-.062-.062a4.51,4.51,0,0,0-1.46-.941c-.054-.022-.109-.043-.164-.064-.11-.041-.223-.078-.337-.112s-.231-.064-.348-.092c-.059-.014-.118-.027-.178-.039-.119-.024-.24-.045-.362-.064-.244-.037-.493-.061-.745-.075-2.677-.141-5.366-.079-8.049-.079l-.1,0c-.059,0-.118-.007-.177-.013-.09-.009-.18-.019-.271-.025h-.013a1.61,1.61,0,0,0-.512.028h0a1.1,1.1,0,0,0-.331.138v10.372c2.495,0,4.911,0,7.317,0l1.031,0a6.522,6.522,0,0,0,.707-.04c.024,0,.048,0,.07-.007l.088-.011c.174-.022.346-.049.519-.081l.15-.028c.3-.057.6-.125.9-.192C567.955-4038.359,569.321-4041.711,568.068-4044.769Zm49.965,34.521a6.194,6.194,0,0,0-.713-.294c-.057-.021-.115-.04-.174-.057-.018-.007-.036-.011-.054-.017-.068-.021-.136-.041-.2-.059l-.2-.052-.169-.038-.186-.038-.158-.028c-.145-.024-.289-.044-.435-.062-.125-.013-.25-.026-.375-.036-.073-.006-.146-.01-.22-.014-1.227-.072-2.475.049-3.719.05v12.518c1.51,0,2.972.09,4.418-.017.183-.014.363-.033.539-.061.133-.021.264-.045.392-.072.085-.019.17-.04.254-.061s.167-.045.249-.07.164-.051.243-.079l.119-.043a5.875,5.875,0,0,0,.575-.25q.222-.112.432-.24c.1-.065.208-.132.308-.2a5.693,5.693,0,0,0,.745-.629,6.29,6.29,0,0,0,1.7-3.367A6.263,6.263,0,0,0,618.034-4010.248Zm7.783-35.891c-1.825,4.184-3.558,8.163-5.344,12.26h10.706C629.39-4037.97,627.654-4041.941,625.817-4046.139Zm32.232,36.231a2.753,2.753,0,0,0-.563-.424,3.578,3.578,0,0,0-.838-.344,7.326,7.326,0,0,0-.777-.167,29.172,29.172,0,0,0-4.434-.075c-.093,0-.186,0-.278,0l-.142,0c-.186-.006-.373-.018-.56-.032v6.188c1.746-.163,3.427.107,5.071-.087l.159-.021c.214-.03.425-.067.637-.115.106-.025.212-.05.317-.08a3.238,3.238,0,0,0,1.018-.482,3.248,3.248,0,0,0,.277-.226l.085-.082a2.8,2.8,0,0,0,.825-2.025A2.77,2.77,0,0,0,658.049-4009.908ZM524.307-4008.8c-.123-.145-.248-.282-.375-.409q-.114-.116-.232-.22c-.078-.07-.157-.138-.237-.2l-.08-.063c-.053-.042-.107-.082-.162-.12l-.082-.058c-.055-.038-.11-.075-.164-.109q-.207-.133-.421-.242a5.815,5.815,0,0,0-.786-.333c-.06-.021-.119-.041-.179-.058-1.793-.55-3.809-.3-5.785-.288v12.488c1.261,0,2.456.078,3.623.042q.217-.007.432-.019c.073,0,.146-.008.218-.014.144-.011.287-.023.43-.039a5.691,5.691,0,0,0,3.446-1.494,5.294,5.294,0,0,0,1.264-2A6.548,6.548,0,0,0,524.307-4008.8Zm10.969-29.471a9.823,9.823,0,0,0-2.809-6.387c-.2-.193-.4-.38-.615-.559q-.385-.322-.812-.614c-.189-.13-.385-.254-.587-.375q-.227-.135-.464-.263c-.105-.056-.213-.112-.321-.166s-.219-.107-.33-.16c-3.511-1.642-7.3-.933-11-.926a.155.155,0,0,0-.091.051c-.035.032-.077.074-.133.118v21.184c.05.013.1.028.143.043l.136.044a.883.883,0,0,0,.256.048h.483c.8,0,1.6.017,2.406.024,1.291.011,2.581.007,3.868-.071a13.213,13.213,0,0,0,1.5-.176c.141-.025.28-.052.419-.082l.208-.045q.312-.073.616-.163a9.81,9.81,0,0,0,3.577-1.894q.369-.31.7-.636C534.869-4031.7,535.561-4034.8,535.276-4038.266Zm32.793-6.5a4.569,4.569,0,0,0-.971-1.491c-.02-.021-.041-.043-.062-.062a4.51,4.51,0,0,0-1.46-.941c-.054-.022-.109-.043-.164-.064-.11-.041-.223-.078-.337-.112s-.231-.064-.348-.092c-.059-.014-.118-.027-.178-.039-.119-.024-.24-.045-.362-.064-.244-.037-.493-.061-.745-.075-2.677-.141-5.366-.079-8.049-.079l-.1,0c-.059,0-.118-.007-.177-.013-.09-.009-.18-.019-.271-.025h-.013a1.61,1.61,0,0,0-.512.028h0a1.1,1.1,0,0,0-.331.138v10.372c2.495,0,4.911,0,7.317,0l1.031,0a6.522,6.522,0,0,0,.707-.04c.024,0,.048,0,.07-.007l.088-.011c.174-.022.346-.049.519-.081l.15-.028c.3-.057.6-.125.9-.192C567.955-4038.359,569.321-4041.711,568.068-4044.769Zm49.965,34.521a6.194,6.194,0,0,0-.713-.294c-.057-.021-.115-.04-.174-.057-.018-.007-.036-.011-.054-.017-.068-.021-.136-.041-.2-.059l-.2-.052-.169-.038-.186-.038-.158-.028c-.145-.024-.289-.044-.435-.062-.125-.013-.25-.026-.375-.036-.073-.006-.146-.01-.22-.014-1.227-.072-2.475.049-3.719.05v12.518c1.51,0,2.972.09,4.418-.017.183-.014.363-.033.539-.061.133-.021.264-.045.392-.072.085-.019.17-.04.254-.061s.167-.045.249-.07.164-.051.243-.079l.119-.043a5.875,5.875,0,0,0,.575-.25q.222-.112.432-.24c.1-.065.208-.132.308-.2a5.693,5.693,0,0,0,.745-.629,6.29,6.29,0,0,0,1.7-3.367A6.263,6.263,0,0,0,618.034-4010.248Zm7.783-35.891c-1.825,4.184-3.558,8.163-5.344,12.26h10.706C629.39-4037.97,627.654-4041.941,625.817-4046.139Zm32.232,36.231a2.753,2.753,0,0,0-.563-.424,3.578,3.578,0,0,0-.838-.344,7.326,7.326,0,0,0-.777-.167,29.172,29.172,0,0,0-4.434-.075c-.093,0-.186,0-.278,0l-.142,0c-.186-.006-.373-.018-.56-.032v6.188c1.746-.163,3.427.107,5.071-.087l.159-.021c.214-.03.425-.067.637-.115.106-.025.212-.05.317-.08a3.238,3.238,0,0,0,1.018-.482,3.248,3.248,0,0,0,.277-.226l.085-.082a2.8,2.8,0,0,0,.825-2.025A2.77,2.77,0,0,0,658.049-4009.908ZM524.307-4008.8c-.123-.145-.248-.282-.375-.409q-.114-.116-.232-.22c-.078-.07-.157-.138-.237-.2l-.08-.063c-.053-.042-.107-.082-.162-.12l-.082-.058c-.055-.038-.11-.075-.164-.109q-.207-.133-.421-.242a5.815,5.815,0,0,0-.786-.333c-.06-.021-.119-.041-.179-.058-1.793-.55-3.809-.3-5.785-.288v12.488c1.261,0,2.456.078,3.623.042q.217-.007.432-.019c.073,0,.146-.008.218-.014.144-.011.287-.023.43-.039a5.691,5.691,0,0,0,3.446-1.494,5.294,5.294,0,0,0,1.264-2A6.548,6.548,0,0,0,524.307-4008.8Zm10.969-29.471a9.823,9.823,0,0,0-2.809-6.387c-.2-.193-.4-.38-.615-.559q-.385-.322-.812-.614c-.189-.13-.385-.254-.587-.375q-.227-.135-.464-.263c-.105-.056-.213-.112-.321-.166s-.219-.107-.33-.16c-3.511-1.642-7.3-.933-11-.926a.155.155,0,0,0-.091.051c-.035.032-.077.074-.133.118v21.184c.05.013.1.028.143.043l.136.044a.883.883,0,0,0,.256.048h.483c.8,0,1.6.017,2.406.024,1.291.011,2.581.007,3.868-.071a13.213,13.213,0,0,0,1.5-.176c.141-.025.28-.052.419-.082l.208-.045q.312-.073.616-.163a9.81,9.81,0,0,0,3.577-1.894q.369-.31.7-.636C534.869-4031.7,535.561-4034.8,535.276-4038.266Zm32.793-6.5a4.569,4.569,0,0,0-.971-1.491c-.02-.021-.041-.043-.062-.062a4.51,4.51,0,0,0-1.46-.941c-.054-.022-.109-.043-.164-.064-.11-.041-.223-.078-.337-.112s-.231-.064-.348-.092c-.059-.014-.118-.027-.178-.039-.119-.024-.24-.045-.362-.064-.244-.037-.493-.061-.745-.075-2.677-.141-5.366-.079-8.049-.079l-.1,0c-.059,0-.118-.007-.177-.013-.09-.009-.18-.019-.271-.025h-.013a1.61,1.61,0,0,0-.512.028h0a1.1,1.1,0,0,0-.331.138v10.372c2.495,0,4.911,0,7.317,0l1.031,0a6.522,6.522,0,0,0,.707-.04c.024,0,.048,0,.07-.007l.088-.011c.174-.022.346-.049.519-.081l.15-.028c.3-.057.6-.125.9-.192C567.955-4038.359,569.321-4041.711,568.068-4044.769Zm49.965,34.521a6.194,6.194,0,0,0-.713-.294c-.057-.021-.115-.04-.174-.057-.018-.007-.036-.011-.054-.017-.068-.021-.136-.041-.2-.059l-.2-.052-.169-.038-.186-.038-.158-.028c-.145-.024-.289-.044-.435-.062-.125-.013-.25-.026-.375-.036-.073-.006-.146-.01-.22-.014-1.227-.072-2.475.049-3.719.05v12.518c1.51,0,2.972.09,4.418-.017.183-.014.363-.033.539-.061.133-.021.264-.045.392-.072.085-.019.17-.04.254-.061s.167-.045.249-.07.164-.051.243-.079l.119-.043a5.875,5.875,0,0,0,.575-.25q.222-.112.432-.24c.1-.065.208-.132.308-.2a5.693,5.693,0,0,0,.745-.629,6.29,6.29,0,0,0,1.7-3.367A6.263,6.263,0,0,0,618.034-4010.248Zm7.783-35.891c-1.825,4.184-3.558,8.163-5.344,12.26h10.706C629.39-4037.97,627.654-4041.941,625.817-4046.139Zm32.232,36.231a2.753,2.753,0,0,0-.563-.424,3.578,3.578,0,0,0-.838-.344,7.326,7.326,0,0,0-.777-.167,29.172,29.172,0,0,0-4.434-.075c-.093,0-.186,0-.278,0l-.142,0c-.186-.006-.373-.018-.56-.032v6.188c1.746-.163,3.427.107,5.071-.087l.159-.021c.214-.03.425-.067.637-.115.106-.025.212-.05.317-.08a3.238,3.238,0,0,0,1.018-.482,3.248,3.248,0,0,0,.277-.226l.085-.082a2.8,2.8,0,0,0,.825-2.025A2.77,2.77,0,0,0,658.049-4009.908Zm35.919-53.954a3.3,3.3,0,0,0-2.527-3.185,9.263,9.263,0,0,0-2.739-.4q-46.405.006-92.81,0H505.121a28.4,28.4,0,0,0-2.9.021c-1.594.161-3.113.535-3.891,2.2A5.755,5.755,0,0,0,498-4062.7q-.006,38.241,0,76.481a7.085,7.085,0,0,0,.814,3.277,12.4,12.4,0,0,0,5.7,5.248c6.412,3.388,12.718,6.978,19.065,10.483,6,3.313,11.981,6.646,17.991,9.936,5.926,3.24,11.779,6.609,17.735,9.8,6.109,3.271,12.129,6.706,18.187,10.073,5.369,2.985,10.7,6.042,16.115,8.937a9.326,9.326,0,0,0,9.216-.095c.9-.485,1.764-1.059,2.652-1.58q7.274-4.261,14.55-8.515c5.488-3.22,10.956-6.472,16.457-9.668,5.653-3.285,11.257-6.659,16.929-9.916,7.865-4.517,15.63-9.208,23.447-13.806,4.168-2.452,8.425-4.759,12.511-7.337a9.087,9.087,0,0,0,4.549-8.1c-.03-4.833.023-9.667.03-14.5q.029-30.345.051-60.69C694-4063.073,694-4063.468,693.968-4063.862Zm-45.892,10.893h6.146c3.161,4.921,6.351,9.887,9.652,15.024,3.193-5.181,6.405-10.1,9.661-15.049H679.6v32.052h-5.617v-22.209c-.11-.051-.219-.1-.329-.156-3.251,4.85-6.5,9.7-9.894,14.762-3.35-5.018-6.584-9.854-9.994-14.96v22.581h-5.686Zm-1.229,39.079a1.812,1.812,0,0,1,.531-.178c3.111.055,6.231-.176,9.338.113,2.935.275,5.159,2.131,5.544,4.544a5.822,5.822,0,0,1-3.838,6.929,4.361,4.361,0,0,0-.438.269l4.966,6.93h-4.014c-1.665-1.923-2.955-4.239-4.551-6.343h-4.026v6.333a23.327,23.327,0,0,1-3.511.075Zm-5.144,7.562a12.818,12.818,0,0,1,.075,3.068h-9.286v4.957H643a16.019,16.019,0,0,1,.173,3.034H628.936v-18.685H642.95v2.914H632.458v4.712Zm-86.884.375h9.218a12.95,12.95,0,0,1,.081,3.074h-9.331v7.567a19.839,19.839,0,0,1-3.428.114v-18.808h13.954a13.355,13.355,0,0,1,.019,3.014H554.788A42.738,42.738,0,0,0,554.82-4005.954Zm-2.943,21.268c4.592-.016,9.269-.729,13.63,1.337,3.29,1.558,6.493,3.281,9.724,4.934q8.34,4.241,16.663,8.506a11.25,11.25,0,0,0,5,1.705c1.945.034,3.5-.874,5.107-1.739,7.856-4.207,15.729-8.387,23.559-12.637a17.188,17.188,0,0,1,8.927-2.192c1.688.051,3.367.008,5.055.034.479.008,1.028-.009,1.217.66-.12.729-.737.985-1.285,1.293q-8.957,5.024-17.922,10.057c-3.17,1.782-6.322,3.607-9.484,5.389-3.949,2.219-7.89,4.438-11.874,6.6a6.451,6.451,0,0,1-6.373.034c-3.462-1.825-6.871-3.769-10.35-5.56-6.537-3.358-12.9-7.025-19.421-10.4-3.924-2.031-7.762-4.215-11.686-6.254a2.012,2.012,0,0,1-1.139-1.045C551.242-3984.4,551.473-3984.686,551.877-3984.686Zm29.651-21.687a10.3,10.3,0,0,1,.069,3.15h-9.248v4.955h10.591a10.937,10.937,0,0,1,.028,2.982H568.878v-18.724H582.8a15.473,15.473,0,0,1,.047,3.037H572.317v4.6Zm17.192,28.535.61,3.077a.188.188,0,0,1-.257.21l-3.008-1.264a.193.193,0,0,0-.146,0l-3.009,1.264a.188.188,0,0,1-.257-.21l.61-3.077a.191.191,0,0,0-.047-.165l-2.4-2.588a.188.188,0,0,1,.111-.313l3.307-.473a.186.186,0,0,0,.139-.1l1.433-2.674a.209.209,0,0,1,.368,0l1.432,2.674a.186.186,0,0,0,.139.1l3.307.473a.187.187,0,0,1,.111.313l-2.4,2.588A.191.191,0,0,0,598.719-3977.838Zm1.731-17.365c-3.558-4.139-6.59-8.683-10.3-13.08v13.008a18.02,18.02,0,0,1-3.365.03v-18.694a18.709,18.709,0,0,1,3.133-.185c3.232,4.17,6.453,8.329,9.886,12.759v-12.6a23.943,23.943,0,0,1,3.413-.115v18.752A10.919,10.919,0,0,1,600.451-3995.2Zm22.752-58.044a47.216,47.216,0,0,1,5.385-.018c4.684,10.729,9.366,21.45,14.132,32.366h-6.146c-1.014-2.463-2.041-4.958-3.1-7.532H618.311c-1.328,2.364-2.086,5.024-3.264,7.521h-5.965Zm-15.184,39.3a2.635,2.635,0,0,1,.6-.123c2.681.058,5.365-.107,8.049.112a9.391,9.391,0,0,1,6.983,14.4,9.336,9.336,0,0,1-7.423,4.284c-2.7.193-5.424.041-8.193.041C607.892-3996.3,607.89-4012.983,608.019-4013.95Zm-26.753-39.016h23.829v5.057h-18.06v8.25h16.031v5.019H587.037v8.47h18.2a36.982,36.982,0,0,1,.142,5.217H581.265Zm-33.141-.079H551.1c4.188,0,8.379-.1,12.563.041,3.67.125,6.932,1.332,9.16,4.506a10.068,10.068,0,0,1-4.719,15.032c-.389.144-.766.322-1.214.514l8.642,12.034h-6.9c-2.6-3.708-5.187-7.382-7.808-11.113h-6.9v11.123h-5.806Zm-.879,42.058h-10.5v4.621h9.164a12.8,12.8,0,0,1,.181,3.1h-9.259a34.762,34.762,0,0,0-.1,4.966H547.2a8.424,8.424,0,0,1,.247,3.015h-14.1v-18.7H547.2A11.238,11.238,0,0,1,547.245-4010.987Zm-34.868-41.882c.065-.069.089-.119.111-.119,5.467.075,10.993-.711,16.38.449a15.427,15.427,0,0,1,12.5,16.754c-.632,7.96-6.168,13.583-14.346,14.737a23.707,23.707,0,0,1-3.425.2c-3.685-.011-7.37,0-11.224,0Zm-.02,57.677v-18.743a3.237,3.237,0,0,1,.675-.138c2.752.06,5.507-.133,8.258.138a9.425,9.425,0,0,1,7.634,6.229,9.482,9.482,0,0,1-2.505,10.013,9.652,9.652,0,0,1-4.983,2.338A89.672,89.672,0,0,1,512.357-3995.192ZM673.2-3979.939a21.884,21.884,0,0,1-3.95,2.569c-3.367,2.013-6.768,3.975-10.135,5.98q-11.181,6.656-22.335,13.33-9.047,5.41-18.11,10.786c-5.046,3.016-10.075,6.074-15.155,9.029a10.981,10.981,0,0,1-11.446.1c-4.763-2.647-9.414-5.509-14.2-8.139-5.868-3.238-11.642-6.64-17.476-9.938q-8.854-5.011-17.673-10.049-9.1-5.178-18.214-10.366c-1.517-.865-3.059-1.679-4.584-2.545a7.066,7.066,0,0,1-1.123-.822c-.376-.334-.771-.694-.583-1.277a1.321,1.321,0,0,1,1.157-.831,10.8,10.8,0,0,1,1.807-.181c1.834-.016,3.658-.008,6.006-.008,1.73.077,3.984-.12,6.236.1a29.524,29.524,0,0,1,11.591,3.521c5.03,2.775,10.085,5.492,15.13,8.225q12.041,6.514,24.073,13.013c2.759,1.491,5.458,3.127,8.294,4.446a11.655,11.655,0,0,0,11.111-.419c7.359-4.155,14.685-8.37,22.035-12.55,6.322-3.6,12.628-7.231,18.993-10.752,2.982-1.653,5.852-3.555,9.235-4.412a30.425,30.425,0,0,1,7.394-1.183c3.144,0,6.3-.009,9.45.016a7.957,7.957,0,0,1,1.919.2C673.965-3981.773,674.2-3980.865,673.2-3979.939Zm6.444-19.8a5.865,5.865,0,0,1-4.433,4.558c-3.7.851-6.9-.275-9.86-2.394-.1-.076-.146-.237-.266-.443l1.652-2.114c.555-.2.844.165,1.184.415a8.139,8.139,0,0,0,5.7,1.738,3.4,3.4,0,0,0,1.517-.486,2.03,2.03,0,0,0-.08-3.635,25.741,25.741,0,0,0-5.193-1.611c-4.181-1.208-4.839-4.725-3.483-7.636.909-1.953,2.744-2.69,4.695-2.946a10.24,10.24,0,0,1,7.574,2,1,1,0,0,1,.219.228,1.568,1.568,0,0,1,.114.316c-.529.739-1.1,1.534-1.611,2.248-.561.1-.776-.234-1.068-.423a6.917,6.917,0,0,0-4.961-1.251,2.367,2.367,0,0,0-2.2,2.011c-.075.965.55,1.636,1.863,2.151,1.892.746,3.972.9,5.781,1.912C679.047-4003.839,680-4002.111,679.647-3999.742Zm-24.119-5.115.159-.021c.214-.03.425-.067.637-.115.106-.025.212-.05.317-.08a3.238,3.238,0,0,0,1.018-.482,3.248,3.248,0,0,0,.277-.226l.085-.082a2.8,2.8,0,0,0,.825-2.025,2.77,2.77,0,0,0-.8-2.021,2.753,2.753,0,0,0-.563-.424,3.578,3.578,0,0,0-.838-.344,7.326,7.326,0,0,0-.777-.167,29.172,29.172,0,0,0-4.434-.075c-.093,0-.186,0-.278,0l-.142,0c-.186-.006-.373-.018-.56-.032v6.188C652.2-4004.932,653.885-4004.662,655.529-4004.856Zm-29.712-41.283c-1.825,4.184-3.558,8.163-5.344,12.26h10.706C629.39-4037.97,627.654-4041.941,625.817-4046.139Zm-9.972,47.75c.183-.014.363-.033.539-.061.133-.021.264-.045.392-.072.085-.019.17-.04.254-.061s.167-.045.249-.07.164-.051.243-.079l.119-.043a5.875,5.875,0,0,0,.575-.25q.222-.112.432-.24c.1-.065.208-.132.308-.2a5.693,5.693,0,0,0,.745-.629,6.29,6.29,0,0,0,1.7-3.367,6.263,6.263,0,0,0-3.365-6.786,6.194,6.194,0,0,0-.713-.294c-.057-.021-.115-.04-.174-.057-.018-.007-.036-.011-.054-.017-.068-.021-.136-.041-.2-.059l-.2-.052-.169-.038-.186-.038-.158-.028c-.145-.024-.289-.044-.435-.062-.125-.013-.25-.026-.375-.036-.073-.006-.146-.01-.22-.014-1.227-.072-2.475.049-3.719.05v12.518C612.937-3998.373,614.4-3998.282,615.844-3998.39Zm-54.537-38.9,1.031,0a6.522,6.522,0,0,0,.707-.04c.024,0,.048,0,.07-.007l.088-.011c.174-.022.346-.049.519-.081l.15-.028c.3-.057.6-.125.9-.192,3.184-.712,4.551-4.063,3.3-7.122a4.569,4.569,0,0,0-.971-1.491c-.02-.021-.041-.043-.062-.062a4.51,4.51,0,0,0-1.46-.941c-.054-.022-.109-.043-.164-.064-.11-.041-.223-.078-.337-.112s-.231-.064-.348-.092c-.059-.014-.118-.027-.178-.039-.119-.024-.24-.045-.362-.064-.244-.037-.493-.061-.745-.075-2.677-.141-5.366-.079-8.049-.079l-.1,0c-.059,0-.118-.007-.177-.013-.09-.009-.18-.019-.271-.025h-.013a1.61,1.61,0,0,0-.512.028h0a1.1,1.1,0,0,0-.331.138v10.372C556.485-4037.293,558.9-4037.3,561.307-4037.292Zm-42.91,11.019a.883.883,0,0,0,.256.048h.483c.8,0,1.6.017,2.406.024,1.291.011,2.581.007,3.868-.071a13.213,13.213,0,0,0,1.5-.176c.141-.025.28-.052.419-.082l.208-.045q.312-.073.616-.163a9.81,9.81,0,0,0,3.577-1.894q.369-.31.7-.636c2.445-2.438,3.137-5.537,2.851-9a9.823,9.823,0,0,0-2.809-6.387c-.2-.193-.4-.38-.615-.559q-.385-.322-.812-.614c-.189-.13-.385-.254-.587-.375q-.227-.135-.464-.263c-.105-.056-.213-.112-.321-.166s-.219-.107-.33-.16c-3.511-1.642-7.3-.933-11-.926a.155.155,0,0,0-.091.051c-.035.032-.077.074-.133.118v21.184c.05.013.1.028.143.043Zm6.817,24.341a6.548,6.548,0,0,0-.908-6.863c-.123-.145-.248-.282-.375-.409q-.114-.116-.232-.22c-.078-.07-.157-.138-.237-.2l-.08-.063c-.053-.042-.107-.082-.162-.12l-.082-.058c-.055-.038-.11-.075-.164-.109q-.207-.133-.421-.242a5.815,5.815,0,0,0-.786-.333c-.06-.021-.119-.041-.179-.058-1.793-.55-3.809-.3-5.785-.288v12.488c1.261,0,2.456.078,3.623.042q.217-.007.432-.019c.073,0,.146-.008.218-.014.144-.011.287-.023.43-.039a5.691,5.691,0,0,0,3.446-1.494A5.294,5.294,0,0,0,525.215-4001.933Zm132.834-7.976a2.753,2.753,0,0,0-.563-.424,3.578,3.578,0,0,0-.838-.344,7.326,7.326,0,0,0-.777-.167,29.172,29.172,0,0,0-4.434-.075c-.093,0-.186,0-.278,0l-.142,0c-.186-.006-.373-.018-.56-.032v6.188c1.746-.163,3.427.107,5.071-.087l.159-.021c.214-.03.425-.067.637-.115.106-.025.212-.05.317-.08a3.238,3.238,0,0,0,1.018-.482,3.248,3.248,0,0,0,.277-.226l.085-.082a2.8,2.8,0,0,0,.825-2.025A2.77,2.77,0,0,0,658.049-4009.908Zm-32.232-36.231c-1.825,4.184-3.558,8.163-5.344,12.26h10.706C629.39-4037.97,627.654-4041.941,625.817-4046.139Zm-7.783,35.891a6.194,6.194,0,0,0-.713-.294c-.057-.021-.115-.04-.174-.057-.018-.007-.036-.011-.054-.017-.068-.021-.136-.041-.2-.059l-.2-.052-.169-.038-.186-.038-.158-.028c-.145-.024-.289-.044-.435-.062-.125-.013-.25-.026-.375-.036-.073-.006-.146-.01-.22-.014-1.227-.072-2.475.049-3.719.05v12.518c1.51,0,2.972.09,4.418-.017.183-.014.363-.033.539-.061.133-.021.264-.045.392-.072.085-.019.17-.04.254-.061s.167-.045.249-.07.164-.051.243-.079l.119-.043a5.875,5.875,0,0,0,.575-.25q.222-.112.432-.24c.1-.065.208-.132.308-.2a5.693,5.693,0,0,0,.745-.629,6.29,6.29,0,0,0,1.7-3.367A6.263,6.263,0,0,0,618.034-4010.248Zm-49.965-34.521a4.569,4.569,0,0,0-.971-1.491c-.02-.021-.041-.043-.062-.062a4.51,4.51,0,0,0-1.46-.941c-.054-.022-.109-.043-.164-.064-.11-.041-.223-.078-.337-.112s-.231-.064-.348-.092c-.059-.014-.118-.027-.178-.039-.119-.024-.24-.045-.362-.064-.244-.037-.493-.061-.745-.075-2.677-.141-5.366-.079-8.049-.079l-.1,0c-.059,0-.118-.007-.177-.013-.09-.009-.18-.019-.271-.025h-.013a1.61,1.61,0,0,0-.512.028h0a1.1,1.1,0,0,0-.331.138v10.372c2.495,0,4.911,0,7.317,0l1.031,0a6.522,6.522,0,0,0,.707-.04c.024,0,.048,0,.07-.007l.088-.011c.174-.022.346-.049.519-.081l.15-.028c.3-.057.6-.125.9-.192C567.955-4038.359,569.321-4041.711,568.068-4044.769Zm-32.793,6.5a9.823,9.823,0,0,0-2.809-6.387c-.2-.193-.4-.38-.615-.559q-.385-.322-.812-.614c-.189-.13-.385-.254-.587-.375q-.227-.135-.464-.263c-.105-.056-.213-.112-.321-.166s-.219-.107-.33-.16c-3.511-1.642-7.3-.933-11-.926a.155.155,0,0,0-.091.051c-.035.032-.077.074-.133.118v21.184c.05.013.1.028.143.043l.136.044a.883.883,0,0,0,.256.048h.483c.8,0,1.6.017,2.406.024,1.291.011,2.581.007,3.868-.071a13.213,13.213,0,0,0,1.5-.176c.141-.025.28-.052.419-.082l.208-.045q.312-.073.616-.163a9.81,9.81,0,0,0,3.577-1.894q.369-.31.7-.636C534.869-4031.7,535.561-4034.8,535.276-4038.266ZM524.307-4008.8c-.123-.145-.248-.282-.375-.409q-.114-.116-.232-.22c-.078-.07-.157-.138-.237-.2l-.08-.063c-.053-.042-.107-.082-.162-.12l-.082-.058c-.055-.038-.11-.075-.164-.109q-.207-.133-.421-.242a5.815,5.815,0,0,0-.786-.333c-.06-.021-.119-.041-.179-.058-1.793-.55-3.809-.3-5.785-.288v12.488c1.261,0,2.456.078,3.623.042q.217-.007.432-.019c.073,0,.146-.008.218-.014.144-.011.287-.023.43-.039a5.691,5.691,0,0,0,3.446-1.494,5.294,5.294,0,0,0,1.264-2A6.548,6.548,0,0,0,524.307-4008.8Zm133.742-1.113a2.753,2.753,0,0,0-.563-.424,3.578,3.578,0,0,0-.838-.344,7.326,7.326,0,0,0-.777-.167,29.172,29.172,0,0,0-4.434-.075c-.093,0-.186,0-.278,0l-.142,0c-.186-.006-.373-.018-.56-.032v6.188c1.746-.163,3.427.107,5.071-.087l.159-.021c.214-.03.425-.067.637-.115.106-.025.212-.05.317-.08a3.238,3.238,0,0,0,1.018-.482,3.248,3.248,0,0,0,.277-.226l.085-.082a2.8,2.8,0,0,0,.825-2.025A2.77,2.77,0,0,0,658.049-4009.908Zm-32.232-36.231c-1.825,4.184-3.558,8.163-5.344,12.26h10.706C629.39-4037.97,627.654-4041.941,625.817-4046.139Zm-7.783,35.891a6.194,6.194,0,0,0-.713-.294c-.057-.021-.115-.04-.174-.057-.018-.007-.036-.011-.054-.017-.068-.021-.136-.041-.2-.059l-.2-.052-.169-.038-.186-.038-.158-.028c-.145-.024-.289-.044-.435-.062-.125-.013-.25-.026-.375-.036-.073-.006-.146-.01-.22-.014-1.227-.072-2.475.049-3.719.05v12.518c1.51,0,2.972.09,4.418-.017.183-.014.363-.033.539-.061.133-.021.264-.045.392-.072.085-.019.17-.04.254-.061s.167-.045.249-.07.164-.051.243-.079l.119-.043a5.875,5.875,0,0,0,.575-.25q.222-.112.432-.24c.1-.065.208-.132.308-.2a5.693,5.693,0,0,0,.745-.629,6.29,6.29,0,0,0,1.7-3.367A6.263,6.263,0,0,0,618.034-4010.248Zm-49.965-34.521a4.569,4.569,0,0,0-.971-1.491c-.02-.021-.041-.043-.062-.062a4.51,4.51,0,0,0-1.46-.941c-.054-.022-.109-.043-.164-.064-.11-.041-.223-.078-.337-.112s-.231-.064-.348-.092c-.059-.014-.118-.027-.178-.039-.119-.024-.24-.045-.362-.064-.244-.037-.493-.061-.745-.075-2.677-.141-5.366-.079-8.049-.079l-.1,0c-.059,0-.118-.007-.177-.013-.09-.009-.18-.019-.271-.025h-.013a1.61,1.61,0,0,0-.512.028h0a1.1,1.1,0,0,0-.331.138v10.372c2.495,0,4.911,0,7.317,0l1.031,0a6.522,6.522,0,0,0,.707-.04c.024,0,.048,0,.07-.007l.088-.011c.174-.022.346-.049.519-.081l.15-.028c.3-.057.6-.125.9-.192C567.955-4038.359,569.321-4041.711,568.068-4044.769Zm-32.793,6.5a9.823,9.823,0,0,0-2.809-6.387c-.2-.193-.4-.38-.615-.559q-.385-.322-.812-.614c-.189-.13-.385-.254-.587-.375q-.227-.135-.464-.263c-.105-.056-.213-.112-.321-.166s-.219-.107-.33-.16c-3.511-1.642-7.3-.933-11-.926a.155.155,0,0,0-.091.051c-.035.032-.077.074-.133.118v21.184c.05.013.1.028.143.043l.136.044a.883.883,0,0,0,.256.048h.483c.8,0,1.6.017,2.406.024,1.291.011,2.581.007,3.868-.071a13.213,13.213,0,0,0,1.5-.176c.141-.025.28-.052.419-.082l.208-.045q.312-.073.616-.163a9.81,9.81,0,0,0,3.577-1.894q.369-.31.7-.636C534.869-4031.7,535.561-4034.8,535.276-4038.266ZM524.307-4008.8c-.123-.145-.248-.282-.375-.409q-.114-.116-.232-.22c-.078-.07-.157-.138-.237-.2l-.08-.063c-.053-.042-.107-.082-.162-.12l-.082-.058c-.055-.038-.11-.075-.164-.109q-.207-.133-.421-.242a5.815,5.815,0,0,0-.786-.333c-.06-.021-.119-.041-.179-.058-1.793-.55-3.809-.3-5.785-.288v12.488c1.261,0,2.456.078,3.623.042q.217-.007.432-.019c.073,0,.146-.008.218-.014.144-.011.287-.023.43-.039a5.691,5.691,0,0,0,3.446-1.494,5.294,5.294,0,0,0,1.264-2A6.548,6.548,0,0,0,524.307-4008.8Zm133.742-1.113a2.753,2.753,0,0,0-.563-.424,3.578,3.578,0,0,0-.838-.344,7.326,7.326,0,0,0-.777-.167,29.172,29.172,0,0,0-4.434-.075c-.093,0-.186,0-.278,0l-.142,0c-.186-.006-.373-.018-.56-.032v6.188c1.746-.163,3.427.107,5.071-.087l.159-.021c.214-.03.425-.067.637-.115.106-.025.212-.05.317-.08a3.238,3.238,0,0,0,1.018-.482,3.248,3.248,0,0,0,.277-.226l.085-.082a2.8,2.8,0,0,0,.825-2.025A2.77,2.77,0,0,0,658.049-4009.908Zm-32.232-36.231c-1.825,4.184-3.558,8.163-5.344,12.26h10.706C629.39-4037.97,627.654-4041.941,625.817-4046.139Zm-7.783,35.891a6.194,6.194,0,0,0-.713-.294c-.057-.021-.115-.04-.174-.057-.018-.007-.036-.011-.054-.017-.068-.021-.136-.041-.2-.059l-.2-.052-.169-.038-.186-.038-.158-.028c-.145-.024-.289-.044-.435-.062-.125-.013-.25-.026-.375-.036-.073-.006-.146-.01-.22-.014-1.227-.072-2.475.049-3.719.05v12.518c1.51,0,2.972.09,4.418-.017.183-.014.363-.033.539-.061.133-.021.264-.045.392-.072.085-.019.17-.04.254-.061s.167-.045.249-.07.164-.051.243-.079l.119-.043a5.875,5.875,0,0,0,.575-.25q.222-.112.432-.24c.1-.065.208-.132.308-.2a5.693,5.693,0,0,0,.745-.629,6.29,6.29,0,0,0,1.7-3.367A6.263,6.263,0,0,0,618.034-4010.248Zm-49.965-34.521a4.569,4.569,0,0,0-.971-1.491c-.02-.021-.041-.043-.062-.062a4.51,4.51,0,0,0-1.46-.941c-.054-.022-.109-.043-.164-.064-.11-.041-.223-.078-.337-.112s-.231-.064-.348-.092c-.059-.014-.118-.027-.178-.039-.119-.024-.24-.045-.362-.064-.244-.037-.493-.061-.745-.075-2.677-.141-5.366-.079-8.049-.079l-.1,0c-.059,0-.118-.007-.177-.013-.09-.009-.18-.019-.271-.025h-.013a1.61,1.61,0,0,0-.512.028h0a1.1,1.1,0,0,0-.331.138v10.372c2.495,0,4.911,0,7.317,0l1.031,0a6.522,6.522,0,0,0,.707-.04c.024,0,.048,0,.07-.007l.088-.011c.174-.022.346-.049.519-.081l.15-.028c.3-.057.6-.125.9-.192C567.955-4038.359,569.321-4041.711,568.068-4044.769Zm-32.793,6.5a9.823,9.823,0,0,0-2.809-6.387c-.2-.193-.4-.38-.615-.559q-.385-.322-.812-.614c-.189-.13-.385-.254-.587-.375q-.227-.135-.464-.263c-.105-.056-.213-.112-.321-.166s-.219-.107-.33-.16c-3.511-1.642-7.3-.933-11-.926a.155.155,0,0,0-.091.051c-.035.032-.077.074-.133.118v21.184c.05.013.1.028.143.043l.136.044a.883.883,0,0,0,.256.048h.483c.8,0,1.6.017,2.406.024,1.291.011,2.581.007,3.868-.071a13.213,13.213,0,0,0,1.5-.176c.141-.025.28-.052.419-.082l.208-.045q.312-.073.616-.163a9.81,9.81,0,0,0,3.577-1.894q.369-.31.7-.636C534.869-4031.7,535.561-4034.8,535.276-4038.266ZM524.307-4008.8c-.123-.145-.248-.282-.375-.409q-.114-.116-.232-.22c-.078-.07-.157-.138-.237-.2l-.08-.063c-.053-.042-.107-.082-.162-.12l-.082-.058c-.055-.038-.11-.075-.164-.109q-.207-.133-.421-.242a5.815,5.815,0,0,0-.786-.333c-.06-.021-.119-.041-.179-.058-1.793-.55-3.809-.3-5.785-.288v12.488c1.261,0,2.456.078,3.623.042q.217-.007.432-.019c.073,0,.146-.008.218-.014.144-.011.287-.023.43-.039a5.691,5.691,0,0,0,3.446-1.494,5.294,5.294,0,0,0,1.264-2A6.548,6.548,0,0,0,524.307-4008.8Zm133.742-1.113a2.753,2.753,0,0,0-.563-.424,3.578,3.578,0,0,0-.838-.344,7.326,7.326,0,0,0-.777-.167,29.172,29.172,0,0,0-4.434-.075c-.093,0-.186,0-.278,0l-.142,0c-.186-.006-.373-.018-.56-.032v6.188c1.746-.163,3.427.107,5.071-.087l.159-.021c.214-.03.425-.067.637-.115.106-.025.212-.05.317-.08a3.238,3.238,0,0,0,1.018-.482,3.248,3.248,0,0,0,.277-.226l.085-.082a2.8,2.8,0,0,0,.825-2.025A2.77,2.77,0,0,0,658.049-4009.908Zm-32.232-36.231c-1.825,4.184-3.558,8.163-5.344,12.26h10.706C629.39-4037.97,627.654-4041.941,625.817-4046.139Zm-7.783,35.891a6.194,6.194,0,0,0-.713-.294c-.057-.021-.115-.04-.174-.057-.018-.007-.036-.011-.054-.017-.068-.021-.136-.041-.2-.059l-.2-.052-.169-.038-.186-.038-.158-.028c-.145-.024-.289-.044-.435-.062-.125-.013-.25-.026-.375-.036-.073-.006-.146-.01-.22-.014-1.227-.072-2.475.049-3.719.05v12.518c1.51,0,2.972.09,4.418-.017.183-.014.363-.033.539-.061.133-.021.264-.045.392-.072.085-.019.17-.04.254-.061s.167-.045.249-.07.164-.051.243-.079l.119-.043a5.875,5.875,0,0,0,.575-.25q.222-.112.432-.24c.1-.065.208-.132.308-.2a5.693,5.693,0,0,0,.745-.629,6.29,6.29,0,0,0,1.7-3.367A6.263,6.263,0,0,0,618.034-4010.248Zm-49.965-34.521a4.569,4.569,0,0,0-.971-1.491c-.02-.021-.041-.043-.062-.062a4.51,4.51,0,0,0-1.46-.941c-.054-.022-.109-.043-.164-.064-.11-.041-.223-.078-.337-.112s-.231-.064-.348-.092c-.059-.014-.118-.027-.178-.039-.119-.024-.24-.045-.362-.064-.244-.037-.493-.061-.745-.075-2.677-.141-5.366-.079-8.049-.079l-.1,0c-.059,0-.118-.007-.177-.013-.09-.009-.18-.019-.271-.025h-.013a1.61,1.61,0,0,0-.512.028h0a1.1,1.1,0,0,0-.331.138v10.372c2.495,0,4.911,0,7.317,0l1.031,0a6.522,6.522,0,0,0,.707-.04c.024,0,.048,0,.07-.007l.088-.011c.174-.022.346-.049.519-.081l.15-.028c.3-.057.6-.125.9-.192C567.955-4038.359,569.321-4041.711,568.068-4044.769Zm-32.793,6.5a9.823,9.823,0,0,0-2.809-6.387c-.2-.193-.4-.38-.615-.559q-.385-.322-.812-.614c-.189-.13-.385-.254-.587-.375q-.227-.135-.464-.263c-.105-.056-.213-.112-.321-.166s-.219-.107-.33-.16c-3.511-1.642-7.3-.933-11-.926a.155.155,0,0,0-.091.051c-.035.032-.077.074-.133.118v21.184c.05.013.1.028.143.043l.136.044a.883.883,0,0,0,.256.048h.483c.8,0,1.6.017,2.406.024,1.291.011,2.581.007,3.868-.071a13.213,13.213,0,0,0,1.5-.176c.141-.025.28-.052.419-.082l.208-.045q.312-.073.616-.163a9.81,9.81,0,0,0,3.577-1.894q.369-.31.7-.636C534.869-4031.7,535.561-4034.8,535.276-4038.266ZM524.307-4008.8c-.123-.145-.248-.282-.375-.409q-.114-.116-.232-.22c-.078-.07-.157-.138-.237-.2l-.08-.063c-.053-.042-.107-.082-.162-.12l-.082-.058c-.055-.038-.11-.075-.164-.109q-.207-.133-.421-.242a5.815,5.815,0,0,0-.786-.333c-.06-.021-.119-.041-.179-.058-1.793-.55-3.809-.3-5.785-.288v12.488c1.261,0,2.456.078,3.623.042q.217-.007.432-.019c.073,0,.146-.008.218-.014.144-.011.287-.023.43-.039a5.691,5.691,0,0,0,3.446-1.494,5.294,5.294,0,0,0,1.264-2A6.548,6.548,0,0,0,524.307-4008.8Zm133.742-1.113a2.753,2.753,0,0,0-.563-.424,3.578,3.578,0,0,0-.838-.344,7.326,7.326,0,0,0-.777-.167,29.172,29.172,0,0,0-4.434-.075c-.093,0-.186,0-.278,0l-.142,0c-.186-.006-.373-.018-.56-.032v6.188c1.746-.163,3.427.107,5.071-.087l.159-.021c.214-.03.425-.067.637-.115.106-.025.212-.05.317-.08a3.238,3.238,0,0,0,1.018-.482,3.248,3.248,0,0,0,.277-.226l.085-.082a2.8,2.8,0,0,0,.825-2.025A2.77,2.77,0,0,0,658.049-4009.908Zm-40.015-.34a6.194,6.194,0,0,0-.713-.294c-.057-.021-.115-.04-.174-.057-.018-.007-.036-.011-.054-.017-.068-.021-.136-.041-.2-.059l-.2-.052-.169-.038-.186-.038-.158-.028c-.145-.024-.289-.044-.435-.062-.125-.013-.25-.026-.375-.036-.073-.006-.146-.01-.22-.014-1.227-.072-2.475.049-3.719.05v12.518c1.51,0,2.972.09,4.418-.017.183-.014.363-.033.539-.061.133-.021.264-.045.392-.072.085-.019.17-.04.254-.061s.167-.045.249-.07.164-.051.243-.079l.119-.043a5.875,5.875,0,0,0,.575-.25q.222-.112.432-.24c.1-.065.208-.132.308-.2a5.693,5.693,0,0,0,.745-.629,6.29,6.29,0,0,0,1.7-3.367A6.263,6.263,0,0,0,618.034-4010.248Zm-49.965-34.521a4.569,4.569,0,0,0-.971-1.491c-.02-.021-.041-.043-.062-.062a4.51,4.51,0,0,0-1.46-.941c-.054-.022-.109-.043-.164-.064-.11-.041-.223-.078-.337-.112s-.231-.064-.348-.092c-.059-.014-.118-.027-.178-.039-.119-.024-.24-.045-.362-.064-.244-.037-.493-.061-.745-.075-2.677-.141-5.366-.079-8.049-.079l-.1,0c-.059,0-.118-.007-.177-.013-.09-.009-.18-.019-.271-.025h-.013a1.61,1.61,0,0,0-.512.028h0a1.1,1.1,0,0,0-.331.138v10.372c2.495,0,4.911,0,7.317,0l1.031,0a6.522,6.522,0,0,0,.707-.04c.024,0,.048,0,.07-.007l.088-.011c.174-.022.346-.049.519-.081l.15-.028c.3-.057.6-.125.9-.192C567.955-4038.359,569.321-4041.711,568.068-4044.769Zm-32.793,6.5a9.823,9.823,0,0,0-2.809-6.387c-.2-.193-.4-.38-.615-.559q-.385-.322-.812-.614c-.189-.13-.385-.254-.587-.375q-.227-.135-.464-.263c-.105-.056-.213-.112-.321-.166s-.219-.107-.33-.16c-3.511-1.642-7.3-.933-11-.926a.155.155,0,0,0-.091.051c-.035.032-.077.074-.133.118v21.184c.05.013.1.028.143.043l.136.044a.883.883,0,0,0,.256.048h.483c.8,0,1.6.017,2.406.024,1.291.011,2.581.007,3.868-.071a13.213,13.213,0,0,0,1.5-.176c.141-.025.28-.052.419-.082l.208-.045q.312-.073.616-.163a9.81,9.81,0,0,0,3.577-1.894q.369-.31.7-.636C534.869-4031.7,535.561-4034.8,535.276-4038.266ZM524.307-4008.8c-.123-.145-.248-.282-.375-.409q-.114-.116-.232-.22c-.078-.07-.157-.138-.237-.2l-.08-.063c-.053-.042-.107-.082-.162-.12l-.082-.058c-.055-.038-.11-.075-.164-.109q-.207-.133-.421-.242a5.815,5.815,0,0,0-.786-.333c-.06-.021-.119-.041-.179-.058-1.793-.55-3.809-.3-5.785-.288v12.488c1.261,0,2.456.078,3.623.042q.217-.007.432-.019c.073,0,.146-.008.218-.014.144-.011.287-.023.43-.039a5.691,5.691,0,0,0,3.446-1.494,5.294,5.294,0,0,0,1.264-2A6.548,6.548,0,0,0,524.307-4008.8Zm133.742-1.113a2.753,2.753,0,0,0-.563-.424,3.578,3.578,0,0,0-.838-.344,7.326,7.326,0,0,0-.777-.167,29.172,29.172,0,0,0-4.434-.075c-.093,0-.186,0-.278,0l-.142,0c-.186-.006-.373-.018-.56-.032v6.188c1.746-.163,3.427.107,5.071-.087l.159-.021c.214-.03.425-.067.637-.115.106-.025.212-.05.317-.08a3.238,3.238,0,0,0,1.018-.482,3.248,3.248,0,0,0,.277-.226l.085-.082a2.8,2.8,0,0,0,.825-2.025A2.77,2.77,0,0,0,658.049-4009.908Zm-40.015-.34a6.194,6.194,0,0,0-.713-.294c-.057-.021-.115-.04-.174-.057-.018-.007-.036-.011-.054-.017-.068-.021-.136-.041-.2-.059l-.2-.052-.169-.038-.186-.038-.158-.028c-.145-.024-.289-.044-.435-.062-.125-.013-.25-.026-.375-.036-.073-.006-.146-.01-.22-.014-1.227-.072-2.475.049-3.719.05v12.518c1.51,0,2.972.09,4.418-.017.183-.014.363-.033.539-.061.133-.021.264-.045.392-.072.085-.019.17-.04.254-.061s.167-.045.249-.07.164-.051.243-.079l.119-.043a5.875,5.875,0,0,0,.575-.25q.222-.112.432-.24c.1-.065.208-.132.308-.2a5.693,5.693,0,0,0,.745-.629,6.29,6.29,0,0,0,1.7-3.367A6.263,6.263,0,0,0,618.034-4010.248Zm-49.965-34.521a4.569,4.569,0,0,0-.971-1.491c-.02-.021-.041-.043-.062-.062a4.51,4.51,0,0,0-1.46-.941c-.054-.022-.109-.043-.164-.064-.11-.041-.223-.078-.337-.112s-.231-.064-.348-.092c-.059-.014-.118-.027-.178-.039-.119-.024-.24-.045-.362-.064-.244-.037-.493-.061-.745-.075-2.677-.141-5.366-.079-8.049-.079l-.1,0c-.059,0-.118-.007-.177-.013-.09-.009-.18-.019-.271-.025h-.013a1.61,1.61,0,0,0-.512.028h0a1.1,1.1,0,0,0-.331.138v10.372c2.495,0,4.911,0,7.317,0l1.031,0a6.522,6.522,0,0,0,.707-.04c.024,0,.048,0,.07-.007l.088-.011c.174-.022.346-.049.519-.081l.15-.028c.3-.057.6-.125.9-.192C567.955-4038.359,569.321-4041.711,568.068-4044.769Zm-32.793,6.5a9.823,9.823,0,0,0-2.809-6.387c-.2-.193-.4-.38-.615-.559q-.385-.322-.812-.614c-.189-.13-.385-.254-.587-.375q-.227-.135-.464-.263c-.105-.056-.213-.112-.321-.166s-.219-.107-.33-.16c-3.511-1.642-7.3-.933-11-.926a.155.155,0,0,0-.091.051c-.035.032-.077.074-.133.118v21.184c.05.013.1.028.143.043l.136.044a.883.883,0,0,0,.256.048h.483c.8,0,1.6.017,2.406.024,1.291.011,2.581.007,3.868-.071a13.213,13.213,0,0,0,1.5-.176c.141-.025.28-.052.419-.082l.208-.045q.312-.073.616-.163a9.81,9.81,0,0,0,3.577-1.894q.369-.31.7-.636C534.869-4031.7,535.561-4034.8,535.276-4038.266ZM524.307-4008.8c-.123-.145-.248-.282-.375-.409q-.114-.116-.232-.22c-.078-.07-.157-.138-.237-.2l-.08-.063c-.053-.042-.107-.082-.162-.12l-.082-.058c-.055-.038-.11-.075-.164-.109q-.207-.133-.421-.242a5.815,5.815,0,0,0-.786-.333c-.06-.021-.119-.041-.179-.058-1.793-.55-3.809-.3-5.785-.288v12.488c1.261,0,2.456.078,3.623.042q.217-.007.432-.019c.073,0,.146-.008.218-.014.144-.011.287-.023.43-.039a5.691,5.691,0,0,0,3.446-1.494,5.294,5.294,0,0,0,1.264-2A6.548,6.548,0,0,0,524.307-4008.8Zm133.742-1.113a2.753,2.753,0,0,0-.563-.424,3.578,3.578,0,0,0-.838-.344,7.326,7.326,0,0,0-.777-.167,29.172,29.172,0,0,0-4.434-.075c-.093,0-.186,0-.278,0l-.142,0c-.186-.006-.373-.018-.56-.032v6.188c1.746-.163,3.427.107,5.071-.087l.159-.021c.214-.03.425-.067.637-.115.106-.025.212-.05.317-.08a3.238,3.238,0,0,0,1.018-.482,3.248,3.248,0,0,0,.277-.226l.085-.082a2.8,2.8,0,0,0,.825-2.025A2.77,2.77,0,0,0,658.049-4009.908Zm-40.015-.34a6.194,6.194,0,0,0-.713-.294c-.057-.021-.115-.04-.174-.057-.018-.007-.036-.011-.054-.017-.068-.021-.136-.041-.2-.059l-.2-.052-.169-.038-.186-.038-.158-.028c-.145-.024-.289-.044-.435-.062-.125-.013-.25-.026-.375-.036-.073-.006-.146-.01-.22-.014-1.227-.072-2.475.049-3.719.05v12.518c1.51,0,2.972.09,4.418-.017.183-.014.363-.033.539-.061.133-.021.264-.045.392-.072.085-.019.17-.04.254-.061s.167-.045.249-.07.164-.051.243-.079l.119-.043a5.875,5.875,0,0,0,.575-.25q.222-.112.432-.24c.1-.065.208-.132.308-.2a5.693,5.693,0,0,0,.745-.629,6.29,6.29,0,0,0,1.7-3.367A6.263,6.263,0,0,0,618.034-4010.248Zm-93.727,1.453c-.123-.145-.248-.282-.375-.409q-.114-.116-.232-.22c-.078-.07-.157-.138-.237-.2l-.08-.063c-.053-.042-.107-.082-.162-.12l-.082-.058c-.055-.038-.11-.075-.164-.109q-.207-.133-.421-.242a5.815,5.815,0,0,0-.786-.333c-.06-.021-.119-.041-.179-.058-1.793-.55-3.809-.3-5.785-.288v12.488c1.261,0,2.456.078,3.623.042q.217-.007.432-.019c.073,0,.146-.008.218-.014.144-.011.287-.023.43-.039a5.691,5.691,0,0,0,3.446-1.494,5.294,5.294,0,0,0,1.264-2A6.548,6.548,0,0,0,524.307-4008.8Zm133.742-1.113a2.753,2.753,0,0,0-.563-.424,3.578,3.578,0,0,0-.838-.344,7.326,7.326,0,0,0-.777-.167,29.172,29.172,0,0,0-4.434-.075c-.093,0-.186,0-.278,0l-.142,0c-.186-.006-.373-.018-.56-.032v6.188c1.746-.163,3.427.107,5.071-.087l.159-.021c.214-.03.425-.067.637-.115.106-.025.212-.05.317-.08a3.238,3.238,0,0,0,1.018-.482,3.248,3.248,0,0,0,.277-.226l.085-.082a2.8,2.8,0,0,0,.825-2.025A2.77,2.77,0,0,0,658.049-4009.908Zm-40.015-.34a6.194,6.194,0,0,0-.713-.294c-.057-.021-.115-.04-.174-.057-.018-.007-.036-.011-.054-.017-.068-.021-.136-.041-.2-.059l-.2-.052-.169-.038-.186-.038-.158-.028c-.145-.024-.289-.044-.435-.062-.125-.013-.25-.026-.375-.036-.073-.006-.146-.01-.22-.014-1.227-.072-2.475.049-3.719.05v12.518c1.51,0,2.972.09,4.418-.017.183-.014.363-.033.539-.061.133-.021.264-.045.392-.072.085-.019.17-.04.254-.061s.167-.045.249-.07.164-.051.243-.079l.119-.043a5.875,5.875,0,0,0,.575-.25q.222-.112.432-.24c.1-.065.208-.132.308-.2a5.693,5.693,0,0,0,.745-.629,6.29,6.29,0,0,0,1.7-3.367A6.263,6.263,0,0,0,618.034-4010.248Zm-93.727,1.453c-.123-.145-.248-.282-.375-.409q-.114-.116-.232-.22c-.078-.07-.157-.138-.237-.2l-.08-.063c-.053-.042-.107-.082-.162-.12l-.082-.058c-.055-.038-.11-.075-.164-.109q-.207-.133-.421-.242a5.815,5.815,0,0,0-.786-.333c-.06-.021-.119-.041-.179-.058-1.793-.55-3.809-.3-5.785-.288v12.488c1.261,0,2.456.078,3.623.042q.217-.007.432-.019c.073,0,.146-.008.218-.014.144-.011.287-.023.43-.039a5.691,5.691,0,0,0,3.446-1.494,5.294,5.294,0,0,0,1.264-2A6.548,6.548,0,0,0,524.307-4008.8Zm133.742-1.113a2.753,2.753,0,0,0-.563-.424,3.578,3.578,0,0,0-.838-.344,7.326,7.326,0,0,0-.777-.167,29.172,29.172,0,0,0-4.434-.075c-.093,0-.186,0-.278,0l-.142,0c-.186-.006-.373-.018-.56-.032v6.188c1.746-.163,3.427.107,5.071-.087l.159-.021c.214-.03.425-.067.637-.115.106-.025.212-.05.317-.08a3.238,3.238,0,0,0,1.018-.482,3.248,3.248,0,0,0,.277-.226l.085-.082a2.8,2.8,0,0,0,.825-2.025A2.77,2.77,0,0,0,658.049-4009.908Zm-40.015-.34a6.194,6.194,0,0,0-.713-.294c-.057-.021-.115-.04-.174-.057-.018-.007-.036-.011-.054-.017-.068-.021-.136-.041-.2-.059l-.2-.052-.169-.038-.186-.038-.158-.028c-.145-.024-.289-.044-.435-.062-.125-.013-.25-.026-.375-.036-.073-.006-.146-.01-.22-.014-1.227-.072-2.475.049-3.719.05v12.518c1.51,0,2.972.09,4.418-.017.183-.014.363-.033.539-.061.133-.021.264-.045.392-.072.085-.019.17-.04.254-.061s.167-.045.249-.07.164-.051.243-.079l.119-.043a5.875,5.875,0,0,0,.575-.25q.222-.112.432-.24c.1-.065.208-.132.308-.2a5.693,5.693,0,0,0,.745-.629,6.29,6.29,0,0,0,1.7-3.367A6.263,6.263,0,0,0,618.034-4010.248Zm-93.727,1.453c-.123-.145-.248-.282-.375-.409q-.114-.116-.232-.22c-.078-.07-.157-.138-.237-.2l-.08-.063c-.053-.042-.107-.082-.162-.12l-.082-.058c-.055-.038-.11-.075-.164-.109q-.207-.133-.421-.242a5.815,5.815,0,0,0-.786-.333c-.06-.021-.119-.041-.179-.058-1.793-.55-3.809-.3-5.785-.288v12.488c1.261,0,2.456.078,3.623.042q.217-.007.432-.019c.073,0,.146-.008.218-.014.144-.011.287-.023.43-.039a5.691,5.691,0,0,0,3.446-1.494,5.294,5.294,0,0,0,1.264-2A6.548,6.548,0,0,0,524.307-4008.8Zm133.742-1.113a2.753,2.753,0,0,0-.563-.424,3.578,3.578,0,0,0-.838-.344,7.326,7.326,0,0,0-.777-.167,29.172,29.172,0,0,0-4.434-.075c-.093,0-.186,0-.278,0l-.142,0c-.186-.006-.373-.018-.56-.032v6.188c1.746-.163,3.427.107,5.071-.087l.159-.021c.214-.03.425-.067.637-.115.106-.025.212-.05.317-.08a3.238,3.238,0,0,0,1.018-.482,3.248,3.248,0,0,0,.277-.226l.085-.082a2.8,2.8,0,0,0,.825-2.025A2.77,2.77,0,0,0,658.049-4009.908Zm-40.015-.34a6.194,6.194,0,0,0-.713-.294c-.057-.021-.115-.04-.174-.057-.018-.007-.036-.011-.054-.017-.068-.021-.136-.041-.2-.059l-.2-.052-.169-.038-.186-.038-.158-.028c-.145-.024-.289-.044-.435-.062-.125-.013-.25-.026-.375-.036-.073-.006-.146-.01-.22-.014-1.227-.072-2.475.049-3.719.05v12.518c1.51,0,2.972.09,4.418-.017.183-.014.363-.033.539-.061.133-.021.264-.045.392-.072.085-.019.17-.04.254-.061s.167-.045.249-.07.164-.051.243-.079l.119-.043a5.875,5.875,0,0,0,.575-.25q.222-.112.432-.24c.1-.065.208-.132.308-.2a5.693,5.693,0,0,0,.745-.629,6.29,6.29,0,0,0,1.7-3.367A6.263,6.263,0,0,0,618.034-4010.248Zm-93.727,1.453c-.123-.145-.248-.282-.375-.409q-.114-.116-.232-.22c-.078-.07-.157-.138-.237-.2l-.08-.063c-.053-.042-.107-.082-.162-.12l-.082-.058c-.055-.038-.11-.075-.164-.109q-.207-.133-.421-.242a5.815,5.815,0,0,0-.786-.333c-.06-.021-.119-.041-.179-.058-1.793-.55-3.809-.3-5.785-.288v12.488c1.261,0,2.456.078,3.623.042q.217-.007.432-.019c.073,0,.146-.008.218-.014.144-.011.287-.023.43-.039a5.691,5.691,0,0,0,3.446-1.494,5.294,5.294,0,0,0,1.264-2A6.548,6.548,0,0,0,524.307-4008.8Zm93.727-1.453a6.194,6.194,0,0,0-.713-.294c-.057-.021-.115-.04-.174-.057-.018-.007-.036-.011-.054-.017-.068-.021-.136-.041-.2-.059l-.2-.052-.169-.038-.186-.038-.158-.028c-.145-.024-.289-.044-.435-.062-.125-.013-.25-.026-.375-.036-.073-.006-.146-.01-.22-.014-1.227-.072-2.475.049-3.719.05v12.518c1.51,0,2.972.09,4.418-.017.183-.014.363-.033.539-.061.133-.021.264-.045.392-.072.085-.019.17-.04.254-.061s.167-.045.249-.07.164-.051.243-.079l.119-.043a5.875,5.875,0,0,0,.575-.25q.222-.112.432-.24c.1-.065.208-.132.308-.2a5.693,5.693,0,0,0,.745-.629,6.29,6.29,0,0,0,1.7-3.367A6.263,6.263,0,0,0,618.034-4010.248Zm-93.727,1.453c-.123-.145-.248-.282-.375-.409q-.114-.116-.232-.22c-.078-.07-.157-.138-.237-.2l-.08-.063c-.053-.042-.107-.082-.162-.12l-.082-.058c-.055-.038-.11-.075-.164-.109q-.207-.133-.421-.242a5.815,5.815,0,0,0-.786-.333c-.06-.021-.119-.041-.179-.058-1.793-.55-3.809-.3-5.785-.288v12.488c1.261,0,2.456.078,3.623.042q.217-.007.432-.019c.073,0,.146-.008.218-.014.144-.011.287-.023.43-.039a5.691,5.691,0,0,0,3.446-1.494,5.294,5.294,0,0,0,1.264-2A6.548,6.548,0,0,0,524.307-4008.8Zm93.727-1.453a6.194,6.194,0,0,0-.713-.294c-.057-.021-.115-.04-.174-.057-.018-.007-.036-.011-.054-.017-.068-.021-.136-.041-.2-.059l-.2-.052-.169-.038-.186-.038-.158-.028c-.145-.024-.289-.044-.435-.062-.125-.013-.25-.026-.375-.036-.073-.006-.146-.01-.22-.014-1.227-.072-2.475.049-3.719.05v12.518c1.51,0,2.972.09,4.418-.017.183-.014.363-.033.539-.061.133-.021.264-.045.392-.072.085-.019.17-.04.254-.061s.167-.045.249-.07.164-.051.243-.079l.119-.043a5.875,5.875,0,0,0,.575-.25q.222-.112.432-.24c.1-.065.208-.132.308-.2a5.693,5.693,0,0,0,.745-.629,6.29,6.29,0,0,0,1.7-3.367A6.263,6.263,0,0,0,618.034-4010.248Zm-93.727,1.453c-.123-.145-.248-.282-.375-.409q-.114-.116-.232-.22c-.078-.07-.157-.138-.237-.2l-.08-.063c-.053-.042-.107-.082-.162-.12l-.082-.058c-.055-.038-.11-.075-.164-.109q-.207-.133-.421-.242a5.815,5.815,0,0,0-.786-.333c-.06-.021-.119-.041-.179-.058-1.793-.55-3.809-.3-5.785-.288v12.488c1.261,0,2.456.078,3.623.042q.217-.007.432-.019c.073,0,.146-.008.218-.014.144-.011.287-.023.43-.039a5.691,5.691,0,0,0,3.446-1.494,5.294,5.294,0,0,0,1.264-2A6.548,6.548,0,0,0,524.307-4008.8Zm0,0c-.123-.145-.248-.282-.375-.409q-.114-.116-.232-.22c-.078-.07-.157-.138-.237-.2l-.08-.063c-.053-.042-.107-.082-.162-.12l-.082-.058c-.055-.038-.11-.075-.164-.109q-.207-.133-.421-.242a5.815,5.815,0,0,0-.786-.333c-.06-.021-.119-.041-.179-.058-1.793-.55-3.809-.3-5.785-.288v12.488c1.261,0,2.456.078,3.623.042q.217-.007.432-.019c.073,0,.146-.008.218-.014.144-.011.287-.023.43-.039a5.691,5.691,0,0,0,3.446-1.494,5.294,5.294,0,0,0,1.264-2A6.548,6.548,0,0,0,524.307-4008.8Zm0,0c-.123-.145-.248-.282-.375-.409q-.114-.116-.232-.22c-.078-.07-.157-.138-.237-.2l-.08-.063c-.053-.042-.107-.082-.162-.12l-.082-.058c-.055-.038-.11-.075-.164-.109q-.207-.133-.421-.242a5.815,5.815,0,0,0-.786-.333c-.06-.021-.119-.041-.179-.058-1.793-.55-3.809-.3-5.785-.288v12.488c1.261,0,2.456.078,3.623.042q.217-.007.432-.019c.073,0,.146-.008.218-.014.144-.011.287-.023.43-.039a5.691,5.691,0,0,0,3.446-1.494,5.294,5.294,0,0,0,1.264-2A6.548,6.548,0,0,0,524.307-4008.8Zm0,0c-.123-.145-.248-.282-.375-.409q-.114-.116-.232-.22c-.078-.07-.157-.138-.237-.2l-.08-.063c-.053-.042-.107-.082-.162-.12l-.082-.058c-.055-.038-.11-.075-.164-.109q-.207-.133-.421-.242a5.815,5.815,0,0,0-.786-.333c-.06-.021-.119-.041-.179-.058-1.793-.55-3.809-.3-5.785-.288v12.488c1.261,0,2.456.078,3.623.042q.217-.007.432-.019c.073,0,.146-.008.218-.014.144-.011.287-.023.43-.039a5.691,5.691,0,0,0,3.446-1.494,5.294,5.294,0,0,0,1.264-2A6.548,6.548,0,0,0,524.307-4008.8Zm0,0c-.123-.145-.248-.282-.375-.409q-.114-.116-.232-.22c-.078-.07-.157-.138-.237-.2l-.08-.063c-.053-.042-.107-.082-.162-.12l-.082-.058c-.055-.038-.11-.075-.164-.109q-.207-.133-.421-.242a5.815,5.815,0,0,0-.786-.333c-.06-.021-.119-.041-.179-.058-1.793-.55-3.809-.3-5.785-.288v12.488c1.261,0,2.456.078,3.623.042q.217-.007.432-.019c.073,0,.146-.008.218-.014.144-.011.287-.023.43-.039a5.691,5.691,0,0,0,3.446-1.494,5.294,5.294,0,0,0,1.264-2A6.548,6.548,0,0,0,524.307-4008.8Zm0,0c-.123-.145-.248-.282-.375-.409q-.114-.116-.232-.22c-.078-.07-.157-.138-.237-.2l-.08-.063c-.053-.042-.107-.082-.162-.12l-.082-.058c-.055-.038-.11-.075-.164-.109q-.207-.133-.421-.242a5.815,5.815,0,0,0-.786-.333c-.06-.021-.119-.041-.179-.058-1.793-.55-3.809-.3-5.785-.288v12.488c1.261,0,2.456.078,3.623.042q.217-.007.432-.019c.073,0,.146-.008.218-.014.144-.011.287-.023.43-.039a5.691,5.691,0,0,0,3.446-1.494,5.294,5.294,0,0,0,1.264-2A6.548,6.548,0,0,0,524.307-4008.8Zm0,0c-.123-.145-.248-.282-.375-.409q-.114-.116-.232-.22c-.078-.07-.157-.138-.237-.2l-.08-.063c-.053-.042-.107-.082-.162-.12l-.082-.058c-.055-.038-.11-.075-.164-.109q-.207-.133-.421-.242a5.815,5.815,0,0,0-.786-.333c-.06-.021-.119-.041-.179-.058-1.793-.55-3.809-.3-5.785-.288v12.488c1.261,0,2.456.078,3.623.042q.217-.007.432-.019c.073,0,.146-.008.218-.014.144-.011.287-.023.43-.039a5.691,5.691,0,0,0,3.446-1.494,5.294,5.294,0,0,0,1.264-2A6.548,6.548,0,0,0,524.307-4008.8Z" transform="translate(-497.996 4067.475)"/><path d="M1193.121-3817.3a10.962,10.962,0,0,1-2.432.359c-2.748-.008-5.5,0-8.348,0v-10.372c.479-.3.954-.125,1.4-.125,2.684,0,5.372-.062,8.049.08a4.874,4.874,0,0,1,4.628,2.941C1197.672-3821.365,1196.305-3818.013,1193.121-3817.3Z" transform="translate(-1126.346 3847.129)"/><path d="M757.534-3808.654a10.613,10.613,0,0,1-6.317,2.36c-2.245.137-4.5.047-6.758.045a2.376,2.376,0,0,1-.535-.136v-21.184c.112-.088.168-.169.224-.169,3.694-.006,7.486-.716,11,.926a9.755,9.755,0,0,1,5.937,8.521C761.393-3814.517,760.544-3811.178,757.534-3808.654Z" transform="translate(-723.802 3847.499)"/><path d="M2005.57-3794.459h-10.707c1.786-4.1,3.52-8.077,5.344-12.261C2002.044-3802.521,2003.78-3798.55,2005.57-3794.459Z" transform="translate(-1872.387 3828.055)"/><path d="M2369.718-3373.787a2.885,2.885,0,0,1-2.205,2.815c-2,.554-4.043.1-6.186.3v-6.188c2.084.167,4.157-.277,6.19.282A2.764,2.764,0,0,1,2369.718-3373.787Z" transform="translate(-2208.866 3433.375)"/><path d="M725.028-3367.776a5.25,5.25,0,0,1-4.71,3.5,44.979,44.979,0,0,1-4.7.03v-12.488c3.066-.023,6.229-.606,8.5,2.1A6.548,6.548,0,0,1,725.028-3367.776Z" transform="translate(-697.809 3433.319)"/><path d="M1894.279-3369.314a5.923,5.923,0,0,1-5.554,5.073c-1.446.107-2.907.017-4.418.017v-12.519c2.237,0,4.487-.391,6.608.643A6.263,6.263,0,0,1,1894.279-3369.314Z" transform="translate(-1770.876 3433.327)"/></g></svg>