<svg xmlns="http://www.w3.org/2000/svg" width="88.99" height="67.24" viewBox="0 0 88.99 67.24">
  <g id="Group_5203" data-name="Group 5203" transform="translate(0.012 -0.107)">
    <path id="Path_1988" data-name="Path 1988" d="M97.023,48.9c-1.351.646-2.7,1.292-3.994,2.056C88.917,53.361,84.923,56,80.636,58.119L78.874,59c-.059.117-.117.176-.176.294a1.685,1.685,0,0,1-2,.764l-.881.352c-3.7,1.351-7.459,2.526-11.1,3.935-1.762.7-3.642.822-5.4,1.351-9.4,2.819-19.794,5.169-32.774,15.917a3.976,3.976,0,0,0-1.41,2.173h.059c0,.235.117.587-.059.7-.059.059-.117.059-.176.117,0,.176-.059.411-.059.587a1.962,1.962,0,0,0,3.23,1.762,38.816,38.816,0,0,1,3.23-2.173,8.068,8.068,0,0,1,3-1.527c2.114-.235,3.876-1.292,5.873-1.88,1.057-.294,2.114-.881,3.172-1.057,4.17-.587,8.047-2.584,12.334-2.467,2.173-.529,4.346-1,6.52-1.527-.059-.059-.117-.059-.176-.117a3.543,3.543,0,0,1,.47-.47.447.447,0,0,1,.352.47,32.526,32.526,0,0,0,3.407-1c4.405-1.468,8.986-2.584,13.157-4.816,2.173-.176,3.642-1.762,5.462-2.761,1.175-.881,2.408-1.762,3.524-2.7a81.919,81.919,0,0,0,9.1-9.515c.646-.7.822-1.645,1.586-4.405a2.087,2.087,0,0,0,.117-.587c-.176.294-.411.294-.646.059a.5.5,0,0,1,0-.411c.117-.235.235-.411.352-.646-.059-.059-.117-.176-.235-.235A1.51,1.51,0,0,0,97.023,48.9ZM50.094,72.626c.235.235.176.411-.235.529a.835.835,0,0,1-.352-.117l.176-.352C49.859,72.685,50.035,72.568,50.094,72.626ZM33.237,83.551c-.117.059-.294.117-.764.294a5.938,5.938,0,0,1-1.7.7,3.335,3.335,0,0,1-1.645-.352c-.529-.235-.529-1.116-.117-1.527a1.5,1.5,0,0,1,1.645-.411c1,.529,1.175-.117,1.468-.822.059-.176.587-.235.822-.176A1.447,1.447,0,0,1,34,82.552.962.962,0,0,1,33.237,83.551ZM64.542,67.281c.059-.117.059-.294.117-.411.117.059.294.059.411.117-.059.117-.059.352-.117.411S64.718,67.34,64.542,67.281Zm10.4-.822a.993.993,0,0,1,0,.822,2.072,2.072,0,0,1-1.057.646,3.865,3.865,0,0,1-2.7-1.527c-.529-.7-.94-1.527-1.527-2.408,1.7-.352,3.113-.294,4.17,1.057C74.175,65.578,74.586,65.989,74.938,66.459Zm7.577-6.7c-.176.411-.47.764-1,.587a1.281,1.281,0,0,1-.294-.235c-.235-.411-.059-.822.411-1.116.235,0,.587-.059.764.059A.625.625,0,0,1,82.515,59.763Z" transform="translate(-10.276 -20.074)"/>
    <path id="Path_1989" data-name="Path 1989" d="M82.613,27.767a7.2,7.2,0,0,1-.117-1.116c-.059-.411.411-.822.822-.881.47-.059,1,.235,1,.646.059.7.059,1.41.117,2.114,1.527.587,3.583,1.351,4.64,1.645a14.131,14.131,0,0,0,3.818.7c2.467.117,3.23.7,6.343,2a6.2,6.2,0,0,0,3.23.7,3.072,3.072,0,0,0,1.057-5.873c-2.232-1.057-7.166-2.819-9.926-3.876-.94-.352-1.88-.822-2.878-1.116-4.229-1.468-8.575-2.761-12.51-5.11-2.232-1.527-4.7-2.819-6.637-4.64A43.063,43.063,0,0,0,59.3,4.684c-2.7-1.233-5.227-3.054-8.34-3.113A5.8,5.8,0,0,1,49.37.984C48.665.69,47.96.455,47.255.22a1.492,1.492,0,0,0-1.527,2.526c2.232,2.291,4.757,2.878,6.931,4.17,3.172,2,6.167,4.17,9.221,6.4,3.465,2.526,6.167,5.932,9.867,8.282,3.465,2.232,7.107,4.111,10.69,6.167A.11.11,0,0,1,82.613,27.767ZM51.778,5.859a2.531,2.531,0,0,1-.176-1c.117-.529.7-.587,1.41-.176a.79.79,0,0,1,.352,1.057C53.07,6.329,52.541,6.387,51.778,5.859Z" transform="translate(-18.656 0)"/>
    <path id="Path_1990" data-name="Path 1990" d="M51.153,43.724c-.94.47-1.938.94-2.819,1.468-2.937,1.7-5.756,3.583-8.751,5.11-.411.235-.822.411-1.233.646-.059.059-.059.117-.117.176a1.23,1.23,0,0,1-1.41.529,2.863,2.863,0,0,1-.646.235c-2.584,1-5.286,1.762-7.87,2.761-1.233.47-2.584.587-3.876.94-6.7,2.056-14.038,3.7-23.259,11.336a2.621,2.621,0,0,0-1,1.586h0c0,.176.059.411,0,.529,0,.059-.059.059-.117.059A1,1,0,0,1,0,69.508a1.372,1.372,0,0,0,2.291,1.175L4.576,69.1A5.514,5.514,0,0,1,6.691,68.04a24.56,24.56,0,0,0,4.17-1.292,14.972,14.972,0,0,1,2.291-.764c2.937-.411,5.7-1.821,8.751-1.762,1.527-.352,3.113-.7,4.64-1.057-.059,0-.059-.059-.117-.059l.352-.352a.3.3,0,0,1,.235.294c.822-.235,1.645-.411,2.408-.7a55.745,55.745,0,0,0,9.339-3.407c1.527-.117,2.584-1.233,3.876-1.938.822-.646,1.7-1.233,2.526-1.88a58.541,58.541,0,0,0,6.461-6.754c.47-.529.587-1.175,1.116-3.113a1,1,0,0,0,.059-.411.276.276,0,0,1-.47.059c-.059-.059,0-.235,0-.294.059-.176.176-.294.235-.47l-.176-.176A1.072,1.072,0,0,0,51.153,43.724ZM17.909,60.58q.264.264-.176.352c-.059,0-.176-.059-.235-.059.059-.059.059-.176.117-.235C17.733,60.58,17.85,60.522,17.909,60.58ZM5.927,68.333a4.57,4.57,0,0,0-.529.176,3.6,3.6,0,0,1-1.233.47,2.8,2.8,0,0,1-1.175-.235.694.694,0,0,1-.059-1.057,1.127,1.127,0,0,1,1.175-.294c.7.352.822-.117,1.057-.587.059-.117.411-.176.587-.117a1.074,1.074,0,0,1,.764.881A.893.893,0,0,1,5.927,68.333Zm22.2-11.571c0-.117.059-.176.059-.294.117,0,.176.059.294.059a.44.44,0,0,1-.059.294C28.364,56.88,28.247,56.763,28.129,56.763Zm7.342-.587a.531.531,0,0,1,0,.587,1.2,1.2,0,0,1-.764.47,2.677,2.677,0,0,1-1.88-1.057,14.39,14.39,0,0,1-1.057-1.7c1.233-.235,2.232-.235,2.937.764A5.931,5.931,0,0,1,35.471,56.175Zm5.4-4.757c-.117.294-.352.529-.7.411a.265.265,0,0,1-.176-.176c-.176-.294-.059-.587.294-.764.176,0,.411-.059.529.059A.355.355,0,0,1,40.874,51.418Z" transform="translate(0 -17.954)"/>
    <path id="Path_1991" data-name="Path 1991" d="M40.984,28.7c-.059-.294-.059-.529-.117-.822s.294-.587.587-.646.7.176.7.47c.059.47.059,1,.117,1.468,1.116.411,2.526.94,3.289,1.175a8.717,8.717,0,0,0,2.7.47c1.762.059,2.291.47,4.523,1.41a4.529,4.529,0,0,0,2.291.529,2.186,2.186,0,0,0,.764-4.17c-1.586-.764-5.051-2-7.048-2.7-.7-.235-1.351-.587-2.056-.822a50.062,50.062,0,0,1-8.869-3.583,33.573,33.573,0,0,1-4.7-3.289,31.077,31.077,0,0,0-8.693-5.873c-1.88-.881-3.7-2.173-5.932-2.232a4.3,4.3,0,0,1-1.116-.411c-.47-.176-1-.352-1.468-.529a1.083,1.083,0,0,0-1.116,1.821c1.586,1.645,3.348,2.056,4.875,3,2.232,1.41,4.405,3,6.52,4.523,2.467,1.762,4.346,4.229,6.989,5.873,2.467,1.586,5.051,2.878,7.577,4.405C40.926,28.645,40.926,28.7,40.984,28.7ZM19.135,13.2a1.377,1.377,0,0,1-.117-.7c.059-.352.529-.411,1-.117a.53.53,0,0,1,.235.764C20.075,13.491,19.664,13.55,19.135,13.2Z" transform="translate(-5.984 -3.697)"/>
  </g>
</svg>
